<?xml version="1.0" encoding="UTF-8" standalone="no"?>
<!-- Created with Inkscape (http://www.inkscape.org/) -->

<svg
   xmlns:dc="http://purl.org/dc/elements/1.1/"
   xmlns:cc="http://creativecommons.org/ns#"
   xmlns:rdf="http://www.w3.org/1999/02/22-rdf-syntax-ns#"
   xmlns:svg="http://www.w3.org/2000/svg"
   xmlns="http://www.w3.org/2000/svg"
   xmlns:sodipodi="http://sodipodi.sourceforge.net/DTD/sodipodi-0.dtd"
   xmlns:inkscape="http://www.inkscape.org/namespaces/inkscape"
   version="1.0"
   width="170"
   height="73"
   viewBox="0 0 800 288.838"
   id="Layer_1"
   xml:space="preserve"
   sodipodi:version="0.32"
   inkscape:version="0.48.2 r9819"
   sodipodi:docname="esa_logo.svg"><metadata
   id="metadata63"><rdf:RDF><cc:Work
       rdf:about=""><dc:format>image/svg+xml</dc:format><dc:type
         rdf:resource="http://purl.org/dc/dcmitype/StillImage" /><dc:title></dc:title></cc:Work></rdf:RDF></metadata><sodipodi:namedview
   inkscape:window-height="856"
   inkscape:window-width="1280"
   inkscape:pageshadow="2"
   inkscape:pageopacity="0.0"
   guidetolerance="10.0"
   gridtolerance="10.0"
   objecttolerance="10.0"
   borderopacity="1.0"
   bordercolor="#666666"
   pagecolor="#ffffff"
   id="base"
   inkscape:zoom="2.8284271"
   inkscape:cx="42.680789"
   inkscape:cy="14.624503"
   inkscape:window-x="-4"
   inkscape:window-y="0"
   inkscape:current-layer="Layer_1"
   width="170px"
   height="73px"
   showgrid="false"
   inkscape:window-maximized="0" /><defs
   id="defs120">
	
	

		
		
		
	
			
			
			
		</defs>

<g
   id="g5"
   style="fill:#0099cc;fill-opacity:1">
		<path
   inkscape:connector-curvature="0"
   id="path7"
   style="fill:#0099cc;fill-opacity:1"
   d="m 19.093,215.859 c 16.627,28.637 41.878,50.808 72.67,62.817 -19.707,-12.01 -38.182,-26.174 -54.811,-43.417 -6.467,-5.851 -12.01,-12.317 -17.859,-19.4 z" />
		<path
   inkscape:connector-curvature="0"
   id="path9"
   style="fill:#0099cc;fill-opacity:1"
   d="m 3.696,176.136 c 1.539,6.158 3.387,12.01 5.235,17.552 9.545,13.549 19.707,25.868 31.715,37.875 22.787,22.171 47.73,40.339 74.52,54.197 6.158,1.23 12.625,2.155 18.475,2.771 C 101.308,274.057 71.133,253.734 44.958,227.56 28.639,211.855 15.397,194.304 3.696,176.136 z" />
		<path
   inkscape:connector-curvature="0"
   id="path11"
   style="fill:#0099cc;fill-opacity:1"
   d="m 0,147.499 c 0,4.619 0.616,9.236 0.925,13.549 12.624,22.478 28.637,43.727 47.728,62.817 29.562,29.562 63.743,51.117 100.386,64.973 4.619,0 9.239,-0.307 13.856,-0.923 C 122.558,274.673 84.683,251.886 52.35,219.555 30.485,198 13.549,173.365 0,147.499 z" />
		<path
   inkscape:connector-curvature="0"
   id="path13"
   style="fill:#0099cc;fill-opacity:1"
   d="m 1.541,124.712 c -0.616,3.696 -0.925,7.391 -0.925,11.086 12.933,28.944 31.717,56.041 55.736,80.061 34.488,34.181 75.134,57.275 118.552,69.901 3.696,-0.616 7.391,-1.541 11.087,-2.773 C 140.109,271.903 96.383,247.883 60.047,211.856 34.181,185.99 14.781,155.813 1.541,124.712 z" />
		<path
   inkscape:connector-curvature="0"
   id="path15"
   style="fill:#0099cc;fill-opacity:1"
   d="m 5.542,104.389 c -0.923,3.08 -1.846,6.467 -2.155,9.545 12.933,34.181 33.258,66.514 60.971,94.228 37.566,37.259 83.141,61.276 131.793,71.438 2.771,-0.923 5.85,-2.155 9.237,-3.694 C 154.889,266.667 106.853,242.65 68.052,204.466 38.8,174.904 18.168,141.341 5.542,104.389 z" />
		<path
   inkscape:connector-curvature="0"
   id="path17"
   style="fill:#0099cc;fill-opacity:1"
   d="m 12.01,87.144 c -1.232,2.773 -2.155,5.544 -3.694,8.316 12.008,38.798 32.947,74.211 63.434,104.696 40.337,40.337 90.222,63.74 141.955,71.747 2.771,-1.539 4.926,-3.387 7.697,-4.619 C 168.439,260.819 116.706,237.106 75.751,196.46 44.343,164.742 23.096,127.483 12.01,87.144 z" />
		<path
   inkscape:connector-curvature="0"
   id="path19"
   style="fill:#0099cc;fill-opacity:1"
   d="m 61.895,163.819 c -8.313,-1.848 -14.781,-9.238 -14.781,-18.475 0,-0.925 0,-1.848 0,-2.771 C 34.181,120.402 24.942,96.382 19.4,72.056 c -1.232,2.155 -2.771,4.619 -3.694,7.39 10.161,41.571 31.407,80.676 63.74,113.009 41.878,41.571 94.841,64.975 149.038,70.208 2.155,-1.846 4.617,-3.387 6.774,-5.233 C 179.831,253.734 125.943,230.639 83.756,188.761 75.75,180.755 68.362,172.441 61.895,163.819 z" />
		<path
   inkscape:connector-curvature="0"
   id="path21"
   style="fill:#0099cc;fill-opacity:1"
   d="M 53.581,131.486 C 41.262,108.392 32.333,84.065 28.33,58.507 c -1.539,2.464 -2.771,4.31 -4.619,6.467 4.619,24.942 13.242,48.959 26.175,71.131 0.924,-1.848 2.463,-3.08 3.695,-4.619 z" />
		<path
   inkscape:connector-curvature="0"
   id="path23"
   style="fill:#0099cc;fill-opacity:1"
   d="m 74.52,161.971 c -1.541,0.925 -3.696,1.848 -5.544,1.848 5.544,7.391 12.01,14.165 18.477,21.246 43.11,42.495 97.921,64.975 153.964,67.437 1.846,-1.846 3.694,-3.694 5.849,-5.542 -56.657,-0.923 -112.7,-23.094 -155.503,-66.205 -6.158,-5.851 -11.7,-12.317 -17.243,-18.784 z" />
		<path
   inkscape:connector-curvature="0"
   id="path25"
   style="fill:#0099cc;fill-opacity:1"
   d="m 225.097,239.878 c 8.93,0.923 18.166,1.539 27.404,1.539 1.232,-1.539 2.771,-3.387 4.003,-4.62 -8.313,2.155 -17.552,3.081 -26.791,3.081 -1.228,0 -3.077,0 -4.616,0 z" />
		<path
   inkscape:connector-curvature="0"
   id="path27"
   style="fill:#0099cc;fill-opacity:1"
   d="m 99.463,173.058 c -5.852,-6.158 -12.01,-12.626 -17.245,-19.093 -0.923,1.848 -1.848,3.387 -3.08,4.619 4.928,6.468 10.164,12.626 16.322,18.477 29.869,29.56 65.896,48.96 104.387,58.198 -11.701,-3.696 -21.862,-8.622 -31.101,-15.704 -25.25,-10.471 -48.96,-26.174 -69.283,-46.497 z" />
		<path
   inkscape:connector-curvature="0"
   id="path29"
   style="fill:#0099cc;fill-opacity:1"
   d="M 64.359,127.483 C 49.885,102.541 41.263,74.827 37.875,47.114 c -1.846,1.848 -3.078,3.696 -4.926,5.542 3.696,26.791 12.317,52.04 25.25,76.059 1.847,-0.923 3.696,-1.232 6.16,-1.232 z" />
		<path
   inkscape:connector-curvature="0"
   id="path31"
   style="fill:#0099cc;fill-opacity:1"
   d="m 152.118,203.542 c -1.848,-2.464 -3.696,-4.619 -5.544,-7.39 -13.856,-8.313 -27.097,-19.091 -39.107,-31.101 C 71.133,129.638 51.424,84.065 48.037,36.952 c -1.846,1.848 -3.694,3.08 -5.542,4.926 3.387,30.178 12.626,59.123 28.33,85.914 7.699,2.462 13.858,9.236 13.858,17.552 0,0.923 0,1.846 0,2.771 5.542,7.39 11.701,14.165 18.475,21.246 15.704,15.704 33.256,28.639 52.349,38.184 0,-0.309 0,-0.309 0,-0.309 -0.926,-0.923 -1.85,-2.462 -3.389,-3.694 z" />
		<path
   inkscape:connector-curvature="0"
   id="path33"
   style="fill:#0099cc;fill-opacity:1"
   d="M 114.857,157.352 C 79.137,121.941 60.046,75.753 58.814,28.639 c -1.846,1.232 -3.694,2.771 -5.542,4.003 2.155,47.112 21.555,93.302 57.891,128.713 9.239,9.238 19.4,17.552 29.869,24.635 -1.232,-2.771 -2.771,-6.158 -4.003,-9.854 -7.391,-5.543 -14.781,-12.01 -22.172,-18.784 z" />
		<path
   inkscape:connector-curvature="0"
   id="path35"
   style="fill:#0099cc;fill-opacity:1"
   d="m 191.532,192.765 c 10.469,8.313 24.327,13.855 39.107,13.855 8.006,0 15.396,-1.23 21.862,-3.694 -20.938,0 -41.261,-3.08 -60.969,-10.161 z" />
		<path
   inkscape:connector-curvature="0"
   id="path37"
   style="fill:#0099cc;fill-opacity:1"
   d="M 122.557,149.347 C 86.837,114.55 69.285,67.746 69.285,21.248 c -1.848,0.923 -3.696,2.155 -5.542,3.078 0.923,47.114 19.091,93.918 55.118,129.331 5.235,4.926 10.162,9.546 15.706,14.165 -0.925,-3.08 -1.232,-5.852 -1.848,-8.623 -3.081,-3.386 -6.775,-6.157 -10.162,-9.852 z" />
		<path
   inkscape:connector-curvature="0"
   id="path39"
   style="fill:#0099cc;fill-opacity:1"
   d="m 131.793,143.496 c -0.307,-0.309 -0.923,-0.923 -1.23,-0.923 C 95.459,107.469 78.523,60.971 80.369,14.781 c -1.846,0.925 -3.694,2.155 -5.542,3.08 -0.923,46.188 16.32,93.302 52.04,127.79 1.232,1.848 3.08,3.696 4.926,5.542 0,-2.771 0,-5.542 0,-7.697 z" />
		<path
   inkscape:connector-curvature="0"
   id="path41"
   style="fill:#0099cc;fill-opacity:1"
   d="m 177.061,174.904 c 1.539,3.08 2.771,5.851 4.617,8.315 26.483,11.394 55.12,15.704 82.833,13.855 3.08,-1.848 5.852,-4.31 8.623,-6.465 -32.332,4.004 -65.897,-0.924 -96.073,-15.705 z" />
		<path
   inkscape:connector-curvature="0"
   id="path43"
   style="fill:#0099cc;fill-opacity:1"
   d="m 173.365,160.432 c 0.616,2.771 0.923,5.235 1.539,7.391 32.333,16.629 69.285,22.171 104.389,16.32 0.307,-0.616 0.307,-0.616 0.923,-0.923 1.232,-1.848 2.771,-3.696 3.696,-6.159 -36.952,8.004 -76.675,2.462 -110.547,-16.629 z" />
		<path
   inkscape:connector-curvature="0"
   id="path45"
   style="fill:#0099cc;fill-opacity:1"
   d="M 133.334,129.331 C 102.85,95.459 88.685,52.04 92.072,9.545 c -1.848,0.925 -4.312,1.848 -6.158,2.773 -2.157,44.34 13.24,89.606 46.495,124.403 0,-0.923 0,-1.848 0.309,-2.771 0,-1.541 0.616,-3.387 0.616,-4.619 z" />
		<path
   inkscape:connector-curvature="0"
   id="path47"
   style="fill:#0099cc;fill-opacity:1"
   d="m 103.773,5.852 c -2.464,0.616 -4.31,0.923 -6.158,1.848 -3.696,40.646 8.929,82.218 36.952,115.165 0.923,-1.846 1.539,-4.31 2.462,-6.465 C 110.547,84.989 99.463,44.649 103.773,5.852 z" />
		<path
   inkscape:connector-curvature="0"
   id="path49"
   style="fill:#0099cc;fill-opacity:1"
   d="m 185.374,154.581 c -4.003,-2.462 -8.623,-4.619 -12.933,-7.391 0,2.157 0,4.62 0,6.774 35.104,20.325 75.75,26.483 114.241,17.245 0.923,-1.848 1.232,-3.696 1.848,-5.542 0,-0.616 0,-0.616 0,-0.616 -30.178,8.006 -62.511,6.158 -91.456,-5.542 l -11.701,0 0,-4.928 0.001,0 z" />
		<path
   inkscape:connector-curvature="0"
   id="path51"
   style="fill:#0099cc;fill-opacity:1"
   d="m 172.442,141.341 c 4.31,2.771 8.929,4.926 12.933,7.082 l 0,-5.85 c -4.003,-2.157 -8.313,-4.928 -12.317,-7.699 -0.616,2.154 -0.616,4.619 -0.616,6.467 z" />
		<path
   inkscape:connector-curvature="0"
   id="path53"
   style="fill:#0099cc;fill-opacity:1"
   d="m 214.011,159.509 c 24.635,6.465 50.808,6.465 75.443,-0.309 0,-1.848 0,-3.694 0.307,-6.158 -0.614,0.616 -1.846,0.616 -2.771,0.923 0,1.848 -0.307,3.696 -0.307,5.544 l -72.672,0 0,0 z" />
		<path
   inkscape:connector-curvature="0"
   id="path55"
   style="fill:#0099cc;fill-opacity:1"
   d="m 114.857,3.08 c -1.846,0 -3.694,0.616 -5.542,0.923 -4.619,37.568 4.926,75.75 29.562,106.853 0.923,-1.848 1.848,-4.312 2.771,-6.16 C 118.861,75.136 110.24,38.184 114.857,3.08 z" />
		<path
   inkscape:connector-curvature="0"
   id="path57"
   style="fill:#0099cc;fill-opacity:1"
   d="M 148.115,94.534 C 128.099,66.821 121.324,33.258 126.251,0.925 c -1.846,0.307 -3.694,0.307 -5.849,0.923 -5.235,33.565 3.078,69.285 24.017,97.921 l 0,0 c 1.232,-1.539 2.155,-3.387 3.696,-5.235 z" />
		<path
   inkscape:connector-curvature="0"
   id="path59"
   style="fill:#0099cc;fill-opacity:1"
   d="m 289.761,144.419 c 0,-0.307 0,-1.232 0,-2.155 -1.23,0.309 -2.155,0.923 -3.694,1.232 0,1.232 0.616,3.078 0.616,4.926 0.923,-0.307 2.464,-0.307 3.078,-0.923 0,-1.232 0,-2.155 0,-3.08 z" />
		<path
   inkscape:connector-curvature="0"
   id="path61"
   style="fill:#0099cc;fill-opacity:1"
   d="m 173.981,128.715 c 3.694,2.771 7.697,5.542 11.394,8.007 l 0,-6.158 1.539,0 c -4.31,-2.155 -8.006,-4.62 -11.701,-7.391 -0.309,1.846 -0.925,3.694 -1.232,5.542 z" />
		<path
   inkscape:connector-curvature="0"
   id="path63"
   style="fill:#0099cc;fill-opacity:1"
   d="m 289.761,136.722 c 0,-1.848 -0.307,-3.696 -0.307,-5.542 -1.848,0.307 -3.387,0.923 -5.235,1.23 0.616,1.848 0.925,3.696 0.925,5.544 1.539,-0.309 3.387,-0.926 4.617,-1.232 z" />
		<path
   inkscape:connector-curvature="0"
   id="path65"
   style="fill:#0099cc;fill-opacity:1"
   d="m 137.954,0 c -1.848,0 -4.312,0.309 -6.16,0.309 -5.542,31.101 0.925,63.434 19.4,90.222 1.539,-1.846 2.464,-3.387 3.696,-4.617 C 137.954,60.355 132.409,28.946 137.954,0 z" />
		<path
   inkscape:connector-curvature="0"
   id="path67"
   style="fill:#0099cc;fill-opacity:1"
   d="m 212.779,130.563 c -11.701,-4.003 -22.785,-10.162 -32.947,-17.861 -0.925,1.232 -1.848,3.08 -2.771,4.928 6.465,5.233 13.549,9.237 20.937,12.933 l 14.781,0 z" />
		<path
   inkscape:connector-curvature="0"
   id="path69"
   style="fill:#0099cc;fill-opacity:1"
   d="m 149.038,0 c -1.539,0 -2.771,0 -3.694,0 -0.925,0 -1.541,0 -1.848,0 -6.158,27.713 -0.616,57.275 15.704,82.218 1.232,-1.539 2.771,-2.771 4.003,-3.694 C 148.115,54.813 143.496,26.174 149.038,0 z" />
		<path
   inkscape:connector-curvature="0"
   id="path71"
   style="fill:#0099cc;fill-opacity:1"
   d="m 288.531,125.635 c 0,-1.846 -0.616,-4.31 -0.616,-6.158 -2.157,0.925 -4.003,1.541 -6.467,2.464 0.923,1.848 1.539,3.694 1.848,5.542 1.848,-0.923 3.694,-1.539 5.235,-1.848 z" />
		<path
   inkscape:connector-curvature="0"
   id="path73"
   style="fill:#0099cc;fill-opacity:1"
   d="m 244.189,130.563 c 0,-1.232 0,-3.081 0,-4.62 -20.323,-1.232 -40.339,-8.623 -57.275,-21.555 -0.616,0.307 -0.923,0.923 -1.539,1.232 -0.925,0.923 -1.848,1.848 -2.771,2.462 15.704,12.319 33.256,19.709 51.73,22.48 l 9.855,0 0,10e-4 z" />
		<path
   inkscape:connector-curvature="0"
   id="path75"
   style="fill:#0099cc;fill-opacity:1"
   d="m 160.123,0.309 c -1.846,0 -3.694,0 -5.542,-0.309 -5.542,25.251 -1.539,52.656 13.242,75.136 1.539,-0.925 2.771,-1.848 4.619,-2.771 C 158.584,50.81 154.581,24.942 160.123,0.309 z" />
		<path
   inkscape:connector-curvature="0"
   id="path77"
   style="fill:#0099cc;fill-opacity:1"
   d="m 286.683,114.55 c 0,-1.848 -0.616,-3.694 -0.925,-5.542 -2.771,0.923 -5.233,1.848 -8.004,2.155 0.923,1.848 1.539,3.694 2.462,5.542 2.154,-0.923 4.003,-1.232 6.467,-2.155 z" />
		<path
   inkscape:connector-curvature="0"
   id="path79"
   style="fill:#0099cc;fill-opacity:1"
   d="m 240.492,114.55 c -15.395,-1.539 -29.56,-7.082 -42.495,-16.32 -2.462,0.923 -4.31,1.848 -6.158,2.771 15.397,11.701 32.949,18.168 50.81,19.4 -0.308,-1.847 -1.232,-4.003 -2.157,-5.851 z" />
		<path
   inkscape:connector-curvature="0"
   id="path81"
   style="fill:#0099cc;fill-opacity:1"
   d="m 283.912,103.466 c -0.616,-1.541 -0.925,-3.387 -1.542,-5.235 -3.078,0.923 -6.465,2.464 -9.545,3.387 0.925,1.232 1.848,3.078 2.771,4.926 2.771,-0.923 5.544,-1.848 8.316,-3.078 z" />
		<path
   inkscape:connector-curvature="0"
   id="path83"
   style="fill:#0099cc;fill-opacity:1"
   d="m 226.636,100.695 c -2.464,-0.925 -5.235,-1.848 -7.39,-2.773 -4.62,-1.539 -9.855,-1.539 -14.472,-0.923 9.853,5.851 20.939,9.545 31.408,11.394 -2.771,-3.081 -5.851,-5.852 -9.546,-7.698 z" />
		<path
   inkscape:connector-curvature="0"
   id="path85"
   style="fill:#0099cc;fill-opacity:1"
   d="m 171.209,2.157 c -1.848,-0.309 -3.696,-0.925 -5.542,-0.925 -5.544,23.094 -1.848,48.037 12.007,68.976 1.232,-0.923 3.081,-1.846 4.929,-2.462 -12.933,-19.4 -16.936,-43.42 -11.394,-65.589 z" />
		<path
   inkscape:connector-curvature="0"
   id="path87"
   style="fill:#0099cc;fill-opacity:1"
   d="m 280.525,93.304 c -0.925,-1.848 -1.232,-3.696 -2.157,-5.544 -3.694,1.848 -8.004,3.08 -12.008,3.696 1.232,1.848 2.155,3.694 3.694,4.926 3.696,-0.923 6.774,-1.848 10.471,-3.078 z" />
		<path
   inkscape:connector-curvature="0"
   id="path89"
   style="fill:#0099cc;fill-opacity:1"
   d="m 181.678,4.619 c -1.846,-0.616 -3.694,-0.923 -5.542,-1.539 -4.926,21.246 -1.232,44.343 12.01,63.434 1.848,-0.923 4.311,-0.923 6.159,-1.539 C 180.755,47.423 176.752,24.942 181.678,4.619 z" />
		<path
   inkscape:connector-curvature="0"
   id="path91"
   style="fill:#0099cc;fill-opacity:1"
   d="M 208.161,63.743 C 192.765,48.346 187.836,27.1 192.456,7.699 190.61,7.39 188.762,6.467 186.914,5.851 c -4.619,20.016 0,41.571 13.858,58.198 2.154,0 4.616,-0.306 7.389,-0.306 z" />
		<path
   inkscape:connector-curvature="0"
   id="path93"
   style="fill:#0099cc;fill-opacity:1"
   d="m 262.663,86.837 0,0 c 4.62,-0.616 9.239,-1.848 13.242,-3.696 -0.309,-1.846 -1.232,-3.694 -2.155,-5.233 -5.235,1.846 -10.778,3.387 -16.32,3.694 1.846,1.848 3.694,3.387 5.233,5.235 z" />
		<path
   inkscape:connector-curvature="0"
   id="path95"
   style="fill:#0099cc;fill-opacity:1"
   d="M 216.475,56.659 C 203.85,44.649 199.846,27.713 202.926,12.01 c -1.848,-0.923 -3.696,-1.848 -5.542,-2.464 -4.003,17.554 0.923,37.568 14.779,51.426 1.541,0.923 2.464,2.155 3.696,3.078 5.542,0.616 11.084,1.848 16.629,3.387 -5.852,-2.462 -11.394,-6.159 -16.013,-10.778 z" />
		<path
   inkscape:connector-curvature="0"
   id="path97"
   style="fill:#0099cc;fill-opacity:1"
   d="m 270.979,73.288 c -0.925,-1.848 -1.848,-3.696 -2.773,-4.926 -10.162,3.694 -20.939,3.694 -31.101,0.923 5.235,1.848 9.854,4.62 14.474,7.698 6.465,-0.001 13.24,-1.231 19.4,-3.695 z" />
		<path
   inkscape:connector-curvature="0"
   id="path99"
   style="fill:#0099cc;fill-opacity:1"
   d="m 265.435,63.743 c -1.539,-1.848 -2.462,-3.387 -3.694,-5.235 -12.933,3.696 -27.407,0.616 -37.568,-9.545 -8.62,-8.93 -12.316,-20.939 -11.084,-32.333 -1.848,-0.923 -3.696,-1.848 -5.542,-2.464 -2.157,13.548 1.846,28.329 12.624,38.8 12.008,12.009 29.56,15.703 45.264,10.777 z" />
		<path
   inkscape:connector-curvature="0"
   id="path101"
   style="fill:#0099cc;fill-opacity:1"
   d="m 258.044,53.888 c -1.539,-1.232 -2.771,-3.078 -4.31,-4.926 -7.698,0.923 -15.704,-1.848 -21.555,-8.007 -5.235,-4.926 -8.007,-11.394 -8.313,-17.859 -1.848,-0.925 -3.696,-2.464 -5.542,-3.387 -0.616,8.93 2.771,18.475 9.545,25.557 8.313,8.315 19.397,11.086 30.175,8.622 z" />
		<path
   inkscape:connector-curvature="0"
   id="path103"
   style="fill:#0099cc;fill-opacity:1"
   d="m 249.115,43.727 c -5.851,-5.852 -12.316,-11.394 -19.4,-16.627 0.925,3.694 2.773,7.388 6.161,10.162 3.693,3.693 8.313,6.157 13.239,6.465 z" />
	</g><path
   d="m 531.794,174.904 c 2.462,12.935 7.391,22.48 19.398,26.174 14.474,4.312 32.333,3.387 41.265,-8.313 3.078,-4.003 3.694,-10.162 2.155,-15.088 -2.155,-8.006 -9.238,-9.854 -23.094,-12.625 -12.009,-2.771 -41.571,-5.852 -57.275,-17.861 -12.626,-9.545 -19.091,-28.021 -12.626,-48.343 7.698,-21.864 29.869,-31.41 46.498,-33.872 30.794,-4.619 55.736,7.082 66.512,18.166 8.315,8.623 13.858,22.48 13.242,36.029 l -34.181,0 c -0.307,-4.312 -0.923,-8.313 -2.771,-12.009 -4.003,-9.239 -13.855,-14.781 -24.326,-14.781 -12.007,-0.923 -24.633,2.155 -29.56,12.317 -1.848,3.696 -1.848,10.162 1.23,13.858 7.391,8.313 21.864,8.929 34.181,11.084 21.246,3.696 44.342,7.39 54.504,24.942 11.701,20.323 5.233,43.419 -2.157,52.656 -5.233,6.467 -11.084,12.319 -19.091,16.936 -13.24,7.39 -36.027,10.162 -58.198,6.467 -20.323,-3.08 -34.181,-13.242 -41.878,-25.865 -6.158,-9.548 -9.854,-17.861 -9.854,-29.871 l 36.026,0 0,-0.001 z"
   style="fill:#0099cc;fill-opacity:1"
   id="path107"
   inkscape:connector-curvature="0" /><path
   d="m 376.905,130.563 57.892,0 c 0.923,-13.242 -9.239,-28.023 -22.788,-32.333 -12.007,-3.696 -24.942,-1.232 -35.718,7.391 -9.547,8.929 -12.935,27.404 -12.935,38.798 0.616,21.555 4.619,36.952 17.245,46.19 8.313,5.85 26.791,13.856 43.417,1.846 7.391,-5.542 10.778,-12.933 12.01,-18.475 l 41.262,0 c -0.923,12.933 -13.549,33.565 -25.865,42.801 -22.171,16.322 -51.424,19.4 -74.211,10.778 -49.269,-18.475 -57.275,-65.589 -53.579,-93.609 1.846,-11.703 6.158,-23.71 12.007,-34.181 11.703,-18.475 28.33,-31.408 51.424,-35.104 24.942,-3.694 49.885,4.003 66.207,22.171 9.236,10.471 17.859,28.021 21.246,42.494 1.848,9.545 3.694,19.707 2.771,30.178 l -100.385,0 0,-28.945 z"
   style="fill:#0099cc;fill-opacity:1"
   id="path109"
   inkscape:connector-curvature="0" /><path
   inkscape:connector-curvature="0"
   id="path113"
   style="fill:#0099cc;fill-opacity:1"
   d="m 723.634,201.078 0,29.562 c 12.933,-2.771 23.094,-8.623 32.949,-16.629 0.307,2.464 2.771,11.087 4.619,13.549 l 38.798,0 c -6.159,-12.008 -5.235,-29.56 -5.235,-39.414 l 0,-49.576 c -0.307,-12.935 -0.307,-25.868 -3.078,-37.875 C 788.916,88.685 778.138,68.669 743.957,64.666 737.49,64.05 730.715,64.05 723.634,64.05 l 0,29.562 c 9.238,-0.307 18.475,1.848 24.942,8.006 4.31,4.003 5.542,9.545 4.31,15.704 -2.462,9.546 -12.933,12.933 -29.252,15.088 l 0,25.251 c 4.31,-0.309 8.929,-1.232 13.855,-2.771 10.162,-2.155 12.626,-4.003 17.552,-7.7 0,3.696 0.616,29.871 -1.846,35.104 -4.003,11.087 -15.705,17.552 -29.561,18.784 z" /><path
   inkscape:connector-curvature="0"
   id="path115"
   style="fill:#0099cc;fill-opacity:1"
   d="m 723.634,93.611 0,-29.562 c -11.394,0.616 -23.71,2.464 -33.256,6.159 -20.323,8.315 -30.487,28.022 -30.487,48.961 l 36.952,0 c -0.923,-10.777 6.774,-20.323 14.474,-23.094 3.078,-1.541 7.697,-2.464 12.317,-2.464 z" /><path
   inkscape:connector-curvature="0"
   id="path117"
   style="fill:#0099cc;fill-opacity:1"
   d="m 723.634,157.661 0,-25.251 c -5.542,0.925 -12.01,1.541 -19.091,2.464 -19.4,2.155 -47.114,11.701 -53.581,40.03 -2.155,11.086 -0.307,31.41 16.629,44.651 11.701,8.929 27.714,12.933 40.339,12.624 5.542,0 11.084,-0.616 15.704,-1.539 l 0,-29.562 c -2.771,0.616 -5.852,0.923 -9.239,0.616 -9.239,0 -17.243,-4.62 -20.323,-11.701 -3.694,-6.774 -1.539,-13.858 0.923,-17.861 5.544,-9.852 15.09,-11.7 28.639,-14.471 z" /><path
   inkscape:connector-curvature="0"
   style="fill:#0099cc;fill-opacity:1"
   id="path1927"
   d="m 724.73878,67.051166 c 0.0928,0.506172 0.15039,1.051822 0.22462,1.572681 0.14879,0.864151 0.18069,1.738752 0.21122,2.61286 0.0256,0.902728 0.0191,1.805775 0.0204,2.708732 -0.003,0.76421 0.005,1.528405 0.011,2.292586 0.003,0.57045 0.001,1.140903 0.002,1.711365 -3.1e-4,0.589639 -0.002,1.179291 -0.002,1.768929 -0.0205,0.88056 -0.0152,1.761227 -0.009,2.64189 0.0646,0.584425 -0.0316,1.156942 -0.0796,1.733445 -0.25319,1.52682 -3.75241,3.389669 -3.09571,1.093259 0.42196,-1.453121 0.46084,-2.957045 0.49897,-4.456242 -10e-4,-0.855247 -0.0216,-1.71031 -0.0394,-2.565331 -0.0281,-0.638741 0.0921,-1.269039 0.18131,-1.898204 0.10853,-0.628579 0.26905,-1.245469 0.42319,-1.863679 0.14445,-0.501307 0.27939,-1.004479 0.42402,-1.505658 0.13491,-0.479798 0.1443,-0.976921 0.17505,-1.470049 0.0284,-0.471345 -0.2608,-0.7314 -0.48596,-1.094826 -0.2819,-0.352391 -0.5607,-0.706347 -0.84447,-1.057177 -0.2031,-0.312776 -0.41056,-0.622701 -0.62,-0.929914 -0.0663,-0.381073 -0.30709,-0.665166 -0.469,-1.000288 -0.084,-0.128054 -0.17992,-0.247351 -0.26936,-0.370315 l 3.14058,-1.873142 c 0.0968,0.141484 0.19424,0.282364 0.29026,0.424435 0.17921,0.327874 0.39972,0.622527 0.46883,1.000054 0.19818,0.291581 0.40004,0.582983 0.58874,0.882061 0.27469,0.349815 0.54542,0.702644 0.82405,1.049012 0.29553,0.427695 0.60747,0.777159 0.61925,1.330562 -0.0228,0.515949 -0.0267,1.035233 -0.141,1.542065 -0.15215,0.505306 -0.27156,1.01681 -0.42588,1.522326 -0.16303,0.606337 -0.34151,1.209885 -0.44199,1.831663 -0.0937,0.606592 -0.22797,1.217335 -0.2151,1.834539 0.002,0.868613 0.009,1.737373 -0.0147,2.605786 -0.0544,1.513366 -0.0954,3.033159 -0.44824,4.514337 -0.23521,1.473932 -3.79851,4.102608 -3.39635,2.045904 0.0781,-0.563498 0.21053,-1.110417 0.14275,-1.689141 0.006,-0.877703 0.012,-1.755414 -0.009,-2.63301 -4.3e-4,-0.588865 -0.002,-1.177743 -0.002,-1.766608 4.3e-4,-0.571238 -0.002,-1.142469 0.002,-1.713691 0.007,-0.768567 0.0163,-1.537146 0.0152,-2.305756 9.4e-4,-0.900041 -4e-5,-1.800165 -0.0144,-2.700104 -0.0309,-0.858085 -0.0573,-1.718168 -0.1993,-2.56717 -0.0886,-0.529075 -0.11219,-1.092989 -0.31729,-1.588761 l 3.27643,-1.669425 z" /><path
   inkscape:connector-curvature="0"
   style="fill:#0099cc;fill-opacity:1"
   id="path1929"
   d="m 724.24771,72.698471 c -0.0364,0.649709 -0.0368,1.300701 -0.0443,1.951179 -0.0119,1.166482 -0.005,2.333055 -10e-4,3.499565 0.004,1.146374 0.26065,2.257487 0.53996,3.360897 0.26823,0.696084 0.45361,1.411573 0.62925,2.133231 0.0877,0.620766 0.0762,1.248972 0.0859,1.874172 -0.0496,0.497535 0.13849,0.94288 0.26517,1.410212 0.12731,0.417785 0.34984,0.793156 0.55291,1.17599 0.21262,0.332279 0.34309,0.704502 0.50746,1.058001 0.0838,0.400108 -0.003,0.807241 -0.0441,1.208356 -5.1e-4,0.15056 -0.03,0.298203 -0.045,0.447305 l -3.27683,1.589636 c 0.0216,-0.137281 0.11202,-0.262984 0.0648,-0.411843 0.0367,-0.359603 0.069,-0.720391 0.10663,-1.07948 -0.15062,-0.329557 -0.27037,-0.677455 -0.46751,-0.987643 -0.21396,-0.412455 -0.44626,-0.817477 -0.58758,-1.263331 -0.15914,-0.491027 -0.34085,-0.974894 -0.30371,-1.50141 -0.004,-0.606616 0.009,-1.215313 -0.0622,-1.819057 -0.14905,-0.721241 -0.3094,-1.435979 -0.57013,-2.129326 -0.28194,-1.131629 -0.54375,-2.271097 -0.58018,-3.442766 0.003,-1.166078 0.0107,-2.33222 -10e-4,-3.49827 -0.007,-0.63541 -0.007,-1.271399 -0.0443,-1.905993 l 3.27643,-1.669425 z" /><path
   inkscape:connector-curvature="0"
   style="fill:#0099cc;fill-opacity:1"
   id="path1931"
   d="m 722.44449,91.74214 c -0.0791,-0.429083 -0.12209,-0.867289 -0.17262,-1.302016 -0.0332,-0.354217 -0.035,-0.71005 -0.048,-1.065213 l 3.23312,-1.655036 c 0.009,0.348438 0.008,0.697349 0.0345,1.045149 0.0482,0.439174 0.0526,0.895868 0.22945,1.307692 l -3.27643,1.669424 z" /><path
   inkscape:connector-curvature="0"
   style="fill:#0099cc;fill-opacity:1"
   id="path1933"
   d="m 724.98432,133.83669 c -0.0215,0.41873 -0.0198,0.83821 -0.0254,1.25734 -0.002,0.60938 10e-4,1.21876 0.004,1.82814 -0.036,0.51536 0.033,1.01778 0.0984,1.52621 0.10133,0.6764 0.11104,1.36083 0.12856,2.04308 0.0109,0.75886 0.0114,1.5178 0.0119,2.27672 0.005,0.65866 0.002,1.31734 0.002,1.97601 -2.4e-4,0.64019 3.9e-4,1.28035 0.002,1.92053 -0.013,0.72612 -0.006,1.45232 -0.002,2.17848 0.004,0.54325 0.005,1.08652 0.007,1.62978 6.7e-4,0.49068 4.7e-4,0.98136 5.3e-4,1.47205 -0.0145,0.47304 0.01,0.94681 0.0204,1.41825 -0.19069,0.36915 0.204,0.59771 0.26595,0.77922 0.41919,0.13132 0.60676,0.48311 0.88412,0.77406 0.0934,0.13708 0.11592,0.30146 0.17388,0.45218 l -3.19315,1.74598 c -6.9e-4,-0.002 -0.0913,-0.36305 -0.12622,-0.36191 -0.25583,-0.20935 -0.43918,-0.52711 -0.79938,-0.62026 -0.23217,-0.373 -0.54215,-0.53721 -0.4258,-1.07309 -0.0191,-0.48504 -0.0654,-0.97494 -0.0384,-1.46431 6e-5,-0.49086 -1.3e-4,-0.98173 5.4e-4,-1.4726 10e-4,-0.54553 0.002,-1.09106 0.007,-1.63658 0.004,-0.72546 0.011,-1.45096 -0.002,-2.17638 0.002,-0.641 0.002,-1.28198 0.003,-1.92298 6.1e-4,-0.65986 -0.001,-1.31973 0.005,-1.97958 6.1e-4,-0.75678 0.005,-1.51364 -0.007,-2.27037 -0.0176,-0.66551 -0.0267,-1.33329 -0.1239,-1.99334 -0.0829,-0.52403 -0.1687,-1.04002 -0.12397,-1.57372 0.002,-0.61069 0.006,-1.22139 0.004,-1.83208 -0.006,-0.41048 -0.004,-0.82135 -0.0254,-1.23141 l 3.27643,-1.66942 z" /><path
   inkscape:connector-curvature="0"
   style="fill:#0099cc;fill-opacity:1"
   id="path1935"
   d="m 725.22985,202.34095 c -0.0214,0.37081 -0.0153,0.74241 -0.0192,1.11362 -10e-4,0.50514 -4.2e-4,1.01028 -1.8e-4,1.51542 0.004,0.552 -0.003,1.10394 -0.008,1.65588 0.0616,1.13929 0.30821,2.26015 0.49072,3.38487 0.1378,0.92741 0.2006,1.86158 0.23912,2.79731 0.0142,0.73664 0.01,1.47347 0.009,2.21021 -0.002,0.84052 -0.009,1.68098 -0.0159,2.52147 -0.005,0.84987 0.007,1.69971 0.0153,2.54951 -0.041,0.6483 0.0317,1.28498 0.1017,1.92681 0.0894,0.53555 0.1102,1.07731 0.13997,1.61809 -0.0373,0.49159 0.059,0.96902 0.10972,1.45306 0.0915,0.49297 0.20403,0.98197 0.30401,1.47353 0.0904,0.49189 0.0632,0.9915 0.0727,1.48688 0.006,0.17526 -0.10125,0.31432 -0.15187,0.47148 l -3.31877,1.48808 c 0.0691,-0.11567 0.17227,-0.21119 0.20731,-0.34703 0.01,-0.46131 0.0685,-0.93516 -0.0218,-1.40049 -0.10094,-0.48927 -0.19252,-0.98185 -0.3016,-1.46903 -0.0822,-0.49833 -0.16552,-0.98866 -0.13206,-1.49689 -0.0212,-0.53117 -0.0328,-1.06342 -0.1125,-1.59031 -0.08,-0.65644 -0.16382,-1.30768 -0.12074,-1.97152 0.008,-0.85513 0.02,-1.71029 0.0158,-2.56548 -0.006,-0.83631 -0.013,-1.67259 -0.0102,-2.50893 0.002,-0.73417 0.007,-1.46839 -0.003,-2.20254 -0.0213,-0.92927 -0.0486,-1.85959 -0.17501,-2.78202 -0.17624,-1.13789 -0.41486,-2.26508 -0.56301,-3.40601 -0.005,-0.54908 -0.0119,-1.09815 -0.008,-1.64729 2.4e-4,-0.50508 8.4e-4,-1.01016 -1.8e-4,-1.51524 -0.004,-0.36467 0.002,-0.72977 -0.0192,-1.09402 l 3.27643,-1.66942 z" /><path
   inkscape:connector-curvature="0"
   style="fill:#0099cc;fill-opacity:1"
   id="path1937"
   d="m 725.47539,201.84988 c -0.0142,0.32144 -0.0142,0.64335 -0.0192,0.96503 -0.005,0.5458 -0.002,1.09164 -10e-4,1.63746 -0.038,0.47203 0.0283,0.93954 0.0583,1.40575 l -3.21191,1.71592 c -0.042,-0.48903 -0.13654,-0.97503 -0.0815,-1.47329 8.9e-4,-0.54532 0.003,-1.09066 -0.001,-1.63596 -0.005,-0.31516 -0.005,-0.63058 -0.0192,-0.94549 l 3.27643,-1.66942 z" /><path
   inkscape:connector-curvature="0"
   style="fill:#0099cc;fill-opacity:1"
   id="path1939"
   d="m 725.96646,201.84988 c -0.0154,0.31118 -0.0127,0.6229 -0.0166,0.93434 -0.003,0.48315 -0.002,0.96632 -0.003,1.44948 l -3.2381,1.64989 c -2.8e-4,-0.48228 5e-5,-0.96457 -0.003,-1.44686 -0.004,-0.3058 -9.9e-4,-0.6119 -0.0166,-0.91743 l 3.27643,-1.66942 z" /><path
   inkscape:connector-curvature="0"
   style="fill:#0099cc;fill-opacity:1"
   id="path1941"
   d="m 721.01348,205.05911 c -0.3434,-0.25659 0.0672,-0.56102 0.0927,-0.77399 0.0639,-0.0303 0.0761,-0.0999 0.11414,-0.14977 l 3.29749,-1.58497 c -2e-5,1.1e-4 -0.008,0.30237 -0.0492,0.30234 -0.10252,0.0912 -0.27684,0.25524 -0.32176,0.2863 l -3.1333,1.92009 z" /><path
   inkscape:connector-curvature="0"
   style="fill:#0099cc;fill-opacity:1"
   id="path1943"
   d="m 723.38973,134.05239 c 0.30348,0.0107 0.60722,0.008 0.91082,0.0109 0.44849,-0.0295 0.88232,0.0852 1.31887,0.17325 0.40475,0.0941 0.76297,0.30182 1.13013,0.45491 1.26674,1.64896 -3.18211,1.79721 -3.25256,1.82363 -0.19067,-0.54203 -0.61555,-0.81701 -0.98547,-1.17576 -0.43097,-0.12672 -0.87399,0.037 -1.30099,0.10918 -0.46615,0.22076 -0.91979,0.11525 -1.40104,0.10652 l 2.96751,-2.11205 c 0.44522,-0.0403 0.89452,-0.0176 1.32559,-0.19469 0.51243,-0.0505 0.98582,-0.15405 1.46202,0.11326 0.41484,0.39251 0.80117,0.76086 1.05278,1.29877 -0.95289,0.70433 -2.25867,2.96962 -2.93914,1.99955 -0.34208,-0.11592 -0.68378,-0.2578 -1.04083,-0.33448 -0.42712,-0.065 -0.84372,-0.17401 -1.28168,-0.12256 -0.31364,0.003 -0.62741,8.5e-4 -0.94094,0.011 l 2.97493,-2.16142 z" /><path
   inkscape:connector-curvature="0"
   style="fill:#0099cc;fill-opacity:1"
   id="path1945"
   d="m 724.98432,88.903781 c -0.0345,0.175912 0.24323,0.203203 0.36006,0.300805 0.29714,0.232188 0.45196,0.588383 0.65576,0.897487 0.23692,0.309925 0.36389,0.67786 0.53326,1.020889 l -3.19272,1.757655 c -0.1532,-0.3089 -0.26271,-0.646609 -0.48207,-0.924129 -0.17807,-0.265558 -0.30256,-0.58773 -0.57799,-0.765108 -0.20009,-0.193376 -0.57446,-0.268815 -0.57273,-0.618174 l 3.27643,-1.669425 z" /></svg>