<?xml version="1.0" encoding="UTF-8" standalone="no"?>
<!-- Created with Inkscape (http://www.inkscape.org/) -->

<svg
   xmlns:dc="http://purl.org/dc/elements/1.1/"
   xmlns:cc="http://creativecommons.org/ns#"
   xmlns:rdf="http://www.w3.org/1999/02/22-rdf-syntax-ns#"
   xmlns:svg="http://www.w3.org/2000/svg"
   xmlns="http://www.w3.org/2000/svg"
   xmlns:sodipodi="http://sodipodi.sourceforge.net/DTD/sodipodi-0.dtd"
   xmlns:inkscape="http://www.inkscape.org/namespaces/inkscape"
   width="1809.2186"
   height="365.71429"
   id="svg3108"
   version="1.1"
   inkscape:version="0.48.4 r9939"
   sodipodi:docname="logo.svg">
  <defs
     id="defs3110">
    <linearGradient
       id="linearGradient4465">
      <stop
         style="stop-color:#19a3ff;stop-opacity:1;"
         offset="0"
         id="stop4467" />
      <stop
         id="stop4473"
         offset="0.5"
         style="stop-color:#19a3ff;stop-opacity:1;" />
      <stop
         style="stop-color:#19a3ff;stop-opacity:1;"
         offset="1"
         id="stop4469" />
    </linearGradient>
  </defs>
  <sodipodi:namedview
     id="base"
     pagecolor="#ffffff"
     bordercolor="#666666"
     borderopacity="1.0"
     inkscape:pageopacity="0.0"
     inkscape:pageshadow="2"
     inkscape:zoom="1.4"
     inkscape:cx="1017.236"
     inkscape:cy="202.71037"
     inkscape:document-units="px"
     inkscape:current-layer="layer1"
     showgrid="false"
     inkscape:snap-bbox="true"
     inkscape:bbox-paths="true"
     inkscape:bbox-nodes="true"
     inkscape:snap-bbox-edge-midpoints="true"
     inkscape:snap-bbox-midpoints="true"
     inkscape:object-paths="true"
     inkscape:snap-smooth-nodes="true"
     inkscape:snap-intersection-paths="true"
     inkscape:object-nodes="true"
     inkscape:snap-midpoints="true"
     inkscape:snap-object-midpoints="true"
     inkscape:snap-center="false"
     inkscape:snap-global="false"
     fit-margin-top="0"
     fit-margin-left="0"
     fit-margin-right="0"
     fit-margin-bottom="0"
     inkscape:window-width="1744"
     inkscape:window-height="977"
     inkscape:window-x="78"
     inkscape:window-y="43"
     inkscape:window-maximized="0" />
  <metadata
     id="metadata3113">
    <rdf:RDF>
      <cc:Work
         rdf:about="">
        <dc:format>image/svg+xml</dc:format>
        <dc:type
           rdf:resource="http://purl.org/dc/dcmitype/StillImage" />
        <dc:title />
      </cc:Work>
    </rdf:RDF>
  </metadata>
  <g
     inkscape:label="Layer 1"
     inkscape:groupmode="layer"
     id="layer1"
     transform="translate(532.56203,-343.32393)">
    <path
       inkscape:connector-curvature="0"
       id="path3128-0-6-2"
       d="m 1270.7568,526.18107 c 0,54.94265 -402.36601,99.48247 -898.70956,99.48247 -496.34353,0 -898.70945,-44.53982 -898.70945,-99.48247 0,-54.94264 402.36592,-99.48246 898.70945,-99.48246 496.34355,0 898.70956,44.53982 898.70956,99.48246 z"
       style="fill:none;stroke:#19a3ff;stroke-width:11.79962444;stroke-linejoin:round;stroke-miterlimit:4;stroke-opacity:1" />
    <path
       inkscape:connector-curvature="0"
       id="path3952"
       d="m 1119.8734,588.17618 c 0,24.80787 -20.1107,44.91862 -44.9186,44.91862 -24.808,0 -44.9187,-20.11075 -44.9187,-44.91862 0,-24.80787 20.1107,-44.91862 44.9187,-44.91862 24.8079,0 44.9186,20.11075 44.9186,44.91862 z"
       style="fill:#19a3ff;fill-opacity:1;stroke:#19a3ff;stroke-width:8.73417664;stroke-linecap:square;stroke-linejoin:round;stroke-miterlimit:4;stroke-opacity:1" />
    <path
       inkscape:connector-curvature="0"
       id="path3952-0"
       d="m -112.2658,555.75162 c 0,14.39636 -11.67056,26.06692 -26.06692,26.06692 -14.39637,0 -26.06693,-11.67056 -26.06693,-26.06692 0,-14.39636 11.67056,-26.06693 26.06693,-26.06693 14.39636,0 26.06692,11.67057 26.06692,26.06693 z"
       style="fill:#19a3ff;fill-opacity:1;stroke:#19a3ff;stroke-width:5.06856871;stroke-linecap:square;stroke-linejoin:round;stroke-miterlimit:4;stroke-opacity:1" />
    <path
       inkscape:connector-curvature="0"
       id="path3952-0-0"
       d="m 22.618238,542.9488 c 0,10.51684 -8.52558,19.04242 -19.0424111,19.04242 -10.5168358,0 -19.0424119,-8.52558 -19.0424119,-19.04242 0,-10.51683 8.5255761,-19.04241 19.0424119,-19.04241 10.5168311,0 19.0424111,8.52558 19.0424111,19.04241 z"
       style="fill:#19a3ff;fill-opacity:1;stroke:#19a3ff;stroke-width:3.70269132;stroke-linecap:square;stroke-linejoin:round;stroke-miterlimit:4;stroke-opacity:1" />
    <path
       inkscape:connector-curvature="0"
       id="path3952-0-0-1"
       d="m 595.3483,535.43584 c 0,7.01137 -5.68384,12.69521 -12.69522,12.69521 -7.01137,0 -12.69521,-5.68384 -12.69521,-12.69521 0,-7.01138 5.68384,-12.69522 12.69521,-12.69522 7.01138,0 12.69522,5.68384 12.69522,12.69522 z"
       style="fill:#19a3ff;fill-opacity:1;stroke:#19a3ff;stroke-width:2.46851397;stroke-linecap:square;stroke-linejoin:round;stroke-miterlimit:4;stroke-opacity:1" />
    <path
       style="fill:#19a3ff;fill-opacity:1;stroke:none"
       d="m 372.04722,343.32393 c 100.98922,0 182.85714,81.86794 182.85714,182.85716 0,100.98921 -81.86792,182.85714 -182.85714,182.85714 -100.98922,0 -182.85715,-81.86794 -182.85715,-182.85715 0,-100.98922 81.86793,-182.85715 182.85715,-182.85715 z"
       id="path3954"
       inkscape:connector-curvature="0" />
    <path
       inkscape:connector-curvature="0"
       id="path3128-0-6-2-2"
       d="m 935.08363,526.18108 c 0,38.62502 -252.08,69.93678 -563.03644,69.93678 -310.956441,0 -563.03644,-31.31176 -563.03644,-69.93678 0,-38.62501 252.079999,-69.93677 563.03644,-69.93677 310.95644,0 563.03644,31.31176 563.03644,69.93677 z"
       style="fill:none;stroke:#19a3ff;stroke-width:7.83080435;stroke-linejoin:round;stroke-miterlimit:4;stroke-opacity:1" />
    <path
       inkscape:connector-curvature="0"
       id="path3128-0-6-2-2-2"
       d="m 772.41121,526.18108 c 0,23.63747 -179.24911,42.79942 -400.364,42.79942 -221.1149,0 -400.363943,-19.16195 -400.363943,-42.79942 0,-23.63746 179.249043,-42.79941 400.363943,-42.79941 221.11489,0 400.364,19.16195 400.364,42.79941 z"
       style="fill:none;stroke:#19a3ff;stroke-width:5.16572952;stroke-linejoin:round;stroke-miterlimit:4;stroke-opacity:1" />
    <path
       inkscape:connector-curvature="0"
       id="path3128-0-6-2-2-2-7"
       d="m 619.3328,526.18108 c 0,9.74792 -110.71356,17.65016 -247.28559,17.65016 -136.57205,0 -247.28557,-7.90224 -247.28557,-17.65016 0,-9.74791 110.71352,-17.65015 247.28557,-17.65015 136.57203,0 247.28559,7.90224 247.28559,17.65015 z"
       style="fill:none;stroke:#19a3ff;stroke-width:2.6071074;stroke-linejoin:round;stroke-miterlimit:4;stroke-opacity:1" />
  </g>
</svg>
