<?xml version="1.0" encoding="UTF-8" standalone="no"?>
<!-- Created with Inkscape (http://www.inkscape.org/) -->

<svg
   xmlns:dc="http://purl.org/dc/elements/1.1/"
   xmlns:cc="http://creativecommons.org/ns#"
   xmlns:rdf="http://www.w3.org/1999/02/22-rdf-syntax-ns#"
   xmlns:svg="http://www.w3.org/2000/svg"
   xmlns="http://www.w3.org/2000/svg"
   xmlns:sodipodi="http://sodipodi.sourceforge.net/DTD/sodipodi-0.dtd"
   xmlns:inkscape="http://www.inkscape.org/namespaces/inkscape"
   width="1809.2185"
   height="473.6217"
   id="svg3108"
   version="1.1"
   inkscape:version="0.48.4 r9939"
   sodipodi:docname="logo.svg">
  <defs
     id="defs3110" />
  <sodipodi:namedview
     id="base"
     pagecolor="#ffffff"
     bordercolor="#666666"
     borderopacity="1.0"
     inkscape:pageopacity="0.0"
     inkscape:pageshadow="2"
     inkscape:zoom="0.7"
     inkscape:cx="822.55167"
     inkscape:cy="269.70783"
     inkscape:document-units="px"
     inkscape:current-layer="layer1"
     showgrid="false"
     inkscape:snap-bbox="true"
     inkscape:bbox-paths="true"
     inkscape:bbox-nodes="true"
     inkscape:snap-bbox-edge-midpoints="true"
     inkscape:snap-bbox-midpoints="true"
     inkscape:object-paths="true"
     inkscape:snap-smooth-nodes="true"
     inkscape:snap-intersection-paths="true"
     inkscape:object-nodes="true"
     inkscape:snap-midpoints="true"
     inkscape:snap-object-midpoints="true"
     inkscape:snap-center="false"
     inkscape:snap-global="true"
     fit-margin-top="0"
     fit-margin-left="0"
     fit-margin-right="0"
     fit-margin-bottom="0"
     inkscape:window-width="1330"
     inkscape:window-height="789"
     inkscape:window-x="78"
     inkscape:window-y="43"
     inkscape:window-maximized="0" />
  <metadata
     id="metadata3113">
    <rdf:RDF>
      <cc:Work
         rdf:about="">
        <dc:format>image/svg+xml</dc:format>
        <dc:type
           rdf:resource="http://purl.org/dc/dcmitype/StillImage" />
        <dc:title></dc:title>
      </cc:Work>
    </rdf:RDF>
  </metadata>
  <g
     inkscape:label="Layer 1"
     inkscape:groupmode="layer"
     id="layer1"
     transform="translate(532.56203,-289.37023)">
    <path
       style="fill:#19a3ff;fill-opacity:1;opacity:1"
       d="m 353.56973,705.23025 c 0,-0.275 0.225,-0.5 0.5,-0.5 0.275,0 0.5,0.225 0.5,0.5 0,0.275 -0.225,0.5 -0.5,0.5 -0.275,0 -0.5,-0.225 -0.5,-0.5 z m 10.5,-4.37097 C 294.91267,670.98498 238.79526,622.50238 198.98018,558.23025 l -6.81425,-11 -0.37707,-7 -0.37708,-7 6.7051,11.5 c 30.65099,52.56994 70.73943,94.50439 119.95285,125.47652 l 11,6.92278 16,8.13399 16,8.13399 13.5,5.21719 c 7.425,2.86946 14.4,5.61387 15.5,6.09868 l 2,0.88149 -8.5,0.008 -8.5,0.008 -11,-4.75175 z m -24,2.45424 -6,-1.2208 -9.5,-5.28787 c -44.50175,-24.77052 -86.87895,-61.4662 -115.56894,-100.0746 l -7.05947,-9.5 -1.17972,-4 c -0.64884,-2.2 -1.8654,-6.23546 -2.70347,-8.96768 l -1.52376,-4.96768 0.85951,0.96768 c 0.47273,0.53222 3.4565,4.79268 6.63061,9.46768 3.1741,4.675 9.42004,13.225 13.87986,19 l 8.10876,10.5 19.52831,19.51266 19.52832,19.51267 10.62174,8.34716 c 22.4474,17.64042 40.51118,29.34887 64.10046,41.54817 l 12.7222,6.57934 -3.2222,-0.098 c -1.77222,-0.0539 -5.92221,-0.6473 -9.22221,-1.31873 z m 52.5,-6.40405 c -41.46903,-14.8705 -73.4611,-32.82392 -106.99999,-60.04664 l -10.5,-8.5226 -15.02665,-15.05499 -15.02664,-15.05499 -8.7916,-11 C 220.27806,567.27773 204.0836,541.78019 195.3467,522.86921 l -3.95479,-8.56013 0.67668,-5.41597 0.67668,-5.41596 4.08846,8.87655 c 12.03985,26.13997 29.23146,53.34712 48.17842,76.24632 l 7.96812,9.63023 13.05415,13 13.05415,13 11.99059,9.60507 c 22.43101,17.96838 43.2788,31.15271 67.86879,42.92083 l 14.12178,6.75831 13.5,4.99263 c 7.425,2.74594 18.12214,6.25871 23.77142,7.80615 l 10.27141,2.81354 -1.61767,0.90529 -1.61766,0.90529 -5.65375,0.40655 -5.65375,0.40656 z m 29.5,-5.62658 C 397.39572,684.93335 377.02736,677.15051 353.17005,664.956 l -14.89967,-7.61587 -15.12442,-10.05494 c -8.31842,-5.53022 -19.61357,-13.65309 -25.10032,-18.05082 l -9.9759,-7.99589 -13.87377,-13.50411 -13.87377,-13.50412 -7.9721,-9.5 c -22.32061,-26.59847 -42.29738,-59.46197 -53.78223,-88.4764 l -3.15732,-7.97639 0.64086,-4.27361 0.64087,-4.2736 0.74233,0 0.74234,0 4.25686,10.99564 c 30.2966,78.25735 93.23118,143.2775 172.1567,177.8617 l 13.47922,5.90643 13.86362,4.60499 13.86361,4.60499 13.13639,3.09973 c 7.22501,1.70485 13.81138,3.31939 14.63638,3.58787 l 1.5,0.48814 -3.06457,1.29902 c -1.68552,0.71445 -3.93552,1.55787 -5,1.87426 l -1.93543,0.57526 z m -124.5,-1.05264 c 0,-0.275 0.225,-0.5 0.5,-0.5 0.275,0 0.5,0.225 0.5,0.5 0,0.275 -0.225,0.5 -0.5,0.5 -0.275,0 -0.5,-0.225 -0.5,-0.5 z m -10.53039,-5.3328 c -24.75561,-13.14325 -48.47048,-34.26237 -64.19361,-57.1672 l -3.08904,-4.5 17.65652,17.5 17.65653,17.5 9.5,7.64073 c 5.225,4.20241 14.45,11.10385 20.5,15.33655 15.0804,10.55054 15.15501,10.69032 1.9696,3.68992 z m 158.03039,-2.15503 c -15.13386,-3.05915 -28.55413,-6.74396 -44.02361,-12.0876 l -14.78085,-5.10576 -12.92948,-5.85018 c -32.872,-14.87351 -62.23816,-35.01156 -89.61525,-61.45425 l -12.43892,-12.01438 -10.4623,-12.5 -10.4623,-12.5 -8.69803,-13 c -16.06146,-24.00534 -27.4316,-46.43234 -36.00593,-71.01983 l -4.19164,-12.01983 1.99709,-4.46066 1.9971,-4.46066 0.45185,1.48049 c 6.69636,21.9406 14.43953,41.09338 23.84489,58.98049 l 6.04691,11.5 9.28527,14 c 49.10362,74.03669 150.07639,137.19451 219.83457,137.50512 l 1.15063,0.005 -4,2.46366 -4,2.46367 -2,-0.0531 c -1.1,-0.0292 -6.05,-0.87174 -11,-1.87233 z m 20.31642,-10.53905 c -21.9223,-2.9901 -42.72584,-8.17123 -64.60136,-16.089 l -12.71506,-4.60217 -13.23783,-6.31287 c -25.31803,-12.07367 -47.87074,-26.85275 -69.8421,-45.76841 l -11.07993,-9.53898 -8.73048,-9.27435 c -8.00124,-8.49967 -19.17232,-21.84323 -26.04012,-31.10421 l -2.75637,-3.71686 5.86742,2.93198 5.86742,2.93199 7.71466,9.37625 7.71465,9.37625 13.26134,12.91741 c 48.2006,46.9505 107.1469,75.26375 172.64547,82.92553 6.83581,0.79962 12.5956,1.62072 12.79953,1.82464 0.37221,0.37222 -6.2731,5.73984 -6.86694,5.54664 -0.1742,-0.0567 -4.67433,-0.6974 -10.0003,-1.42384 z m 8.18358,-12.96521 C 400.68477,651.21659 334.17831,616.4148 286.32924,561.25813 l -8.65093,-9.97212 2.69571,-1.12985 2.69572,-1.12985 15.393,15.90649 15.39301,15.90649 10.10699,8.4904 10.10699,8.4904 14.91758,10.00581 14.91759,10.00582 16.08241,7.86212 16.08242,7.86212 11.5,4.18527 11.5,4.18527 15.10682,3.8583 15.10683,3.85829 13.89317,1.98738 c 7.64125,1.09305 18.53251,2.29754 24.2028,2.67662 l 10.30963,0.68926 -2.74672,2.86695 -2.74671,2.86695 -3.56291,-0.11321 c -1.9596,-0.0623 -8.73791,-0.68276 -15.06291,-1.37888 z m 17.5,-13.63813 c 17.47876,-3.12446 18.81258,-3.15626 16.52006,-0.39395 l -1.26495,1.52417 -10.12755,-0.11822 -10.12756,-0.11821 z m -65.5,-10.36978 c 0,-0.275 0.225,-0.5 0.5,-0.5 0.275,0 0.5,0.225 0.5,0.5 0,0.275 -0.225,0.5 -0.5,0.5 -0.275,0 -0.5,-0.225 -0.5,-0.5 z m -13,-4.38822 c -37.20998,-13.41305 -67.05948,-31.64287 -97.30574,-59.42702 l -9.80573,-9.00752 -7.44427,-8.8726 c -8.14294,-9.70535 -8.02259,-9.45585 -5.90905,-12.25043 l 1.47161,-1.94579 5.15265,5.94579 c 2.83396,3.27018 10.59493,11.35605 17.24659,17.96859 l 12.09394,12.0228 8.5,6.7822 c 4.675,3.73021 13.66781,10.24495 19.98402,14.4772 l 11.48401,7.695 17.21393,8.64483 c 9.46765,4.75466 18.55101,9.59693 20.18523,10.7606 1.63423,1.16367 6.72015,4.12848 11.30206,6.58846 10.10542,5.4255 9.441,5.52396 -4.16925,0.61789 z m -39.76895,-33.0261 c -10.86684,-6.27825 -19.34373,-12.05265 -30.73105,-20.93381 l -7,-5.45942 -15.07296,-15.09622 -15.07295,-15.09623 -4.05813,-5.5 -4.05813,-5.5 -0.49601,-5.49862 -0.49601,-5.49862 2.62709,3.46734 c 17.00096,22.43851 42.28833,46.48896 65.27557,62.08266 l 9.86063,6.6891 2.16319,2.87907 c 1.18975,1.58349 3.52598,4.34157 5.19162,6.12907 3.99683,4.28926 3.7799,4.21819 -8.13286,-2.66432 z m 95.2016,4.85569 c -3.33704,-0.51495 -9.35395,-2.05411 -13.37091,-3.42037 l -7.30356,-2.4841 -6.45459,-3.60962 c -7.16409,-4.00638 -7.76703,-5.20771 -1.50482,-2.99828 10.75856,3.79584 32.13334,7.51387 54.20123,9.42802 l 8.5,0.73728 -5.06741,1.15314 -5.06741,1.15313 -8.93259,0.48853 -8.93259,0.48853 z M 479.56973,590.609 c -16.1636,-1.85726 -35.85524,-6.60391 -51.69013,-12.45984 l -10.12436,-3.74412 -2.09276,-3.72355 c -2.8506,-5.07196 -2.75813,-5.16983 2.65725,-2.81234 10.09746,4.39573 24.23463,9.12799 35.46907,11.87287 l 11.71908,2.86328 13.19369,1.67931 13.19368,1.6793 18.83724,-0.40517 c 10.36048,-0.22284 18.83724,-0.3517 18.83724,-0.28635 0,0.0653 -1.98606,1.5451 -4.41348,3.28834 l -4.41348,3.16952 -16.83652,-0.12974 -16.83652,-0.12973 z m 0,-13.96545 c -3.575,-0.4582 -11.225,-1.78319 -17,-2.94443 l -10.5,-2.11133 -11.80275,-3.91205 c -12.18294,-4.03806 -30.67904,-11.76756 -30.72111,-12.83832 -0.0131,-0.33394 -0.40065,-2.18217 -0.86117,-4.10717 l -0.83732,-3.5 10.61117,5.17756 10.61118,5.17757 12,3.97694 12,3.97694 10,2.04081 c 5.5,1.12244 14.95,2.5728 21,3.22302 l 11,1.18222 16,-0.57249 16,-0.57249 8.43149,-1.54022 c 9.93354,-1.8146 9.6695,-1.91857 6.59992,2.59873 l -2.41562,3.55491 -8.87562,1.13825 -8.87562,1.13825 -17.93227,-0.1268 -17.93228,-0.12681 z m -123.96649,-7.21045 -9.4665,-7.20285 -13.94506,-13.5 -13.94507,-13.5 -7.86594,-9.83591 C 291.73446,502.0783 278.83416,478.50247 269.67636,451.00552 l -3.92173,-11.77527 -2.61064,-11.70152 -2.61064,-11.70153 -1.61838,-14.23371 -1.61837,-14.23372 2.88657,-2.31063 2.88657,-2.31064 0.76499,7.24588 c 0.42075,3.98523 1.44478,12.31308 2.27562,18.50634 l 1.51061,11.26048 3.34908,13.23952 3.34908,13.23953 3.71676,10 c 7.98419,21.48158 19.25021,41.99611 33.40641,60.83044 l 6.98323,9.29095 9.23195,9.75483 9.23195,9.75484 12.09016,10.07878 c 6.64958,5.54333 12.16497,10.12634 12.25643,10.18447 0.29681,0.18866 4.31198,10.60718 4.06913,10.55854 -0.12948,-0.0259 -4.49533,-3.28843 -9.7019,-7.25 z m 137.46649,-5.36309 c -2.2,-0.17822 -8.275,-0.82035 -13.5,-1.42696 l -9.5,-1.10292 -13,-3.28679 -13,-3.2868 -11,-4.36815 -11,-4.36814 7.17727,-0.29234 7.17728,-0.29234 10.45345,3.49743 10.45345,3.49744 9.86927,2.0293 9.86928,2.0293 13.32866,1.19273 13.32866,1.19274 14.17134,-1.23039 14.17134,-1.2304 8.99763,-1.86577 c 10.36821,-2.14998 9.8279,-2.25997 8.44105,1.71835 l -1.07033,3.07036 -8.68418,1.57161 c -16.14763,2.92228 -33.50236,4.01959 -46.68417,2.95174 z m -149.30871,-22.92027 -13.17958,-12.58052 -8.19306,-10.16948 c -15.1031,-18.74643 -27.24792,-39.80311 -36.26445,-62.87524 l -4.41376,-11.29425 -3.0575,-12 c -3.90546,-15.32809 -5.86066,-26.85873 -7.19454,-42.42918 l -1.06477,-12.42917 2.33819,-1.79859 c 1.286,-0.98923 2.59864,-1.8086 2.91696,-1.82083 l 0.57878,-0.0222 1.22794,15.2043 1.22795,15.20429 2.39996,12.0457 c 4.50301,22.60121 10.2318,39.1645 20.66549,59.74877 l 5.932,11.70306 6.39505,9.56497 c 9.16079,13.70166 17.26935,23.40178 30.58269,36.58552 l 11.67022,11.55661 0.70847,4.19339 c 0.92259,5.46082 1.83551,6.03755 -13.27604,-8.38711 z m 141.80871,8.45604 c -4.125,-0.47459 -10.65,-1.48821 -14.5,-2.25249 l -7,-1.38961 40.5,0 40.5,0 -6.52709,1.30351 c -3.5899,0.71693 -10.88466,1.78941 -16.21058,2.38329 l -9.6835,1.07977 -9.78942,-0.1308 c -5.38417,-0.0719 -13.16441,-0.51909 -17.28941,-0.99367 z m -71.5,-7.71966 -7,-3.79057 -0.31547,-3.7682 -0.31546,-3.7682 6.81546,3.74173 c 3.74851,2.05795 7.18575,4.06423 7.63831,4.45839 l 0.82284,0.71666 -0.32284,3.10039 -0.32284,3.10038 z m 135.5,-0.0968 0,-2.94099 1.06653,-0.65915 c 1.54091,-0.95233 1.7574,-0.35929 1.20145,3.29112 l -0.49498,3.25 -0.8865,0 -0.8865,0 z M 244.58106,527.40599 C 236.642,514.08974 228.59391,497.68766 222.77829,482.97173 l -5.08934,-12.87813 -3.63523,-12.58084 -3.63523,-12.58083 1.99419,-3.85084 1.99419,-3.85084 0.50982,1.5 c 0.28041,0.825 1.9155,6.66056 3.63354,12.9679 1.71803,6.30735 5.37976,17.55735 8.13718,25 l 5.01348,13.5321 8.34886,17 8.34886,17 0.98546,6 c 0.542,3.3 0.91392,6.07908 0.82648,6.17574 -0.0874,0.0967 -2.6207,-3.95334 -5.62949,-9 z m 101.01519,-3.92879 c -11.69116,-12.46995 -17.98917,-20.31578 -25.72253,-32.04421 l -6.61702,-10.0354 -5.73608,-11.58367 c -10.1674,-20.53247 -16.03899,-38.64491 -19.96382,-61.58367 l -2.05322,-12 -0.61279,-14.02302 -0.61279,-14.02303 2.69292,-1.22697 c 1.48111,-0.67484 2.89675,-1.22698 3.14587,-1.22698 0.24912,0 0.46699,4.6125 0.48414,10.25 l 0.0312,10.25 1.38936,11.5 c 5.47936,45.35367 25.0492,87.78305 55.44546,120.21133 l 7.22813,7.71134 -0.31267,3.4311 -0.31267,3.43111 -8.47348,-9.03793 z m 203.49379,5.31705 -0.64941,-2.0461 0.62357,-1.00895 c 0.34296,-0.55492 1.3019,-1.00895 2.13097,-1.00895 l 1.5074,0 -0.31642,2.67288 -0.31642,2.67288 -1.16514,0.38217 -1.16514,0.38216 z m -135.77031,-2.80379 -6.75,-3.69566 0,-3.28228 0,-3.28227 0.60194,0 c 0.33107,0 3.70222,1.9125 7.49144,4.25 l 6.8895,4.25 0.009,2.75 0.009,2.75 -0.75,-0.0221 c -0.4125,-0.0121 -3.7875,-1.68511 -7.5,-3.71772 z m -118.75,-7.76021 c 0,-0.275 0.225,-0.5 0.5,-0.5 0.275,0 0.5,0.225 0.5,0.5 0,0.275 -0.225,0.5 -0.5,0.5 -0.275,0 -0.5,-0.225 -0.5,-0.5 z m 252.51488,-3.29674 -0.62559,-2.49255 0.94913,-0.94913 0.94914,-0.94914 1.85622,0.35233 1.85622,0.35233 0.30417,2.61452 0.30418,2.61451 -2.48394,0.47484 -2.48394,0.47483 z M 246.06558,501.72196 c -10.93857,-21.82908 -17.92374,-41.11801 -22.94639,-63.36443 l -2.45477,-10.87272 2.29131,-3.37197 2.2913,-3.37196 0.66136,0.66135 c 0.36374,0.36375 0.66135,1.67554 0.66135,2.9151 0,1.23956 1.73937,9.15206 3.86526,17.58334 l 3.86526,15.32958 5.17555,13.78001 c 2.84655,7.57901 7.84444,19.42679 11.10642,26.32841 l 5.93086,12.54839 -1.58668,2.4216 c -2.14732,3.27722 -1.56493,3.97305 -8.86083,-10.5867 z m 101.68441,4.79071 c -3.89536,-4.6258 -10.5286,-13.55672 -14.74054,-19.84648 l -7.65808,-11.43594 -5.9898,-12.38139 -5.9898,-12.38139 -4.35432,-13.23234 -4.35431,-13.23234 -1.99925,-9.88627 c -1.09958,-5.43745 -2.4706,-13.69947 -3.0467,-18.36004 l -1.04746,-8.47376 0,-12.75056 0,-12.75055 2.95034,-1.52568 c 1.62269,-0.83913 3.08519,-1.52407 3.25,-1.5221 0.16481,0.002 0.3458,7.76446 0.4022,17.25 l 0.10255,17.24642 1.67431,10 c 0.92087,5.5 3.0363,15.1301 4.70095,21.40021 l 3.02664,11.40022 3.99756,10.09978 c 7.35871,18.59173 18.31942,37.25503 31.37832,53.42933 l 6.51713,8.0719 -0.0153,2.29928 c -0.008,1.2646 -0.39931,2.9052 -0.86865,3.64576 l -0.85333,1.34648 z m 66.81974,4.17728 c -6.15941,-4.45245 -6.37541,-4.77064 -5.26896,-7.76167 l 0.78816,-2.1306 5.72706,3.71628 5.72705,3.71629 0.0134,3.25 0.0133,3.25 -0.75,-0.0323 c -0.4125,-0.0177 -3.225,-1.82136 -6.25,-4.00804 z m -125.47716,0.0655 c -0.98293,-1.08612 -3.72558,-2.91315 -6.09478,-4.06006 l -4.30765,-2.08527 -7.49255,-15.18993 -7.49254,-15.18994 -4.03174,-11 c -7.01094,-19.12836 -13.14816,-43.80933 -14.70821,-59.14947 l -0.59498,-5.85053 2.89984,-2.74551 2.89984,-2.74551 1.20535,10.74551 c 3.93078,35.04239 17.67091,74.48983 35.59921,102.20415 4.69825,7.26276 5.20701,8.47969 2.11821,5.06659 z m 140.75818,-6.78032 c -4.52043,-2.6097 -10.27303,-6.20878 -12.78355,-7.99795 l -4.56458,-3.25305 1.16901,-2.24695 c 0.64296,-1.23583 1.30518,-2.40658 1.4716,-2.60168 0.16643,-0.19509 4.04298,2.11736 8.61455,5.13878 8.75883,5.78885 15.7213,9.52975 24.81195,13.33136 l 5.5,2.30004 -8,0.0372 -8,0.0372 -8.21898,-4.74491 z m 46.21898,3.1078 c -3.85,-0.81634 -10.91631,-2.78898 -15.7029,-4.38363 l -8.7029,-2.89937 -8.25486,-4.15046 c -8.58357,-4.31573 -21.36762,-12.34695 -22.45536,-14.10694 l -0.62669,-1.01401 1.87193,-1.87194 1.87194,-1.87193 6.41821,4.46658 c 16.3196,11.35718 37.24338,18.9816 60.33063,21.98387 l 4.75,0.6177 0,2.43872 0,2.43873 -6.25,-0.0815 -6.25,-0.0815 -7,-1.48427 z M 261.28348,501.47607 C 250.74241,483.36671 238.5207,447.73705 234.0147,421.98004 l -1.7932,-10.25021 2.34473,-2.49585 c 2.97819,-3.17014 2.65821,-3.7764 5.05698,9.58141 5.11288,28.47156 14.7858,56.9601 26.72605,78.71319 1.90143,3.46408 3.2914,6.43828 3.08881,6.60932 -0.20258,0.17105 -1.56418,0.59742 -3.02576,0.94749 l -2.65743,0.6365 z m 283.2726,1.91732 c -0.008,-0.63973 -0.26879,-2.11367 -0.58062,-3.27543 l -0.56697,-2.11228 1.83062,-0.52426 c 1.00684,-0.28835 2.61812,-0.84846 3.58062,-1.24471 l 1.75,-0.72044 0,3.38775 0,3.38775 -3,1.13238 -3,1.13237 -0.0136,-1.16313 z M 352.43976,490.48025 c -18.75798,-24.42891 -31.84021,-54.19818 -37.46348,-85.25 l -1.62984,-9 -0.51132,-20.10931 -0.51133,-20.10931 3.27219,-1.14069 c 1.79971,-0.62738 3.42069,-1.14069 3.60218,-1.14069 0.18149,0 0.0606,5.5125 -0.26855,12.25 l -0.59853,12.25 1.16191,11.5 c 0.63905,6.325 2.06821,16 3.17591,21.5 l 2.01399,10 3.4988,10.5 c 6.15693,18.47714 15.54368,36.49631 26.75698,51.36375 l 6.1868,8.20292 -0.92253,3.21666 c -1.24432,4.33867 -1.39461,4.26059 -7.76318,-4.03333 z m 128.78524,3.6532 c -14.48353,-2.61678 -31.29583,-9.49637 -44.28789,-18.12262 -6.33188,-4.20413 -6.22452,-3.91895 -2.11738,-5.6243 l 3.25,-1.34945 4,2.71565 c 2.2,1.49361 7.61397,4.53005 12.03103,6.74765 l 8.03104,4.032 8.46896,2.54392 c 4.65794,1.39916 10.26897,2.8196 12.46897,3.15655 2.2,0.33695 4.96753,0.80899 6.15007,1.04899 l 2.15008,0.43635 1.0479,3.00603 1.04791,3.00603 -2.19798,-0.0897 c -1.20889,-0.0494 -5.72811,-0.72753 -10.04271,-1.50706 z m 58.4678,-6.03243 c -0.65887,-1.44607 -1.0686,-2.71169 -0.91051,-2.81248 0.6871,-0.43807 8.2068,-2.47226 8.4053,-2.27376 0.12077,0.12076 0.51585,1.40003 0.87797,2.84281 l 0.65839,2.62325 -3.22633,1.1247 c -4.35623,1.51859 -4.43692,1.49768 -5.80482,-1.50452 z M 358.9276,476.40399 c -2.81869,-3.94556 -7.40652,-11.22374 -10.19517,-16.17374 l -5.07028,-9 -4.39626,-11 -4.39625,-11 -2.65185,-10.0884 -2.65184,-10.08839 -1.47979,-10.41161 -1.47979,-10.4116 -0.0183,-14.11043 c -0.0101,-7.76074 0.26785,-16.19824 0.6176,-18.75 l 0.63593,-4.63957 2.63849,0 2.63849,0 -0.39094,17.04947 -0.39094,17.04946 1.72352,12.20054 1.72352,12.20053 3.3104,11.5 3.31041,11.5 3.64059,8.5 c 4.45198,10.39443 8.08351,16.99883 15.25128,27.73635 l 5.49813,8.23635 -1.37102,3.43739 -1.37101,3.43738 -5.1249,-7.17373 z m 116.14213,1.90658 c -9.23654,-2.62902 -22.33975,-7.94335 -25.10253,-10.18095 l -1.89747,-1.53677 7.13795,0.56527 7.13796,0.56527 6.95564,2.83062 6.95564,2.83062 4.15641,3.34017 c 6.03247,4.84783 6.07387,4.83555 -5.3436,1.58577 z m 58.73401,-2.96608 -1.08703,-2.38576 5.34762,-1.96992 5.34762,-1.96992 0.56523,2.10568 c 0.31088,1.15812 0.57139,2.46614 0.5789,2.90671 0.0156,0.91492 -6.2267,3.69897 -8.29372,3.69897 l -1.3716,0 z M 366.50426,462.90684 c -2.41622,-3.67213 -6.71768,-11.31134 -9.55881,-16.97605 l -5.16569,-10.29945 -3.54032,-10.70055 -3.54032,-10.70054 -2.28983,-11.5 -2.28984,-11.5 0.0607,-19 0.0607,-19 1.13972,-2.75 1.13972,-2.75 2.62294,0 2.62293,0 -0.75441,6.25 -0.75441,6.25 0.0789,14 0.0789,14 2.02126,11.5216 2.02126,11.5216 3.45503,10.54726 3.45502,10.54726 4.71013,9.37844 c 2.59058,5.15813 6.46103,12.15077 8.60101,15.5392 4.50308,7.13011 4.45746,6.9089 2.05471,9.9635 l -1.83618,2.33432 z m 159.65743,0.32341 c -0.90094,-1.375 -1.51519,-2.51162 -1.36501,-2.52582 0.15018,-0.0142 3.29556,-1.05591 6.98974,-2.31493 l 6.71669,-2.28911 1.03782,2.97709 c 0.5708,1.6374 0.92329,3.0399 0.78331,3.11667 -0.5848,0.32073 -11.47581,3.5361 -11.97739,3.5361 -0.30091,0 -1.28423,-1.125 -2.18516,-2.5 z m -150.78763,-11.75 c -5.94525,-10.28956 -10.39338,-19.73705 -13.68295,-29.06159 l -3.10861,-8.8116 -2.18941,-10.1884 -2.1894,-10.18841 -0.067,-18.5 -0.067,-18.5 0.81127,-4.75 0.81128,-4.75 3.50611,0 3.50612,0 -0.54219,1.75 c -0.2982,0.9625 -1.02041,6.94757 -1.6049,13.30015 l -1.06272,11.55015 1.07918,11.44372 c 2.27226,24.09524 8.01443,42.77462 18.93686,61.6019 l 3.88888,6.70338 -1.66494,2.29393 c -2.28659,3.15041 -2.29316,3.14639 -6.36062,-3.89323 z m 140.82628,-0.61368 -2.74358,-2.86367 5.01145,-0.66479 c 2.75629,-0.36564 6.93754,-1.34436 9.29166,-2.17494 l 4.28022,-1.51015 1.26482,1.72974 c 0.69565,0.95136 1.26482,2.26415 1.26482,2.9173 l 0,1.18755 -2.75,1.06935 c -3.26885,1.27111 -10.31223,3.15984 -11.81291,3.16771 -0.5846,0.003 -2.29752,-1.28307 -3.80648,-2.8581 z m -130.15002,-9.16828 c -2.00316,-3.29755 -5.38436,-10.01251 -7.51377,-14.92212 l -3.87167,-8.92656 -2.49526,-9.30968 c -1.3724,-5.12033 -3.03198,-13.10019 -3.68797,-17.73304 l -1.1927,-8.42335 0.61937,-14.07665 c 0.34066,-7.74215 0.98222,-15.65164 1.4257,-17.57664 l 0.80633,-3.5 3.02426,-0.29916 3.02426,-0.29915 -1.36768,8.79915 -1.36767,8.79916 0.49718,13 0.49719,13 1.60525,8.28057 1.60525,8.28058 3.53065,10.21943 3.53066,10.21942 4.49159,8.36364 4.4916,8.36364 -2.00523,1.86816 -2.00523,1.86816 z m 113.75657,-3.33809 -5.26283,-3.3256 9.76283,-0.0269 9.76284,-0.0269 5.78343,-1.53904 5.78343,-1.53903 1.60203,2.445 c 0.88111,1.34475 1.40975,2.63728 1.17475,2.87228 -0.92081,0.92081 -12.21392,3.4464 -17.62803,3.94232 l -5.71561,0.52355 -5.26284,-3.32561 z m -104.49573,-8.37995 -4.61296,-8.75 -3.01628,-9.00438 -3.01629,-9.00438 -1.54795,-8.87661 -1.54795,-8.87661 0,-11.82816 0,-11.82817 1.12156,-7.54084 1.12156,-7.54085 2.99194,0 2.99194,0 -0.61213,3.25 c -0.33667,1.7875 -0.88996,10 -1.22954,18.25 l -0.61742,15 1.65236,9.4609 1.65237,9.4609 3.01901,9.0391 3.019,9.0391 4.37916,8.11933 4.37916,8.11934 -2.48154,1.13066 c -1.36484,0.62187 -2.60562,1.13067 -2.75728,1.13067 -0.15167,0 -2.35159,-3.9375 -4.88872,-8.75 z m 97.25857,4.25 c 0,-0.275 0.225,-0.5 0.5,-0.5 0.275,0 0.5,0.225 0.5,0.5 0,0.275 -0.225,0.5 -0.5,0.5 -0.275,0 -0.5,-0.225 -0.5,-0.5 z m -81.29136,-3.82192 c -5.96058,-9.09699 -12.42879,-26.11415 -14.71831,-38.72226 l -1.17231,-6.45582 -0.002,-11.74007 -0.002,-11.74006 1.26442,-7.07522 1.26441,-7.07522 2.57613,0.64657 c 3.4499,0.86587 3.32956,0.38841 2.00909,7.97113 l -1.17044,6.72117 0.49512,14.64585 0.49513,14.64585 2.67242,9 2.67242,9 4.69693,9.5 c 2.58332,5.225 4.82393,9.75996 4.97914,10.07769 0.15522,0.31772 -0.81945,1.07963 -2.16593,1.69313 l -2.44815,1.11545 -1.44686,-2.20819 z m 10.24477,-9.37401 -4.28438,-7.48812 -3.27524,-9.65798 -3.27524,-9.65797 -1.05927,-7.82236 c -1.36112,-10.05136 -1.34199,-18.69515 0.0623,-28.13679 l 1.12154,-7.54085 1.12844,0.0136 c 0.62064,0.007 2.09359,0.27261 3.27323,0.58912 l 2.14478,0.57546 -1.10054,3.66088 -1.10055,3.66088 0.0698,14 0.0698,14 2.15189,8 2.15189,8 3.43202,7.24414 c 1.88762,3.98427 4.82708,9.27178 6.53215,11.75001 1.70506,2.47821 2.96302,4.50586 2.79547,4.50586 -0.16755,0 -1.71067,0.40323 -3.42915,0.8961 l -3.12451,0.89609 -4.28437,-7.48812 z m 54.04659,7.19593 c 0,-0.275 0.225,-0.5 0.5,-0.5 0.275,0 0.5,0.225 0.5,0.5 0,0.275 -0.225,0.5 -0.5,0.5 -0.275,0 -0.5,-0.225 -0.5,-0.5 z m -9.36777,-1.82482 -5.86778,-1.03446 -4.80499,-4.68021 -4.805,-4.68021 -3.69905,-5.78256 -3.69906,-5.78256 -3.08172,-8.10759 -3.08171,-8.10759 -0.0465,-14.16328 -0.0465,-14.16327 0.62077,-0.62417 0.62078,-0.62416 2.37922,1.08391 2.37923,1.08391 0.0222,12.20353 0.0222,12.20353 1.63836,5.13023 c 0.9011,2.82163 2.91613,7.76565 4.47783,10.98672 l 2.83947,5.85648 6.85144,7.23624 6.85144,7.23624 4.57,3.02704 4.57001,3.02705 -1.42145,-0.14518 c -0.78179,-0.0799 -4.06194,-0.61069 -7.28921,-1.17964 z m 26.64352,-0.18662 -6.22426,-1.35245 -7.27024,-3.81805 -7.27023,-3.81806 -6.04683,-6 -6.04683,-6 -3.75939,-7.24273 -3.75939,-7.24273 -1.43192,-6.75727 -1.43193,-6.75727 -0.002,-5 -0.002,-5 0.82532,-1.30117 0.82533,-1.30117 2.65936,1.21168 2.65936,1.21169 0,6.12938 0,6.12939 1.49167,5.7269 c 0.82042,3.1498 2.58127,7.87713 3.91301,10.5052 l 2.42135,4.77829 4.58449,5.09906 4.58449,5.09905 5.00435,3.21129 5.00436,3.21129 6.24814,1.96488 6.24814,1.96488 7.55732,0.0514 c 4.15653,0.0283 8.94552,-0.25344 10.64219,-0.62609 l 3.08487,-0.67755 2.10336,2.95389 2.10336,2.9539 -6.32746,1.10188 c -8.08352,1.40768 -14.57069,1.28901 -22.38789,-0.40956 z m -55.19824,-6.49357 -4.21227,-6.00501 -3.31491,-7.24499 -3.31491,-7.24499 -1.84248,-7 -1.84247,-7 -0.0252,-13 -0.0252,-13 0.75551,-2.69606 0.75552,-2.69606 2.99086,1.04262 2.99086,1.04262 -0.74637,4.15344 -0.74645,4.15344 0.0909,10.5 0.0909,10.5 1.68589,6.5 1.68589,6.5 3.32512,7 3.32512,7 4.56886,6 4.56887,6 -1.67076,0.67971 c -0.91891,0.37385 -2.39305,0.71135 -3.27586,0.75 l -1.60511,0.0703 -4.21227,-6.00501 z m 56.66841,-7.08066 c -2.06474,-0.48662 -5.94558,-1.99529 -8.6241,-3.3526 l -4.87002,-2.46783 -4.57903,-4.57903 -4.57903,-4.57902 -3.05655,-6.21793 -3.05656,-6.21792 -1.10612,-6.30086 -1.10613,-6.30086 0.55824,-0.55823 0.55823,-0.55823 3.05757,2.17718 3.05758,2.17719 7.9e-4,2.6819 7.9e-4,2.68191 2.85295,6 2.85295,6 5.17903,4.82073 5.17903,4.82072 4.60382,2.03649 4.60381,2.03648 6.08161,0.55147 6.08161,0.55146 1.6894,2.08632 1.68941,2.08633 -0.46662,0.755 -0.46661,0.755 -6.19099,-0.10045 c -3.40504,-0.0553 -7.88031,-0.4986 -9.94506,-0.98522 z m 0.32314,-14.48128 c -1.88702,-0.81877 -5.26202,-2.99176 -7.5,-4.82889 l -4.06906,-3.34022 -2.31398,-4.13197 -2.31399,-4.13197 0.70267,0 c 1.01265,0 13.31051,10.21182 17.37147,14.42481 l 3.44616,3.57519 -0.94616,-0.0391 c -0.52039,-0.0215 -2.49009,-0.70904 -4.37711,-1.52781 z"
       id="path3087"
       inkscape:connector-curvature="0"
       sodipodi:nodetypes="ssssscscccsscccsscccccscsscsscssscccsscsssscccsscccsscccsscsscccccssscsscccsscccccsscccsscsscsssssssscccssscscsscccsscccsscsccccsccsscsscsscccccssccssscccccccccccccccssccccssscccsssssssscsscsscsscsssssscccccccsscssssscssscccccssscssscccssscccssscscscccccsscccsscccccsscccsscccccccsscccsscccsccssscccccccccccccccsscssccsscsscsccccsscsscsccsscccsscssccccssccccccssccccsscccccssscccscscscsscccssscsscccccccssccccccccccssccccccssssscccccccccccsscccssscsscsssscccccsscccscscsscssccscscscccccccccscccsscccsscccscscssccccccscsscccsscccccccsscssscscscscsscccccccsscccssscsscsscsscsscsscsssccccccsscscsscscccccccsscccccccccsscccccsscccccssccccsssccsscccccccccccccccccccssscsssscsssscscccccccccsscsscsccscsscsscscssscsscsscccccccccccccccsccccccssscccscccccccccccsscccccccsssssssscscccccsscccccscscccccccssccscccccccsssccccsssssccccccccccccccccssccccccccccccccccccccccccccsscccccccsscccscccccccccccccccccccccccccccccssccccccccccccccccccccccccccscscccsscscc" />
    <path
       inkscape:connector-curvature="0"
       id="path3128-0-6-2"
       d="m 1267.7419,526.18107 c 0,125.86361 -401.01616,227.89621 -895.69466,227.89621 -494.67848,0 -895.69463,-102.0326 -895.69463,-227.89621 0,-125.86359 401.01615,-227.8962 895.69463,-227.8962 494.6785,0 895.69466,102.03261 895.69466,227.8962 z"
       style="opacity:1;fill:none;stroke:#19a3ff;stroke-width:17.82928084999999996;stroke-linejoin:round;stroke-miterlimit:4;stroke-opacity:1" />
    <path
       inkscape:connector-curvature="0"
       id="path3952"
       d="m 1081.7331,680.73325 c 0,28.40322 -23.0253,51.42857 -51.4285,51.42857 -28.4033,0 -51.42862,-23.02535 -51.42862,-51.42857 0,-28.40321 23.02532,-51.42857 51.42862,-51.42857 28.4032,0 51.4285,23.02536 51.4285,51.42857 z"
       style="opacity:1;fill:#19a3ff;fill-opacity:1;stroke:#19a3ff;stroke-width:10;stroke-linecap:square;stroke-linejoin:round;stroke-miterlimit:4;stroke-opacity:1" />
    <path
       inkscape:connector-curvature="0"
       id="path3952-0"
       d="m -144.02762,578.07077 c 0,14.39636 -11.67056,26.06692 -26.06692,26.06692 -14.39637,0 -26.06693,-11.67056 -26.06693,-26.06692 0,-14.39636 11.67056,-26.06693 26.06693,-26.06693 14.39636,0 26.06692,11.67057 26.06692,26.06693 z"
       style="opacity:1;fill:#19a3ff;fill-opacity:1;stroke:#19a3ff;stroke-width:5.06856871000000009;stroke-linecap:square;stroke-linejoin:round;stroke-miterlimit:4;stroke-opacity:1" />
    <path
       inkscape:connector-curvature="0"
       id="path3952-0-0"
       d="m 23.071208,542.86132 c 0,10.51684 -8.52558,19.04242 -19.0424112,19.04242 -10.5168353,0 -19.0424118,-8.52558 -19.0424118,-19.04242 0,-10.51683 8.5255765,-19.04241 19.0424118,-19.04241 10.5168312,0 19.0424112,8.52558 19.0424112,19.04241 z"
       style="opacity:1;fill:#19a3ff;fill-opacity:1;stroke:#19a3ff;stroke-width:3.70269132000000001;stroke-linecap:square;stroke-linejoin:round;stroke-miterlimit:4;stroke-opacity:1" />
    <path
       inkscape:connector-curvature="0"
       id="path3952-0-0-1"
       d="m 603.51149,573.56502 c 0,7.01137 -5.68384,12.69521 -12.69522,12.69521 -7.01137,0 -12.69521,-5.68384 -12.69521,-12.69521 0,-7.01138 5.68384,-12.69522 12.69521,-12.69522 7.01138,0 12.69522,5.68384 12.69522,12.69522 z"
       style="opacity:1;fill:#19a3ff;fill-opacity:1;stroke:#19a3ff;stroke-width:2.46851397000000006;stroke-linecap:square;stroke-linejoin:round;stroke-miterlimit:4;stroke-opacity:1" />
    <path
       inkscape:connector-curvature="0"
       id="path3128-0-6-2-7"
       d="m 951.12228,526.18107 c 0,81.37201 -259.26073,147.33705 -579.07503,147.33705 -319.814295,0 -579.07501,-65.96504 -579.07501,-147.33705 0,-81.37201 259.260715,-147.33705 579.07501,-147.33705 319.8143,0 579.07503,65.96504 579.07503,147.33705 z"
       style="opacity:1;fill:none;stroke:#19a3ff;stroke-width:11.52679825000000058;stroke-linejoin:round;stroke-miterlimit:4;stroke-opacity:1" />
    <path
       inkscape:connector-curvature="0"
       id="path3128-0-6-2-7-4"
       d="m 745.79628,526.18107 c 0,52.51946 -167.33314,95.09489 -373.74903,95.09489 -206.41589,0 -373.7490269,-42.57543 -373.7490269,-95.09489 0,-52.51946 167.3331369,-95.09489 373.7490269,-95.09489 206.41589,0 373.74903,42.57543 373.74903,95.09489 z"
       style="opacity:1;fill:none;stroke:#19a3ff;stroke-width:7.43967437999999870;stroke-linejoin:round;stroke-miterlimit:4;stroke-opacity:1" />
    <path
       inkscape:connector-curvature="0"
       id="path3128-0-6-2-7-4-4"
       d="m 659.34324,526.18106 c 0,40.37103 -128.62679,73.09821 -287.29599,73.09821 -158.66918,0 -287.295973,-32.72718 -287.295973,-73.09821 0,-40.37102 128.626793,-73.0982 287.295973,-73.0982 158.6692,0 287.29599,32.72718 287.29599,73.0982 z"
       style="opacity:1;fill:none;stroke:#19a3ff;stroke-width:5.71878004000000040;stroke-linejoin:round;stroke-miterlimit:4;stroke-opacity:1" />
  </g>
</svg>
