<?xml version="1.0" encoding="UTF-8" standalone="no"?>
<!-- Created with Inkscape (http://www.inkscape.org/) -->

<svg
   xmlns:osb="http://www.openswatchbook.org/uri/2009/osb"
   xmlns:dc="http://purl.org/dc/elements/1.1/"
   xmlns:cc="http://creativecommons.org/ns#"
   xmlns:rdf="http://www.w3.org/1999/02/22-rdf-syntax-ns#"
   xmlns:svg="http://www.w3.org/2000/svg"
   xmlns="http://www.w3.org/2000/svg"
   xmlns:sodipodi="http://sodipodi.sourceforge.net/DTD/sodipodi-0.dtd"
   xmlns:inkscape="http://www.inkscape.org/namespaces/inkscape"
   id="svg2"
   version="1.1"
   inkscape:version="0.48.5 r10040"
   width="327.25711"
   height="58.976757"
   xml:space="preserve"
   sodipodi:docname="title.svg"><metadata
     id="metadata8"><rdf:RDF><cc:Work
         rdf:about=""><dc:format>image/svg+xml</dc:format><dc:type
           rdf:resource="http://purl.org/dc/dcmitype/StillImage" /><dc:title></dc:title></cc:Work></rdf:RDF></metadata><defs
     id="defs6"><linearGradient
       id="linearGradient4178"
       osb:paint="solid"><stop
         style="stop-color:#000000;stop-opacity:1;"
         offset="0"
         id="stop4180" /></linearGradient><clipPath
       clipPathUnits="userSpaceOnUse"
       id="clipPath16"><path
         d="m 0,841.89 595.28,0 L 595.28,0 0,0 0,841.89 z"
         id="path18"
         inkscape:connector-curvature="0" /></clipPath></defs><sodipodi:namedview
     pagecolor="#ffffff"
     bordercolor="#666666"
     borderopacity="1"
     objecttolerance="10"
     gridtolerance="10"
     guidetolerance="10"
     inkscape:pageopacity="0"
     inkscape:pageshadow="2"
     inkscape:window-width="1501"
     inkscape:window-height="1057"
     id="namedview4"
     showgrid="false"
     inkscape:zoom="2.5371819"
     inkscape:cx="164.68921"
     inkscape:cy="0.25978575"
     inkscape:window-x="0"
     inkscape:window-y="27"
     inkscape:window-maximized="0"
     inkscape:current-layer="g10"
     fit-margin-top="0"
     fit-margin-left="0"
     fit-margin-right="0"
     fit-margin-bottom="0" /><g
     id="g10"
     inkscape:groupmode="layer"
     inkscape:label="SpaceHopper_03"
     transform="matrix(1.25,0,0,-1.25,-204.49377,627.5278)"><g
       id="g20"
       transform="translate(167.73401,488.37756)"
       style="stroke:none;stroke-opacity:1;fill-opacity:1;fill:#ffffff"><path
         d="m 0,0 c 2.684,0 4.063,-1.605 4.063,-4.415 l 0,-0.552 -2.608,0 0,0.727 c 0,1.255 -0.502,1.731 -1.38,1.731 -0.878,0 -1.38,-0.476 -1.38,-1.731 0,-3.612 5.394,-4.289 5.394,-9.306 0,-2.81 -1.405,-4.415 -4.114,-4.415 -2.709,0 -4.114,1.605 -4.114,4.415 l 0,1.078 2.609,0 0,-1.254 c 0,-1.254 0.551,-1.706 1.429,-1.706 0.878,0 1.43,0.452 1.43,1.706 0,3.612 -5.393,4.289 -5.393,9.307 C -4.064,-1.605 -2.685,0 0,0"
         style="fill:#ffffff;fill-opacity:1;fill-rule:nonzero;stroke:none;stroke-opacity:1"
         id="path22"
         inkscape:connector-curvature="0" /></g><g
       id="g24"
       transform="translate(186.19401,485.66806)"
       style="stroke:none;stroke-opacity:1;fill-opacity:1;fill:#ffffff"><path
         d="m 0,0 0,-5.945 1.305,0 c 0.878,0 1.354,0.401 1.354,1.655 l 0,2.634 C 2.659,-0.401 2.183,0 1.305,0 L 0,0 z m 5.418,-1.831 0,-2.283 c 0,-2.809 -1.354,-4.34 -4.113,-4.34 l -1.305,0 0,-6.597 -2.759,0 0,17.559 4.064,0 c 2.759,0 4.113,-1.529 4.113,-4.339"
         style="fill:#ffffff;fill-opacity:1;fill-rule:nonzero;stroke:none;stroke-opacity:1"
         id="path26"
         inkscape:connector-curvature="0" /></g><g
       id="g28"
       transform="translate(205.35661,476.18566)"
       style="stroke:none;stroke-opacity:1;fill-opacity:1;fill:#ffffff"><path
         d="M 0,0 2.659,0 1.33,8.88 0,0 z m 6.296,-5.569 -2.784,0 -0.476,3.186 -3.387,0 -0.477,-3.186 -2.533,0 2.809,17.56 4.039,0 2.809,-17.56 z"
         style="fill:#ffffff;fill-opacity:1;fill-rule:nonzero;stroke:none;stroke-opacity:1"
         id="path30"
         inkscape:connector-curvature="0" /></g><g
       id="g32"
       transform="translate(230.96641,477.16416)"
       style="stroke:none;stroke-opacity:1;fill-opacity:1;fill:#ffffff"><path
         d="m 0,0 0,-2.333 c 0,-2.81 -1.405,-4.415 -4.114,-4.415 -2.709,0 -4.114,1.605 -4.114,4.415 l 0,9.131 c 0,2.81 1.405,4.415 4.114,4.415 C -1.405,11.213 0,9.608 0,6.798 l 0,-1.706 -2.609,0 0,1.882 c 0,1.254 -0.552,1.731 -1.43,1.731 -0.878,0 -1.43,-0.477 -1.43,-1.731 l 0,-9.483 c 0,-1.254 0.552,-1.705 1.43,-1.705 0.878,0 1.43,0.451 1.43,1.705 L -2.609,0 0,0 z"
         style="fill:#ffffff;fill-opacity:1;fill-rule:nonzero;stroke:none;stroke-opacity:1"
         id="path34"
         inkscape:connector-curvature="0" /></g><g
       id="g36"
       transform="translate(245.43711,480.77646)"
       style="stroke:none;stroke-opacity:1;fill-opacity:1;fill:#ffffff"><path
         d="m 0,0 3.788,0 0,-2.509 -3.788,0 0,-5.142 4.767,0 0,-2.509 -7.526,0 0,17.56 7.526,0 0,-2.508 L 0,4.892 0,0 z"
         style="fill:#ffffff;fill-opacity:1;fill-rule:nonzero;stroke:none;stroke-opacity:1"
         id="path38"
         inkscape:connector-curvature="0" /></g><g
       id="g40"
       transform="translate(320.38241,470.61676)"
       style="stroke:none;fill:#ffffff;fill-opacity:1"><path
         d="m 0,0 -2.759,0 0,17.56 2.759,0 0,-7.526 3.136,0 0,7.526 2.809,0 0,-17.56 -2.809,0 0,7.525 L 0,7.525 0,0 z"
         style="fill:#ffffff;fill-opacity:1;fill-rule:nonzero;stroke:none"
         id="path42"
         inkscape:connector-curvature="0" /></g><g
       id="g44"
       transform="translate(340.89902,474.65536)"
       style="stroke:none;fill:#ffffff;fill-opacity:1"><path
         d="m 0,0 c 0,-1.254 0.552,-1.731 1.43,-1.731 0.878,0 1.429,0.477 1.429,1.731 l 0,9.482 c 0,1.255 -0.551,1.731 -1.429,1.731 C 0.552,11.213 0,10.737 0,9.482 L 0,0 z m -2.76,9.307 c 0,2.81 1.481,4.415 4.19,4.415 2.709,0 4.189,-1.605 4.189,-4.415 l 0,-9.131 c 0,-2.81 -1.48,-4.415 -4.189,-4.415 -2.709,0 -4.19,1.605 -4.19,4.415 l 0,9.131 z"
         style="fill:#ffffff;fill-opacity:1;fill-rule:nonzero;stroke:none"
         id="path46"
         inkscape:connector-curvature="0" /></g><g
       id="g48"
       transform="translate(361.09041,485.66806)"
       style="stroke:none;fill:#ffffff;fill-opacity:1"><path
         d="m 0,0 0,-5.945 1.305,0 c 0.877,0 1.353,0.401 1.353,1.655 l 0,2.634 C 2.658,-0.401 2.182,0 1.305,0 L 0,0 z m 5.418,-1.831 0,-2.283 c 0,-2.809 -1.355,-4.34 -4.113,-4.34 l -1.305,0 0,-6.597 -2.76,0 0,17.559 4.065,0 c 2.758,0 4.113,-1.529 4.113,-4.339"
         style="fill:#ffffff;fill-opacity:1;fill-rule:nonzero;stroke:none"
         id="path50"
         inkscape:connector-curvature="0" /></g><g
       id="g52"
       transform="translate(380.70371,485.66806)"
       style="stroke:none;fill:#ffffff;fill-opacity:1"><path
         d="m 0,0 0,-5.945 1.305,0 c 0.879,0 1.355,0.401 1.355,1.655 l 0,2.634 C 2.66,-0.401 2.184,0 1.305,0 L 0,0 z m 5.419,-1.831 0,-2.283 c 0,-2.809 -1.355,-4.34 -4.114,-4.34 l -1.305,0 0,-6.597 -2.759,0 0,17.559 4.064,0 c 2.759,0 4.114,-1.529 4.114,-4.339"
         style="fill:#ffffff;fill-opacity:1;fill-rule:nonzero;stroke:none"
         id="path54"
         inkscape:connector-curvature="0" /></g><g
       id="g56"
       transform="translate(400.31801,480.77646)"
       style="stroke:none;fill:#ffffff;fill-opacity:1"><path
         d="m 0,0 3.788,0 0,-2.509 -3.788,0 0,-5.142 4.767,0 0,-2.509 -7.526,0 0,17.56 7.526,0 0,-2.508 L 0,4.892 0,0 z"
         style="fill:#ffffff;fill-opacity:1;fill-rule:nonzero;stroke:none"
         id="path58"
         inkscape:connector-curvature="0" /></g><g
       id="g60"
       transform="translate(419.58071,485.66806)"
       style="stroke:none;fill:#ffffff;fill-opacity:1"><path
         d="m 0,0 0,-5.394 1.078,0 c 1.029,0 1.656,0.452 1.656,1.857 l 0,1.731 C 2.734,-0.552 2.309,0 1.33,0 L 0,0 z m 3.01,-15.051 c -0.151,0.451 -0.25,0.727 -0.25,2.157 l 0,2.76 c 0,1.63 -0.553,2.232 -1.807,2.232 l -0.953,0 0,-7.149 -2.76,0 0,17.559 4.164,0 c 2.861,0 4.09,-1.329 4.09,-4.038 l 0,-1.38 c 0,-1.806 -0.577,-2.985 -1.806,-3.562 1.379,-0.577 1.832,-1.906 1.832,-3.738 l 0,-2.709 c 0,-0.853 0.024,-1.48 0.3,-2.132 l -2.81,0 z"
         style="fill:#ffffff;fill-opacity:1;fill-rule:nonzero;stroke:none"
         id="path62"
         inkscape:connector-curvature="0" /></g><g
       id="g64"
       transform="translate(276.15391,469.70326)"
       style="stroke:none;fill:#ffffff;fill-opacity:1"><path
         d="m 0,0 -0.001,0 0,0 -0.001,-0.001 0,0 -0.001,0 c 0,-0.242 0.024,-0.478 0.071,-0.706 0.047,-0.228 0.116,-0.448 0.204,-0.657 0.088,-0.209 0.197,-0.408 0.323,-0.594 0.125,-0.187 0.268,-0.36 0.427,-0.519 0.158,-0.158 0.332,-0.301 0.518,-0.427 0.186,-0.126 0.385,-0.234 0.594,-0.323 0.209,-0.088 0.429,-0.157 0.657,-0.204 0.228,-0.047 0.463,-0.071 0.705,-0.071 0.242,0 0.478,0.024 0.706,0.071 0.228,0.047 0.447,0.116 0.657,0.204 0.209,0.089 0.408,0.197 0.594,0.323 0.186,0.126 0.36,0.269 0.518,0.427 0.158,0.159 0.302,0.332 0.427,0.519 0.126,0.186 0.235,0.385 0.323,0.594 0.089,0.209 0.157,0.429 0.204,0.657 0.047,0.228 0.071,0.464 0.071,0.706 l 0,0 0,0.001 0,0 0,0 0,0.001 L 0,0 z"
         style="fill:#ffffff;fill-opacity:1;fill-rule:nonzero;stroke:none"
         id="path66"
         inkscape:connector-curvature="0" /></g><g
       id="g68"
       transform="translate(284.79501,469.70326)"
       style="stroke:none;fill:#ffffff;fill-opacity:1"><path
         d="m 0,0 0,0 -0.001,0 -0.001,-0.001 0,0 -0.001,0 c 0,-0.242 0.024,-0.478 0.071,-0.706 0.047,-0.228 0.116,-0.448 0.204,-0.657 0.088,-0.209 0.197,-0.408 0.323,-0.594 0.125,-0.187 0.269,-0.36 0.427,-0.519 0.158,-0.158 0.332,-0.301 0.518,-0.427 0.186,-0.126 0.385,-0.234 0.594,-0.323 0.209,-0.088 0.429,-0.157 0.657,-0.204 0.228,-0.047 0.463,-0.071 0.705,-0.071 0.242,0 0.478,0.024 0.706,0.071 0.228,0.047 0.447,0.116 0.657,0.204 0.209,0.089 0.408,0.197 0.594,0.323 0.187,0.126 0.36,0.269 0.518,0.427 0.158,0.159 0.302,0.332 0.428,0.519 0.125,0.186 0.234,0.385 0.322,0.594 0.089,0.209 0.157,0.429 0.204,0.657 0.047,0.228 0.072,0.464 0.072,0.706 l 0,0 0,0.001 0,0 0,0 0,0.001 L 0,0 z"
         style="fill:#ffffff;fill-opacity:1;fill-rule:nonzero;stroke:none"
         id="path70"
         inkscape:connector-curvature="0" /></g><g
       id="g72"
       transform="translate(291.54651,473.23256)"
       style="stroke:none;fill:#ffffff;fill-opacity:1"><path
         d="m 0,0 c 0,-0.182 -0.147,-0.33 -0.33,-0.33 l -14.491,0 c -0.182,0 -0.33,0.148 -0.33,0.33 0,0.182 0.148,0.33 0.33,0.33 l 14.491,0 C -0.147,0.33 0,0.182 0,0"
         style="fill:#ffffff;fill-opacity:1;fill-rule:nonzero;stroke:none"
         id="path74"
         inkscape:connector-curvature="0" /></g><g
       id="g76"
       transform="translate(291.54651,471.27986)"
       style="stroke:none;fill:#ffffff;fill-opacity:1"><path
         d="m 0,0 c 0,-0.182 -0.147,-0.33 -0.33,-0.33 l -14.491,0 c -0.182,0 -0.33,0.148 -0.33,0.33 0,0.182 0.148,0.329 0.33,0.329 l 14.491,0 C -0.147,0.329 0,0.182 0,0"
         style="fill:#ffffff;fill-opacity:1;fill-rule:nonzero;stroke:none"
         id="path78"
         inkscape:connector-curvature="0" /></g><g
       id="g84"
       transform="translate(270.85801,491.70026)"
       style="stroke:none;fill:#ffffff;fill-opacity:1"><path
         d="m 0,0 c 0,-1.657 -1.344,-3.001 -3.001,-3.001 -1.658,0 -3.001,1.344 -3.001,3.001 0,1.658 1.343,3.001 3.001,3.001 C -1.344,3.001 0,1.658 0,0"
         style="fill:#ffffff;fill-opacity:1;fill-rule:nonzero;stroke:none"
         id="path86"
         inkscape:connector-curvature="0" /></g><g
       id="g88"
       transform="translate(265.92301,473.70906)"
       style="stroke:none;fill:#ffffff;fill-opacity:1"><path
         d="M 0,0 C 1.435,-0.829 1.927,-2.664 1.098,-4.099 0.27,-5.534 -1.565,-6.025 -3,-5.197 -4.436,-4.368 -4.927,-2.533 -4.099,-1.098 -3.27,0.337 -1.435,0.829 0,0"
         style="fill:#ffffff;fill-opacity:1;fill-rule:nonzero;stroke:none"
         id="path90"
         inkscape:connector-curvature="0" /></g><g
       id="g92"
       transform="translate(279.03672,460.44056)"
       style="stroke:none;fill:#ffffff;fill-opacity:1"><path
         d="M 0,0 C 1.435,0.828 3.27,0.336 4.099,-1.099 4.927,-2.534 4.436,-4.369 3,-5.197 1.565,-6.026 -0.27,-5.534 -1.098,-4.099 -1.927,-2.664 -1.435,-0.829 0,0"
         style="fill:#ffffff;fill-opacity:1;fill-rule:nonzero;stroke:none"
         id="path94"
         inkscape:connector-curvature="0" /></g><g
       id="g96"
       transform="translate(297.08411,465.16266)"
       style="stroke:none;fill:#ffffff;fill-opacity:1"><path
         d="M 0,0 C 0,1.657 1.344,3.001 3.001,3.001 4.659,3.001 6.002,1.657 6.002,0 6.002,-1.657 4.659,-3.001 3.001,-3.001 1.344,-3.001 0,-1.657 0,0"
         style="fill:#ffffff;fill-opacity:1;fill-rule:nonzero;stroke:none"
         id="path98"
         inkscape:connector-curvature="0" /></g><g
       id="g100"
       transform="translate(302.01922,483.15396)"
       style="stroke:none;fill:#ffffff;fill-opacity:1"><path
         d="M 0,0 C -1.435,0.829 -1.927,2.664 -1.098,4.099 -0.27,5.534 1.565,6.025 3,5.197 4.436,4.369 4.927,2.533 4.099,1.098 3.27,-0.337 1.435,-0.829 0,0"
         style="fill:#ffffff;fill-opacity:1;fill-rule:nonzero;stroke:none"
         id="path102"
         inkscape:connector-curvature="0" /></g><g
       id="g104"
       transform="translate(288.90541,496.42296)"
       style="stroke:none;fill:#ffffff;fill-opacity:1"><path
         d="M 0,0 C -1.435,-0.829 -3.27,-0.337 -4.099,1.098 -4.927,2.533 -4.436,4.368 -3,5.197 -1.565,6.025 0.27,5.534 1.098,4.099 1.927,2.664 1.435,0.829 0,0"
         style="fill:#ffffff;fill-opacity:1;fill-rule:nonzero;stroke:none"
         id="path106"
         inkscape:connector-curvature="0" /></g><g
       id="g108"
       transform="translate(288.73941,480.97176)"
       style="stroke:none;fill:#ffffff;fill-opacity:1"><path
         d="m 0,0 c -0.363,0 -0.659,0.295 -0.659,0.659 l 0,2.317 c 0,0.364 0.295,0.659 0.659,0.659 0.364,0 0.659,-0.295 0.659,-0.659 l 0,-2.317 C 0.659,0.295 0.364,0 0,0 m -4.768,-3.272 c -1.106,0 -2.003,0.897 -2.003,2.002 0,1.106 0.897,2.002 2.003,2.002 1.105,0 2.002,-0.896 2.002,-2.002 0,-1.105 -0.897,-2.002 -2.002,-2.002 M -9.537,0 c -0.364,0 -0.659,0.295 -0.659,0.659 l 0,2.317 c 0,0.364 0.295,0.659 0.659,0.659 0.364,0 0.659,-0.295 0.659,-0.659 l 0,-2.317 C -8.878,0.295 -9.173,0 -9.537,0 M 4.471,0.988 C 4.345,1.602 4.16,2.194 3.921,2.758 3.683,3.322 3.391,3.858 3.052,4.36 2.713,4.862 2.327,5.329 1.9,5.756 1.474,6.183 1.006,6.569 0.504,6.908 0.003,7.247 -0.533,7.539 -1.097,7.777 -1.662,8.016 -2.253,8.201 -2.868,8.327 -3.315,8.418 -3.774,8.478 -4.243,8.503 l 0,4.453 c 0,0.29 -0.235,0.525 -0.526,0.525 -0.29,0 -0.525,-0.235 -0.525,-0.525 l 0,-4.453 C -5.762,8.478 -6.221,8.418 -6.669,8.327 -7.283,8.201 -7.875,8.016 -8.439,7.777 -9.003,7.539 -9.54,7.247 -10.042,6.908 -10.543,6.569 -11.01,6.183 -11.437,5.756 -11.864,5.329 -12.25,4.862 -12.589,4.36 -12.928,3.858 -13.22,3.322 -13.458,2.758 c -0.239,-0.564 -0.424,-1.156 -0.55,-1.77 -0.125,-0.614 -0.191,-1.25 -0.191,-1.901 0,-0.651 0.066,-1.286 0.191,-1.9 0.126,-0.614 0.311,-1.207 0.55,-1.77 0.238,-0.564 0.53,-1.101 0.869,-1.602 l 15.641,0 c 0.339,0.501 0.631,1.038 0.869,1.602 0.239,0.563 0.424,1.156 0.55,1.77 0.126,0.614 0.192,1.249 0.192,1.9 0,0.651 -0.066,1.287 -0.192,1.901"
         style="fill:#ffffff;fill-opacity:1;fill-rule:nonzero;stroke:none"
         id="path110"
         inkscape:connector-curvature="0" /></g></g></svg>