<?xml version="1.0" encoding="UTF-8" standalone="no"?>
<!-- Created with Inkscape (http://www.inkscape.org/) -->

<svg
   xmlns:dc="http://purl.org/dc/elements/1.1/"
   xmlns:cc="http://creativecommons.org/ns#"
   xmlns:rdf="http://www.w3.org/1999/02/22-rdf-syntax-ns#"
   xmlns:svg="http://www.w3.org/2000/svg"
   xmlns="http://www.w3.org/2000/svg"
   xmlns:sodipodi="http://sodipodi.sourceforge.net/DTD/sodipodi-0.dtd"
   xmlns:inkscape="http://www.inkscape.org/namespaces/inkscape"
   width="229.45312"
   height="37.53907"
   id="svg3829"
   version="1.1"
   inkscape:version="0.48.4 r9939"
   sodipodi:docname="title.svg">
  <defs
     id="defs3831" />
  <sodipodi:namedview
     id="base"
     pagecolor="#ffffff"
     bordercolor="#666666"
     borderopacity="1.0"
     inkscape:pageopacity="0.0"
     inkscape:pageshadow="2"
     inkscape:zoom="2.8"
     inkscape:cx="84.661487"
     inkscape:cy="14.344059"
     inkscape:document-units="px"
     inkscape:current-layer="layer1"
     showgrid="false"
     inkscape:window-width="1825"
     inkscape:window-height="972"
     inkscape:window-x="77"
     inkscape:window-y="48"
     inkscape:window-maximized="0"
     fit-margin-top="0"
     fit-margin-left="0"
     fit-margin-right="0"
     fit-margin-bottom="0" />
  <metadata
     id="metadata3834">
    <rdf:RDF>
      <cc:Work
         rdf:about="">
        <dc:format>image/svg+xml</dc:format>
        <dc:type
           rdf:resource="http://purl.org/dc/dcmitype/StillImage" />
        <dc:title></dc:title>
      </cc:Work>
    </rdf:RDF>
  </metadata>
  <g
     inkscape:label="Layer 1"
     inkscape:groupmode="layer"
     id="layer1"
     transform="translate(-255.93192,-528.79913)">
    <g
       style="font-size:40px;font-style:normal;font-variant:normal;font-weight:normal;font-stretch:normal;line-height:125%;letter-spacing:0px;word-spacing:0px;fill:#19a3ff;fill-opacity:1;stroke:none;font-family:Verdana;-inkscape-font-specification:Verdana"
       id="text3837">
      <path
         d="m 267.55301,532.60773 -4.14063,0 0,-3.8086 4.14063,0 0,3.8086 m -0.23438,25.99609 c -10e-6,2.55208 -0.65105,4.47916 -1.95312,5.78125 -1.30209,1.30208 -3.04688,1.95312 -5.23438,1.95313 -0.52083,-10e-6 -1.21094,-0.0521 -2.07031,-0.15625 -0.84635,-0.10418 -1.55599,-0.23439 -2.1289,-0.39063 l 0,-3.49609 0.19531,0 c 0.36458,0.14322 0.85286,0.30598 1.46484,0.48828 0.625,0.18229 1.23047,0.27343 1.81641,0.27344 0.93749,-10e-6 1.6927,-0.13022 2.26562,-0.39063 0.57291,-0.26042 1.0026,-0.65104 1.28907,-1.17187 0.28645,-0.52084 0.46874,-1.15235 0.54687,-1.89454 0.0911,-0.72916 0.13671,-1.62109 0.13672,-2.67578 l 0,-17.57812 -4.55078,0 0,-3.08594 8.22265,0 0,22.34375"
         style="fill:#19a3ff;fill-opacity:1"
         id="path5055"
         inkscape:connector-curvature="0" />
      <path
         d="m 292.59207,558.07648 -3.67187,0 0,-2.42188 c -1.237,0.97657 -2.42189,1.72526 -3.55469,2.2461 -1.13283,0.52083 -2.38283,0.78125 -3.75,0.78125 -2.29168,0 -4.07553,-0.69662 -5.35156,-2.08985 -1.27605,-1.40625 -1.91407,-3.46353 -1.91407,-6.17187 l 0,-14.16016 3.67188,0 0,12.42188 c -10e-6,1.10677 0.0521,2.05729 0.15625,2.85156 0.10416,0.78125 0.32551,1.45183 0.66406,2.01172 0.35156,0.57292 0.80728,0.98958 1.36719,1.25 0.55988,0.26042 1.37369,0.39062 2.44141,0.39062 0.9505,0 1.98566,-0.24739 3.10546,-0.74219 1.1328,-0.49478 2.18749,-1.12629 3.16407,-1.89453 l 0,-16.28906 3.67187,0 0,21.81641"
         style="fill:#19a3ff;fill-opacity:1"
         id="path5057"
         inkscape:connector-curvature="0" />
      <path
         d="m 319.01785,546.9046 c -2e-5,1.77084 -0.25393,3.39194 -0.76172,4.86328 -0.50783,1.45834 -1.22398,2.69532 -2.14843,3.71094 -0.8594,0.96354 -1.87502,1.71224 -3.04688,2.24609 -1.15887,0.52084 -2.38934,0.78125 -3.6914,0.78125 -1.13283,0 -2.16147,-0.12369 -3.08594,-0.37109 -0.91147,-0.24739 -1.84246,-0.63151 -2.79297,-1.15234 l 0,9.14062 -3.67188,0 0,-29.86328 3.67188,0 0,2.28516 c 0.97655,-0.8203 2.0703,-1.50389 3.28125,-2.05078 1.22395,-0.55988 2.52603,-0.83983 3.90625,-0.83985 2.63019,2e-5 4.67446,0.99612 6.13281,2.98828 1.47133,1.97919 2.20701,4.73309 2.20703,8.26172 m -3.78906,0.0977 c -2e-5,-2.6302 -0.44924,-4.59634 -1.34766,-5.89844 -0.89845,-1.30206 -2.27866,-1.95311 -4.14062,-1.95312 -1.0547,10e-6 -2.1159,0.22788 -3.18359,0.68359 -1.06772,0.45575 -2.08986,1.0547 -3.06641,1.79687 l 0,12.36329 c 1.04166,0.46875 1.93358,0.78776 2.67578,0.95703 0.7552,0.16927 1.60806,0.25391 2.55859,0.2539 2.04426,10e-6 3.63931,-0.6901 4.78516,-2.07031 1.14582,-1.3802 1.71873,-3.42447 1.71875,-6.13281"
         style="fill:#19a3ff;fill-opacity:1"
         id="path5059"
         inkscape:connector-curvature="0" />
      <path
         d="m 328.68582,532.60773 -4.14062,0 0,-3.8086 4.14062,0 0,3.8086 m -0.23437,25.46875 -3.67188,0 0,-21.81641 3.67188,0 0,21.81641"
         style="fill:#19a3ff;fill-opacity:1"
         id="path5061"
         inkscape:connector-curvature="0" />
      <path
         d="m 346.92801,557.88116 c -0.69012,0.1823 -1.44533,0.33204 -2.26563,0.44922 -0.8073,0.11719 -1.52996,0.17578 -2.16796,0.17578 -2.22658,0 -3.91928,-0.59895 -5.07813,-1.79687 -1.15886,-1.19791 -1.73828,-3.11849 -1.73828,-5.76172 l 0,-11.60156 -2.48047,0 0,-3.08594 2.48047,0 0,-6.26953 3.67187,0 0,6.26953 7.57813,0 0,3.08594 -7.57813,0 0,9.9414 c 0,1.14585 0.026,2.04428 0.0781,2.69532 0.0521,0.63802 0.23437,1.23698 0.54687,1.79687 0.28645,0.52084 0.67708,0.90495 1.17188,1.15235 0.5078,0.23437 1.27603,0.35156 2.30469,0.35156 0.59894,0 1.22394,-0.0846 1.875,-0.25391 0.65102,-0.18229 1.11977,-0.33203 1.40625,-0.44922 l 0.19531,0 0,3.30078"
         style="fill:#19a3ff;fill-opacity:1"
         id="path5063"
         inkscape:connector-curvature="0" />
      <path
         d="m 369.64285,547.54913 -16.07422,0 c 0,1.34116 0.20182,2.51303 0.60547,3.51563 0.40364,0.98959 0.95703,1.80339 1.66016,2.4414 0.67707,0.62501 1.47785,1.09376 2.40234,1.40625 0.93749,0.31251 1.96614,0.46876 3.08594,0.46875 1.48436,10e-6 2.97524,-0.29296 4.47266,-0.8789 1.51039,-0.59896 2.58461,-1.18489 3.22265,-1.75781 l 0.19532,0 0,4.0039 c -1.237,0.52084 -2.50002,0.95703 -3.78907,1.3086 -1.28908,0.35156 -2.64324,0.52734 -4.0625,0.52734 -3.6198,0 -6.44532,-0.97656 -8.47656,-2.92969 -2.03125,-1.96614 -3.04688,-4.75259 -3.04687,-8.35937 -10e-6,-3.5677 0.97004,-6.39973 2.91015,-8.4961 1.95312,-2.09633 4.51822,-3.14451 7.69531,-3.14453 2.9427,2e-5 5.20832,0.8594 6.79688,2.57813 1.60154,1.71877 2.40232,4.16017 2.40234,7.32422 l 0,1.99218 m -3.57422,-2.8125 c -0.013,-1.92706 -0.50132,-3.41795 -1.46484,-4.47265 -0.95054,-1.05467 -2.40236,-1.58201 -4.35547,-1.58203 -1.96615,2e-5 -3.53516,0.57944 -4.70703,1.73828 -1.15886,1.15887 -1.81641,2.59767 -1.97266,4.3164 l 12.5,0"
         style="fill:#19a3ff;fill-opacity:1"
         id="path5065"
         inkscape:connector-curvature="0" />
      <path
         d="m 388.82254,540.26398 -0.19531,0 c -0.54689,-0.13019 -1.08075,-0.22134 -1.60156,-0.27344 -0.50783,-0.0651 -1.1133,-0.0976 -1.81641,-0.0977 -1.13283,2e-5 -2.22657,0.25393 -3.28125,0.76172 -1.0547,0.49481 -2.07032,1.13934 -3.04688,1.9336 l 0,15.48828 -3.67187,0 0,-21.81641 3.67187,0 0,3.22266 c 1.45833,-1.17186 2.74088,-1.99868 3.84766,-2.48047 1.11978,-0.49477 2.2591,-0.74217 3.41797,-0.74219 0.638,2e-5 1.10024,0.0195 1.38672,0.0586 0.28644,0.0261 0.71613,0.0847 1.28906,0.17579 l 0,3.76953"
         style="fill:#19a3ff;fill-opacity:1"
         id="path5067"
         inkscape:connector-curvature="0" />
      <path
         d="m 417.70926,557.88116 c -0.69012,0.1823 -1.44533,0.33204 -2.26563,0.44922 -0.8073,0.11719 -1.52996,0.17578 -2.16796,0.17578 -2.22658,0 -3.91928,-0.59895 -5.07813,-1.79687 -1.15886,-1.19791 -1.73828,-3.11849 -1.73828,-5.76172 l 0,-11.60156 -2.48047,0 0,-3.08594 2.48047,0 0,-6.26953 3.67187,0 0,6.26953 7.57813,0 0,3.08594 -7.57813,0 0,9.9414 c 0,1.14585 0.026,2.04428 0.0781,2.69532 0.0521,0.63802 0.23437,1.23698 0.54687,1.79687 0.28645,0.52084 0.67708,0.90495 1.17188,1.15235 0.5078,0.23437 1.27603,0.35156 2.30469,0.35156 0.59894,0 1.22394,-0.0846 1.875,-0.25391 0.65102,-0.18229 1.11977,-0.33203 1.40625,-0.44922 l 0.19531,0 0,3.30078"
         style="fill:#19a3ff;fill-opacity:1"
         id="path5069"
         inkscape:connector-curvature="0" />
      <path
         d="m 440.75613,547.17804 c -2e-5,3.55469 -0.91148,6.36068 -2.73437,8.41797 -1.82294,2.05729 -4.26434,3.08594 -7.32422,3.08594 -3.08595,0 -5.54037,-1.02865 -7.36328,-3.08594 -1.8099,-2.05729 -2.71485,-4.86328 -2.71484,-8.41797 -10e-6,-3.55467 0.90494,-6.36066 2.71484,-8.41797 1.82291,-2.07029 4.27733,-3.10545 7.36328,-3.10547 3.05988,2e-5 5.50128,1.03518 7.32422,3.10547 1.82289,2.05731 2.73435,4.8633 2.73437,8.41797 m -3.78906,0 c -2e-5,-2.82551 -0.5534,-4.92186 -1.66015,-6.28906 -1.10679,-1.38019 -2.64325,-2.0703 -4.60938,-2.07032 -1.9922,2e-5 -3.54167,0.69013 -4.64844,2.07032 -1.09375,1.3672 -1.64063,3.46355 -1.64062,6.28906 -10e-6,2.73438 0.55338,4.8112 1.66015,6.23047 1.10677,1.40625 2.64973,2.10938 4.62891,2.10937 1.95311,10e-6 3.48306,-0.69661 4.58984,-2.08984 1.11978,-1.40624 1.67967,-3.48958 1.67969,-6.25"
         style="fill:#19a3ff;fill-opacity:1"
         id="path5071"
         inkscape:connector-curvature="0" />
      <path
         d="m 464.5452,558.07648 -3.67188,0 0,-2.42188 c -1.23699,0.97657 -2.42189,1.72526 -3.55469,2.2461 -1.13282,0.52083 -2.38282,0.78125 -3.75,0.78125 -2.29167,0 -4.07552,-0.69662 -5.35156,-2.08985 -1.27604,-1.40625 -1.91406,-3.46353 -1.91406,-6.17187 l 0,-14.16016 3.67187,0 0,12.42188 c 0,1.10677 0.0521,2.05729 0.15625,2.85156 0.10416,0.78125 0.32552,1.45183 0.66407,2.01172 0.35155,0.57292 0.80728,0.98958 1.36718,1.25 0.55989,0.26042 1.37369,0.39062 2.44141,0.39062 0.95051,0 1.98566,-0.24739 3.10547,-0.74219 1.1328,-0.49478 2.18748,-1.12629 3.16406,-1.89453 l 0,-16.28906 3.67188,0 0,21.81641"
         style="fill:#19a3ff;fill-opacity:1"
         id="path5073"
         inkscape:connector-curvature="0" />
      <path
         d="m 485.38504,540.26398 -0.19531,0 c -0.54689,-0.13019 -1.08075,-0.22134 -1.60156,-0.27344 -0.50783,-0.0651 -1.1133,-0.0976 -1.81641,-0.0977 -1.13283,2e-5 -2.22657,0.25393 -3.28125,0.76172 -1.0547,0.49481 -2.07032,1.13934 -3.04688,1.9336 l 0,15.48828 -3.67187,0 0,-21.81641 3.67187,0 0,3.22266 c 1.45833,-1.17186 2.74088,-1.99868 3.84766,-2.48047 1.11978,-0.49477 2.2591,-0.74217 3.41797,-0.74219 0.638,2e-5 1.10024,0.0195 1.38672,0.0586 0.28644,0.0261 0.71613,0.0847 1.28906,0.17579 l 0,3.76953"
         style="fill:#19a3ff;fill-opacity:1"
         id="path5075"
         inkscape:connector-curvature="0" />
    </g>
  </g>
</svg>
