<?xml version="1.0" encoding="UTF-8" standalone="no"?>
<!-- Created with Inkscape (http://www.inkscape.org/) -->

<svg
   xmlns:dc="http://purl.org/dc/elements/1.1/"
   xmlns:cc="http://creativecommons.org/ns#"
   xmlns:rdf="http://www.w3.org/1999/02/22-rdf-syntax-ns#"
   xmlns:svg="http://www.w3.org/2000/svg"
   xmlns="http://www.w3.org/2000/svg"
   xmlns:sodipodi="http://sodipodi.sourceforge.net/DTD/sodipodi-0.dtd"
   xmlns:inkscape="http://www.inkscape.org/namespaces/inkscape"
   width="242.70117"
   height="34.839844"
   id="svg3829"
   version="1.1"
   inkscape:version="0.48.2 r9819"
   sodipodi:docname="title.svg">
  <defs
     id="defs3831" />
  <sodipodi:namedview
     id="base"
     pagecolor="#ffffff"
     bordercolor="#666666"
     borderopacity="1.0"
     inkscape:pageopacity="0.0"
     inkscape:pageshadow="2"
     inkscape:zoom="1.4142136"
     inkscape:cx="306.02303"
     inkscape:cy="52.524073"
     inkscape:document-units="px"
     inkscape:current-layer="layer1"
     showgrid="false"
     inkscape:window-width="1440"
     inkscape:window-height="856"
     inkscape:window-x="23"
     inkscape:window-y="0"
     inkscape:window-maximized="0"
     fit-margin-top="0"
     fit-margin-left="0"
     fit-margin-right="0"
     fit-margin-bottom="0" />
  <metadata
     id="metadata3834">
    <rdf:RDF>
      <cc:Work
         rdf:about="">
        <dc:format>image/svg+xml</dc:format>
        <dc:type
           rdf:resource="http://purl.org/dc/dcmitype/StillImage" />
        <dc:title></dc:title>
      </cc:Work>
    </rdf:RDF>
  </metadata>
  <g
     inkscape:label="Layer 1"
     inkscape:groupmode="layer"
     id="layer1"
     transform="translate(-214.6652,-603.79293)">
    <path
       inkscape:connector-curvature="0"
       id="path3942"
       style="font-size:36px;font-style:normal;font-variant:normal;font-weight:normal;font-stretch:normal;text-align:start;line-height:125%;letter-spacing:0px;word-spacing:0px;writing-mode:lr-tb;text-anchor:start;fill:#0099cc;fill-opacity:1;stroke:none;font-family:Sans;-inkscape-font-specification:Sans"
       d="m 285.96269,609.86188 0,2.25159 c -0.68505,-0.34506 -1.39643,-0.60386 -2.13415,-0.77641 -0.73774,-0.17252 -1.50182,-0.25879 -2.29223,-0.25881 -1.20321,2e-5 -2.10781,0.18118 -2.7138,0.54349 -0.59721,0.36234 -0.89581,0.90583 -0.89581,1.63047 0,0.55212 0.21516,0.98778 0.64552,1.30696 0.43033,0.31057 1.29541,0.60819 2.59522,0.89287 l 0.82995,0.18116 c 1.72136,0.36233 2.94213,0.87562 3.6623,1.53988 0.72894,0.65564 1.09341,1.5744 1.09342,2.75626 -10e-6,1.34579 -0.54452,2.41119 -1.63354,3.19623 -1.08026,0.78504 -2.56889,1.17755 -4.4659,1.17755 -0.79043,0 -1.61598,-0.0776 -2.47667,-0.23292 -0.85191,-0.14665 -1.75211,-0.37095 -2.70062,-0.67288 l 0,-2.45864 c 0.89582,0.45722 1.77845,0.80229 2.64792,1.03521 0.86947,0.2243 1.73015,0.33645 2.58207,0.33645 1.14171,0 2.01996,-0.18979 2.63474,-0.56937 0.61477,-0.3882 0.92215,-0.93169 0.92217,-1.63047 -2e-5,-0.647 -0.22397,-1.14304 -0.67187,-1.48811 -0.43913,-0.34507 -1.4096,-0.67721 -2.91139,-0.9964 l -0.84312,-0.1941 c -1.50181,-0.31056 -2.58646,-0.78504 -3.25392,-1.42342 -0.66748,-0.64701 -1.00121,-1.53125 -1.00121,-2.65274 0,-1.36302 0.49182,-2.41549 1.47546,-3.15741 0.98364,-0.74189 2.38006,-1.11284 4.18926,-1.11285 0.8958,10e-6 1.73892,0.0647 2.52936,0.1941 0.79041,0.12941 1.51936,0.32351 2.18684,0.58231" />
    <path
       inkscape:connector-curvature="0"
       id="path3944"
       style="font-size:36px;font-style:normal;font-variant:normal;font-weight:normal;font-stretch:normal;text-align:start;line-height:125%;letter-spacing:0px;word-spacing:0px;writing-mode:lr-tb;text-anchor:start;fill:#0099cc;fill-opacity:1;stroke:none;font-family:Sans;-inkscape-font-specification:Sans"
       d="m 292.97113,621.75391 0,7.68647 -2.43715,0 0,-20.00553 2.43715,0 0,2.19983 c 0.50938,-0.86267 1.1505,-1.50104 1.92336,-1.91514 0.78163,-0.4227 1.71258,-0.63406 2.79284,-0.63407 1.79162,10e-6 3.24512,0.69878 4.36051,2.09631 1.12415,1.39755 1.68623,3.23505 1.68624,5.51252 -1e-5,2.27747 -0.56209,4.11498 -1.68624,5.51252 -1.11539,1.39754 -2.56889,2.0963 -4.36051,2.0963 -1.08026,0 -2.01121,-0.20704 -2.79284,-0.62113 -0.77286,-0.4227 -1.41398,-1.0654 -1.92336,-1.92808 m 8.24676,-5.05961 c -1e-5,-1.75124 -0.36887,-3.1229 -1.10659,-4.11499 -0.72896,-1.00069 -1.73455,-1.50104 -3.01679,-1.50106 -1.28226,2e-5 -2.29224,0.50037 -3.02997,1.50106 -0.72895,0.99209 -1.09342,2.36375 -1.09341,4.11499 -1e-5,1.75124 0.36446,3.12721 1.09341,4.12792 0.73773,0.99208 1.74771,1.48812 3.02997,1.48812 1.28224,0 2.28783,-0.49604 3.01679,-1.48812 0.73772,-1.00071 1.10658,-2.37668 1.10659,-4.12792" />
    <path
       inkscape:connector-curvature="0"
       id="path3946"
       style="font-size:36px;font-style:normal;font-variant:normal;font-weight:normal;font-stretch:normal;text-align:start;line-height:125%;letter-spacing:0px;word-spacing:0px;writing-mode:lr-tb;text-anchor:start;fill:#0099cc;fill-opacity:1;stroke:none;font-family:Sans;-inkscape-font-specification:Sans"
       d="m 314.45751,616.64254 c -1.9585,0 -3.31539,0.21998 -4.07069,0.65995 -0.7553,0.43996 -1.13294,1.19049 -1.13294,2.25159 0,0.84543 0.28104,1.51832 0.84312,2.01867 0.57086,0.49173 1.34372,0.73759 2.31858,0.73759 1.34372,0 2.41957,-0.46585 3.22757,-1.39754 0.81676,-0.94032 1.22515,-2.18689 1.22516,-3.73972 l 0,-0.53054 -2.4108,0 m 4.83477,-0.98346 0,8.26878 -2.42397,0 0,-2.19983 c -0.55331,0.87993 -1.24273,1.53126 -2.06828,1.95396 -0.82556,0.41409 -1.83555,0.62113 -3.02996,0.62113 -1.5106,0 -2.7138,-0.41408 -3.60961,-1.24225 -0.88703,-0.8368 -1.33055,-1.95397 -1.33055,-3.35151 0,-1.63045 0.55329,-2.85978 1.65989,-3.68795 1.11538,-0.82816 2.77527,-1.24225 4.97968,-1.24226 l 3.39883,0 0,-0.23292 c -1e-5,-1.0956 -0.36888,-1.94103 -1.1066,-2.53628 -0.72895,-0.60387 -1.75651,-0.9058 -3.08266,-0.90581 -0.84312,10e-6 -1.66428,0.0992 -2.46349,0.29762 -0.79921,0.19843 -1.56768,0.49605 -2.3054,0.89288 l 0,-2.19984 c 0.88703,-0.33643 1.74771,-0.58661 2.58205,-0.75053 0.83434,-0.17252 1.64672,-0.25879 2.43715,-0.2588 2.13414,10e-6 3.72816,0.5435 4.78207,1.63046 1.05389,1.08698 1.58083,2.7347 1.58085,4.94315" />
    <path
       inkscape:connector-curvature="0"
       id="path3948"
       style="font-size:36px;font-style:normal;font-variant:normal;font-weight:normal;font-stretch:normal;text-align:start;line-height:125%;letter-spacing:0px;word-spacing:0px;writing-mode:lr-tb;text-anchor:start;fill:#0099cc;fill-opacity:1;stroke:none;font-family:Sans;-inkscape-font-specification:Sans"
       d="m 334.91635,609.99128 0,2.22571 c -0.68505,-0.37094 -1.37447,-0.64699 -2.06828,-0.82817 -0.68504,-0.18978 -1.37886,-0.28467 -2.08145,-0.28468 -1.57208,10e-6 -2.79284,0.49173 -3.6623,1.47517 -0.86947,0.97485 -1.30421,2.34651 -1.3042,4.11499 -10e-6,1.7685 0.43473,3.14447 1.3042,4.12792 0.86946,0.97483 2.09022,1.46224 3.6623,1.46224 0.70259,0 1.39641,-0.0906 2.08145,-0.27174 0.69381,-0.18979 1.38323,-0.47016 2.06828,-0.84112 l 0,2.19983 c -0.67626,0.31057 -1.37886,0.54349 -2.1078,0.69877 -0.72017,0.15529 -1.48864,0.23292 -2.3054,0.23292 -2.22198,0 -3.98726,-0.68583 -5.29585,-2.05749 -1.3086,-1.37165 -1.96289,-3.22209 -1.96289,-5.55133 0,-2.36374 0.65868,-4.22281 1.97606,-5.57722 1.32615,-1.3544 3.13973,-2.0316 5.44076,-2.03161 0.74651,10e-6 1.47545,0.0777 2.18684,0.23292 0.71138,0.14666 1.4008,0.37096 2.06828,0.67289" />
    <path
       inkscape:connector-curvature="0"
       id="path3950"
       style="font-size:36px;font-style:normal;font-variant:normal;font-weight:normal;font-stretch:normal;text-align:start;line-height:125%;letter-spacing:0px;word-spacing:0px;writing-mode:lr-tb;text-anchor:start;fill:#0099cc;fill-opacity:1;stroke:none;font-family:Sans;-inkscape-font-specification:Sans"
       d="m 351.77875,616.08611 0,1.16462 -11.14499,0 c 0.10539,1.63909 0.60599,2.88997 1.50181,3.75265 0.90459,0.85405 2.16048,1.28108 3.76769,1.28108 0.93094,0 1.83114,-0.11215 2.70062,-0.33644 0.87824,-0.2243 1.7477,-0.56075 2.6084,-1.00934 l 0,2.25159 c -0.86948,0.36232 -1.7609,0.63838 -2.67427,0.82818 -0.91339,0.18978 -1.83994,0.28467 -2.77966,0.28467 -2.35372,0 -4.22,-0.67288 -5.59885,-2.01866 -1.37007,-1.34578 -2.0551,-3.16603 -2.0551,-5.46076 0,-2.37236 0.6499,-4.253 1.94972,-5.64192 1.30858,-1.39753 3.06947,-2.0963 5.28267,-2.09631 1.98483,10e-6 3.55251,0.62977 4.70303,1.88927 1.15927,1.25089 1.73892,2.95468 1.73893,5.11137 m -2.42397,-0.69877 c -0.0175,-1.30264 -0.39083,-2.34217 -1.11977,-3.11859 -0.72017,-0.7764 -1.67746,-1.1646 -2.87188,-1.16461 -1.35251,10e-6 -2.43714,0.37527 -3.25391,1.12579 -0.808,0.75054 -1.27347,1.80733 -1.39642,3.17035 l 8.64198,-0.013" />
    <path
       inkscape:connector-curvature="0"
       id="path3952"
       style="font-size:36px;font-style:normal;font-variant:normal;font-weight:normal;font-stretch:normal;text-align:start;line-height:125%;letter-spacing:0px;word-spacing:0px;writing-mode:lr-tb;text-anchor:start;fill:#0099cc;fill-opacity:1;stroke:none;font-family:Sans;-inkscape-font-specification:Sans"
       d="m 376.61127,615.1803 0,8.74756 -2.42396,0 0,-8.66992 c -2e-5,-1.37165 -0.27228,-2.39824 -0.81677,-3.07977 -0.54453,-0.6815 -1.3613,-1.02226 -2.45033,-1.02227 -1.3086,10e-6 -2.34054,0.40978 -3.09582,1.22931 -0.7553,0.81956 -1.13295,1.93672 -1.13295,3.35151 l 0,8.19114 -2.43715,0 0,-20.13493 2.43715,0 0,7.89351 c 0.57964,-0.87129 1.26028,-1.52261 2.04194,-1.95396 0.79041,-0.43133 1.6994,-0.647 2.72696,-0.64701 1.69501,10e-6 2.97726,0.51761 3.84673,1.55282 0.86946,1.0266 1.30419,2.5406 1.3042,4.54201" />
    <path
       inkscape:connector-curvature="0"
       id="path3954"
       style="font-size:36px;font-style:normal;font-variant:normal;font-weight:normal;font-stretch:normal;text-align:start;line-height:125%;letter-spacing:0px;word-spacing:0px;writing-mode:lr-tb;text-anchor:start;fill:#0099cc;fill-opacity:1;stroke:none;font-family:Sans;-inkscape-font-specification:Sans"
       d="m 387.1898,611.10414 c -1.29982,10e-6 -2.32737,0.50036 -3.08266,1.50106 -0.7553,0.99209 -1.13295,2.35512 -1.13294,4.0891 -10e-6,1.73398 0.37325,3.10133 1.11977,4.10203 0.75528,0.99209 1.78723,1.48813 3.09583,1.48813 1.29102,0 2.31418,-0.50036 3.06948,-1.50106 0.75529,-1.0007 1.13293,-2.36374 1.13295,-4.0891 -2e-5,-1.71673 -0.37766,-3.07544 -1.13295,-4.07616 -0.7553,-1.00933 -1.77846,-1.51399 -3.06948,-1.514 m 0,-2.01867 c 2.10779,10e-6 3.76329,0.6729 4.9665,2.01867 1.20319,1.34579 1.8048,3.20917 1.80481,5.59016 -1e-5,2.37237 -0.60162,4.23576 -1.80481,5.59016 -1.20321,1.34578 -2.85871,2.01866 -4.9665,2.01866 -2.11659,0 -3.77648,-0.67288 -4.97968,-2.01866 -1.19443,-1.3544 -1.79163,-3.21779 -1.79163,-5.59016 0,-2.38099 0.5972,-4.24437 1.79163,-5.59016 1.2032,-1.34577 2.86309,-2.01866 4.97968,-2.01867" />
    <path
       inkscape:connector-curvature="0"
       id="path3956"
       style="font-size:36px;font-style:normal;font-variant:normal;font-weight:normal;font-stretch:normal;text-align:start;line-height:125%;letter-spacing:0px;word-spacing:0px;writing-mode:lr-tb;text-anchor:start;fill:#0099cc;fill-opacity:1;stroke:none;font-family:Sans;-inkscape-font-specification:Sans"
       d="m 400.31085,621.75391 0,7.68647 -2.43714,0 0,-20.00553 2.43714,0 0,2.19983 c 0.50938,-0.86267 1.15051,-1.50104 1.92338,-1.91514 0.78163,-0.4227 1.71257,-0.63406 2.79283,-0.63407 1.79162,10e-6 3.24512,0.69878 4.36051,2.09631 1.12415,1.39755 1.68623,3.23505 1.68624,5.51252 -10e-6,2.27747 -0.56209,4.11498 -1.68624,5.51252 -1.11539,1.39754 -2.56889,2.0963 -4.36051,2.0963 -1.08026,0 -2.0112,-0.20704 -2.79283,-0.62113 -0.77287,-0.4227 -1.414,-1.0654 -1.92338,-1.92808 m 8.24678,-5.05961 c -2e-5,-1.75124 -0.36889,-3.1229 -1.1066,-4.11499 -0.72896,-1.00069 -1.73455,-1.50104 -3.01679,-1.50106 -1.28225,2e-5 -2.29224,0.50037 -3.02996,1.50106 -0.72896,0.99209 -1.09343,2.36375 -1.09343,4.11499 0,1.75124 0.36447,3.12721 1.09343,4.12792 0.73772,0.99208 1.74771,1.48812 3.02996,1.48812 1.28224,0 2.28783,-0.49604 3.01679,-1.48812 0.73771,-1.00071 1.10658,-2.37668 1.1066,-4.12792" />
    <path
       inkscape:connector-curvature="0"
       id="path3958"
       style="font-size:36px;font-style:normal;font-variant:normal;font-weight:normal;font-stretch:normal;text-align:start;line-height:125%;letter-spacing:0px;word-spacing:0px;writing-mode:lr-tb;text-anchor:start;fill:#0099cc;fill-opacity:1;stroke:none;font-family:Sans;-inkscape-font-specification:Sans"
       d="m 417.43673,621.75391 0,7.68647 -2.43714,0 0,-20.00553 2.43714,0 0,2.19983 c 0.50938,-0.86267 1.1505,-1.50104 1.92337,-1.91514 0.78164,-0.4227 1.71258,-0.63406 2.79283,-0.63407 1.79162,10e-6 3.24513,0.69878 4.36052,2.09631 1.12414,1.39755 1.68622,3.23505 1.68624,5.51252 -2e-5,2.27747 -0.5621,4.11498 -1.68624,5.51252 -1.11539,1.39754 -2.5689,2.0963 -4.36052,2.0963 -1.08025,0 -2.01119,-0.20704 -2.79283,-0.62113 -0.77287,-0.4227 -1.41399,-1.0654 -1.92337,-1.92808 m 8.24677,-5.05961 c -10e-6,-1.75124 -0.36887,-3.1229 -1.10659,-4.11499 -0.72896,-1.00069 -1.73456,-1.50104 -3.01679,-1.50106 -1.28225,2e-5 -2.29225,0.50037 -3.02996,1.50106 -0.72895,0.99209 -1.09343,2.36375 -1.09343,4.11499 0,1.75124 0.36448,3.12721 1.09343,4.12792 0.73771,0.99208 1.74771,1.48812 3.02996,1.48812 1.28223,0 2.28783,-0.49604 3.01679,-1.48812 0.73772,-1.00071 1.10658,-2.37668 1.10659,-4.12792" />
    <path
       inkscape:connector-curvature="0"
       id="path3960"
       style="font-size:36px;font-style:normal;font-variant:normal;font-weight:normal;font-stretch:normal;text-align:start;line-height:125%;letter-spacing:0px;word-spacing:0px;writing-mode:lr-tb;text-anchor:start;fill:#0099cc;fill-opacity:1;stroke:none;font-family:Sans;-inkscape-font-specification:Sans"
       d="m 444.83813,616.08611 0,1.16462 -11.14499,0 c 0.10539,1.63909 0.60599,2.88997 1.50181,3.75265 0.90459,0.85405 2.16049,1.28108 3.76769,1.28108 0.93094,0 1.83114,-0.11215 2.70063,-0.33644 0.87823,-0.2243 1.7477,-0.56075 2.60839,-1.00934 l 0,2.25159 c -0.86948,0.36232 -1.7609,0.63838 -2.67426,0.82818 -0.9134,0.18978 -1.83995,0.28467 -2.77967,0.28467 -2.35371,0 -4.22,-0.67288 -5.59884,-2.01866 -1.37007,-1.34578 -2.05511,-3.16603 -2.05511,-5.46076 0,-2.37236 0.6499,-4.253 1.94972,-5.64192 1.30859,-1.39753 3.06948,-2.0963 5.28267,-2.09631 1.98483,10e-6 3.55251,0.62977 4.70303,1.88927 1.15928,1.25089 1.73892,2.95468 1.73893,5.11137 m -2.42396,-0.69877 c -0.0176,-1.30264 -0.39084,-2.34217 -1.11977,-3.11859 -0.72017,-0.7764 -1.67747,-1.1646 -2.87188,-1.16461 -1.35251,10e-6 -2.43715,0.37527 -3.25392,1.12579 -0.80799,0.75054 -1.27346,1.80733 -1.39641,3.17035 l 8.64198,-0.013" />
    <path
       inkscape:connector-curvature="0"
       id="path3962"
       style="font-size:36px;font-style:normal;font-variant:normal;font-weight:normal;font-stretch:normal;text-align:start;line-height:125%;letter-spacing:0px;word-spacing:0px;writing-mode:lr-tb;text-anchor:start;fill:#0099cc;fill-opacity:1;stroke:none;font-family:Sans;-inkscape-font-specification:Sans"
       d="m 457.36638,611.66056 c -0.27227,-0.15526 -0.57088,-0.26742 -0.89582,-0.33644 -0.31618,-0.0776 -0.66748,-0.11645 -1.0539,-0.11647 -1.37008,2e-5 -2.42398,0.43999 -3.1617,1.3199 -0.72895,0.87132 -1.09342,2.12652 -1.09342,3.7656 l 0,7.63471 -2.43715,0 0,-14.49301 2.43715,0 0,2.25159 c 0.50937,-0.87992 1.17246,-1.53124 1.98923,-1.95396 0.81677,-0.43133 1.80919,-0.647 2.97728,-0.64701 0.16685,10e-6 0.35128,0.013 0.55329,0.0388 0.20199,0.0173 0.42594,0.0475 0.67186,0.0906 l 0.0132,2.4457" />
  </g>
</svg>
