<?xml version="1.0" encoding="UTF-8" standalone="no"?>
<!-- Created with Inkscape (http://www.inkscape.org/) -->

<svg
   xmlns:dc="http://purl.org/dc/elements/1.1/"
   xmlns:cc="http://creativecommons.org/ns#"
   xmlns:rdf="http://www.w3.org/1999/02/22-rdf-syntax-ns#"
   xmlns:svg="http://www.w3.org/2000/svg"
   xmlns="http://www.w3.org/2000/svg"
   xmlns:sodipodi="http://sodipodi.sourceforge.net/DTD/sodipodi-0.dtd"
   xmlns:inkscape="http://www.inkscape.org/namespaces/inkscape"
   width="17.225727"
   height="19.806877"
   id="svg3067"
   version="1.1"
   inkscape:version="0.48.4 r9939"
   sodipodi:docname="angleicon.svg">
  <defs
     id="defs3069" />
  <sodipodi:namedview
     id="base"
     pagecolor="#000000"
     bordercolor="#666666"
     borderopacity="1.0"
     inkscape:pageopacity="1"
     inkscape:pageshadow="2"
     inkscape:zoom="22.4"
     inkscape:cx="7.8959247"
     inkscape:cy="4.8099376"
     inkscape:document-units="px"
     inkscape:current-layer="layer1"
     showgrid="false"
     inkscape:snap-bbox="true"
     inkscape:bbox-paths="true"
     inkscape:bbox-nodes="true"
     inkscape:snap-bbox-edge-midpoints="true"
     inkscape:snap-bbox-midpoints="true"
     inkscape:snap-nodes="true"
     inkscape:object-paths="true"
     inkscape:snap-intersection-paths="true"
     inkscape:object-nodes="true"
     inkscape:snap-smooth-nodes="true"
     inkscape:snap-midpoints="true"
     inkscape:snap-object-midpoints="true"
     inkscape:snap-center="true"
     inkscape:snap-global="false"
     fit-margin-top="0"
     fit-margin-left="0"
     fit-margin-right="0"
     fit-margin-bottom="0"
     inkscape:window-width="1798"
     inkscape:window-height="963"
     inkscape:window-x="78"
     inkscape:window-y="39"
     inkscape:window-maximized="0" />
  <metadata
     id="metadata3072">
    <rdf:RDF>
      <cc:Work
         rdf:about="">
        <dc:format>image/svg+xml</dc:format>
        <dc:type
           rdf:resource="http://purl.org/dc/dcmitype/StillImage" />
      </cc:Work>
    </rdf:RDF>
  </metadata>
  <g
     inkscape:label="Layer 1"
     inkscape:groupmode="layer"
     id="layer1"
     transform="translate(-334.74369,-457.91984)">
    <text
       xml:space="preserve"
       style="font-size:40px;font-style:normal;font-weight:normal;line-height:125%;letter-spacing:0px;word-spacing:0px;fill:#000000;fill-opacity:1;stroke:none;font-family:Sans"
       x="344.28571"
       y="558.07648"
       id="text3855"
       sodipodi:linespacing="125%"><tspan
         sodipodi:role="line"
         id="tspan3857"
         x="344.28571"
         y="558.07648" /></text>
    <flowRoot
       xml:space="preserve"
       id="flowRoot3863"
       style="font-size:40px;font-style:normal;font-weight:normal;line-height:125%;letter-spacing:0px;word-spacing:0px;fill:#000000;fill-opacity:1;stroke:none;font-family:Sans"><flowRegion
         id="flowRegion3865"><rect
           id="rect3867"
           width="121.42857"
           height="50"
           x="201.42857"
           y="203.79076" /></flowRegion><flowPara
         id="flowPara3869" /></flowRoot>    <g
       id="g3025">
      <g
         transform="matrix(1,0,0,1.0937504,0,-44.786768)"
         id="g3021">
        <path
           style="opacity:0.9;fill:none;stroke:#cccccc;stroke-width:0.51531029;stroke-linecap:round;stroke-linejoin:round;stroke-miterlimit:4;stroke-opacity:1;stroke-dasharray:none"
           d="m 351.71501,459.88622 -2.991,1.55347 c 0.0466,0.28479 0.0942,0.57034 0.1353,0.85831 0.0567,0.39698 0.10785,0.79642 0.15384,1.19886 0.046,0.40244 0.0869,0.80801 0.12201,1.21524 0.035,0.40724 0.0643,0.81696 0.0882,1.22832 0.024,0.41135 0.0422,0.82451 0.0548,1.23931 0.0126,0.41482 0.0195,0.83005 0.0206,1.24766 9.9e-4,0.4176 -0.003,0.83624 -0.0136,1.25598 -0.0106,0.41974 -0.0277,0.84187 -0.0501,1.26305 -0.0225,0.42119 -0.051,0.84197 -0.0856,1.26396 -0.0346,0.42198 -0.0745,0.8448 -0.12146,1.26691 -0.047,0.42212 -0.101,0.84436 -0.1604,1.26593 -0.0594,0.42158 -0.12421,0.84173 -0.19632,1.2621 l 2.68081,1.46076"
           id="path3853"
           inkscape:connector-curvature="0"
           sodipodi:nodetypes="ccssssssssssscc" />
        <path
           inkscape:connector-curvature="0"
           style="opacity:0.9;fill:none;stroke:#cccccc;stroke-width:0.51531029;stroke-linecap:round;stroke-linejoin:round;stroke-miterlimit:4;stroke-opacity:1;stroke-dasharray:none"
           d="m 348.67117,476.00532 c 0.0721,-0.42037 0.13691,-0.84052 0.19632,-1.2621 0.0594,-0.42157 0.11349,-0.84381 0.1604,-1.26593 0.0469,-0.42211 0.0868,-0.84493 0.12146,-1.26691 0.0346,-0.42199 0.0631,-0.84277 0.0856,-1.26396 0.0225,-0.42118 0.0396,-0.84331 0.0501,-1.26305 0.0105,-0.41974 0.0148,-0.83838 0.0136,-1.25598 -9.9e-4,-0.41761 -0.008,-0.83284 -0.0206,-1.24766 -0.0126,-0.4148 -0.0309,-0.82796 -0.0548,-1.23931 -0.0239,-0.41136 -0.0532,-0.82108 -0.0882,-1.22832 -0.035,-0.40723 -0.076,-0.8128 -0.12201,-1.21524 -0.046,-0.40244 -0.0972,-0.80188 -0.15384,-1.19886 -0.0411,-0.28797 -0.0886,-0.57352 -0.1353,-0.85831 l -13.71988,7.11857 13.66704,7.44706 z"
           id="path3845" />
      </g>
      <text
         sodipodi:linespacing="125%"
         id="text3871"
         y="469.83142"
         x="343.26334"
         style="font-size:8.47930431px;font-style:normal;font-weight:normal;line-height:125%;letter-spacing:0px;word-spacing:0px;opacity:0.9;fill:#cccccc;fill-opacity:1;stroke:#cccccc;stroke-width:0.21198261;stroke-opacity:1;font-family:Sans"
         xml:space="preserve"><tspan
           style="stroke-width:0.21198261"
           y="469.83142"
           x="343.26334"
           id="tspan3873"
           sodipodi:role="line">β</tspan></text>
    </g>
  </g>
</svg>
