<?xml version="1.0" encoding="UTF-8" standalone="no"?>
<!-- Created with Inkscape (http://www.inkscape.org/) -->

<svg
   xmlns:dc="http://purl.org/dc/elements/1.1/"
   xmlns:cc="http://creativecommons.org/ns#"
   xmlns:rdf="http://www.w3.org/1999/02/22-rdf-syntax-ns#"
   xmlns:svg="http://www.w3.org/2000/svg"
   xmlns="http://www.w3.org/2000/svg"
   xmlns:sodipodi="http://sodipodi.sourceforge.net/DTD/sodipodi-0.dtd"
   xmlns:inkscape="http://www.inkscape.org/namespaces/inkscape"
   width="197.51051"
   height="197.51051"
   id="svg2"
   version="1.1"
   inkscape:version="0.48.5 r10040"
   sodipodi:docname="finishicon.svg">
  <defs
     id="defs4" />
  <sodipodi:namedview
     id="base"
     pagecolor="#ffffff"
     bordercolor="#666666"
     borderopacity="1.0"
     inkscape:pageopacity="0.0"
     inkscape:pageshadow="2"
     inkscape:zoom="1.979899"
     inkscape:cx="136.79959"
     inkscape:cy="153.75549"
     inkscape:document-units="px"
     inkscape:current-layer="g6253"
     showgrid="false"
     inkscape:snap-bbox="true"
     inkscape:bbox-paths="true"
     inkscape:bbox-nodes="true"
     inkscape:snap-bbox-edge-midpoints="true"
     inkscape:snap-bbox-midpoints="true"
     inkscape:object-paths="true"
     inkscape:snap-intersection-paths="true"
     inkscape:object-nodes="true"
     inkscape:snap-smooth-nodes="true"
     inkscape:snap-object-midpoints="true"
     inkscape:snap-midpoints="true"
     inkscape:snap-center="true"
     inkscape:snap-page="true"
     fit-margin-top="0"
     fit-margin-left="0"
     fit-margin-right="0"
     fit-margin-bottom="0"
     inkscape:window-width="1376"
     inkscape:window-height="833"
     inkscape:window-x="62"
     inkscape:window-y="27"
     inkscape:window-maximized="0"
     inkscape:snap-global="false" />
  <metadata
     id="metadata7">
    <rdf:RDF>
      <cc:Work
         rdf:about="">
        <dc:format>image/svg+xml</dc:format>
        <dc:type
           rdf:resource="http://purl.org/dc/dcmitype/StillImage" />
        <dc:title />
      </cc:Work>
    </rdf:RDF>
  </metadata>
  <g
     inkscape:label="Layer 1"
     inkscape:groupmode="layer"
     id="layer1"
     transform="translate(-273.29199,-427.42584)">
    <g
       id="g6253">
      <g
         id="g2985">
        <rect
           style="fill:#cccccc;fill-opacity:1;stroke:#cccccc;stroke-width:20;stroke-linecap:round;stroke-linejoin:round;stroke-miterlimit:4;stroke-opacity:1;stroke-dasharray:none"
           id="rect3006"
           width="177.51051"
           height="177.51051"
           x="283.29199"
           y="437.42584"
           ry="35" />
        <path
           inkscape:connector-curvature="0"
           id="path6392-4"
           d="m 387.51893,613.79391 c -0.21515,-0.0581 -0.68697,-0.56189 -1.04849,-1.11944 -1.49215,-2.30123 -78.52521,-155.38789 -78.54522,-156.09175 -0.0435,-1.53167 1.61638,-2.73973 3.02739,-2.20327 0.89643,0.34082 1.09576,0.63562 3.09914,4.58349 0.96916,1.90982 1.81405,3.4724 1.87753,3.4724 0.0635,0 1.73895,-1.10869 3.72325,-2.46376 10.48699,-7.16152 21.55028,-13.34839 28.35656,-15.85772 5.16043,-1.90254 7.01618,-2.23987 12.37437,-2.24937 6.95691,-0.0123 9.44617,0.60185 21.44979,5.29241 7.8569,3.07018 10.97229,4.0155 14.58056,4.42425 5.90617,0.66906 12.38297,-1.48036 28.317,-9.3974 4.149,-2.06149 7.83508,-3.73953 8.21443,-3.73953 0.87807,0 1.77297,0.6255 2.09076,1.46136 0.15116,0.39758 0.45128,17.28234 0.76767,43.18971 0.43757,35.82996 0.46561,42.63771 0.17782,43.17614 -0.54248,1.01492 -3.38625,3.01117 -6.40258,4.49445 -7.74554,3.80886 -14.82133,4.06216 -24.92802,0.89238 -1.70704,-0.53538 -5.14524,-1.67408 -7.64043,-2.53045 -7.76198,-2.66395 -11.8737,-3.49596 -15.89838,-3.21704 -2.89266,0.20046 -4.54201,0.64416 -7.1038,1.911 -4.48158,2.21621 -12.44717,8.93285 -16.69608,14.07825 l -0.86836,1.05159 17.11579,33.92494 c 13.81804,27.38852 17.1159,34.11257 17.11636,34.89876 10e-4,1.58147 -1.41785,2.48862 -3.15706,2.0186 l 0,0 z m -30.85425,-78.15802 c 5.60446,-5.8436 11.90833,-10.65979 16.70786,-12.76488 1.05087,-0.46091 1.8833,-0.94825 1.84984,-1.08297 -0.0934,-0.37623 -8.4044,-13.97429 -8.78475,-14.37325 -0.2836,-0.29747 -0.59819,-0.16456 -2.05805,0.86946 -3.81092,2.69928 -8.8068,6.88112 -13.90002,11.63511 -2.24041,2.09119 -3.46516,3.06676 -3.72494,2.96707 -0.69752,-0.26766 -0.40942,-0.94023 1.065,-2.48626 l 1.45203,-1.52256 -1.6921,1.62185 -1.6921,1.62185 4.09128,8.03188 c 2.2502,4.41753 4.12246,8.03451 4.16056,8.03773 0.0381,0.003 1.17454,-1.14654 2.52539,-2.55503 l 0,0 z m 59.65597,-6.73231 c 0,-0.11101 -0.39774,-0.1554 -0.88388,-0.0986 -0.48614,0.0567 -0.88388,0.14757 -0.88388,0.20183 0,0.0542 0.39774,0.0986 0.88388,0.0986 0.48614,0 0.88388,-0.0908 0.88388,-0.20183 z m 6.37921,-0.56109 c 2.38489,-0.58875 5.06934,-1.74256 7.23515,-3.10977 l 1.6188,-1.02188 -0.17018,-11.99296 c -0.0936,-6.59612 -0.21426,-12.03704 -0.26815,-12.09092 -0.0539,-0.0539 -1.16033,0.6351 -2.45877,1.53107 -2.76136,1.90545 -6.70694,4.35664 -10.00008,6.21256 -2.183,1.23027 -2.33591,1.36917 -2.3349,2.12114 5e-4,0.44257 0.39785,4.72532 0.88281,9.51723 0.48495,4.79191 0.88222,8.92608 0.88281,9.18704 10e-4,0.4258 0.13708,0.45682 1.3269,0.30239 0.7292,-0.0947 2.20773,-0.38981 3.28561,-0.6559 z m -10.86176,0.0906 c -0.17362,-0.0701 -0.45772,-0.0701 -0.63134,0 -0.17362,0.0701 -0.0316,0.12738 0.31567,0.12738 0.34724,0 0.48929,-0.0573 0.31567,-0.12738 z m -1.14168,-0.23786 c -0.0839,-0.0839 -0.30173,-0.0929 -0.48403,-0.0199 -0.20146,0.0806 -0.14162,0.14046 0.15257,0.15257 0.26622,0.011 0.41538,-0.0487 0.33146,-0.13263 l 0,-1e-5 z m -1.01015,-0.25254 c -0.0839,-0.0839 -0.30173,-0.0929 -0.48403,-0.0199 -0.20146,0.0806 -0.14162,0.14046 0.15257,0.15258 0.26622,0.011 0.41537,-0.0487 0.33146,-0.13264 l 0,-10e-6 z m -1.1943,-0.27522 c -0.20834,-0.0745 -0.52086,-0.31449 -0.69448,-0.53341 -0.28668,-0.36147 -0.31567,-0.36074 -0.31567,0.008 0,0.42296 0.36357,0.66078 1.01015,0.66078 0.33672,0 0.33672,-0.0151 0,-0.13538 z m 7.74866,-0.37717 c -0.0806,-0.20146 -0.14046,-0.14162 -0.15258,0.15257 -0.011,0.26622 0.0487,0.41538 0.13264,0.33146 0.0839,-0.0839 0.0929,-0.30173 0.0199,-0.48403 l 10e-6,0 z m -10.77912,-0.68404 c 0,-0.31477 -4.95532,-16.94003 -5.07772,-17.0359 -0.0546,-0.0428 -2.59943,-1.39008 -5.65515,-2.994 -5.30147,-2.7827 -9.80101,-4.75094 -10.12357,-4.42839 -0.12375,0.12376 6.84643,20.19002 7.03409,20.25025 0.0325,0.0104 3.01372,1.00469 6.62502,2.2095 6.78817,2.26468 7.19733,2.37829 7.19733,1.99854 l 0,0 z m 10.52658,-1.84134 c -0.0806,-0.20146 -0.14046,-0.14162 -0.15257,0.15257 -0.011,0.26622 0.0487,0.41537 0.13263,0.33146 0.0839,-0.0839 0.0929,-0.30173 0.0199,-0.48403 l 1e-5,0 z m -0.2578,-2.54116 c -0.0701,-0.17363 -0.12738,-0.0316 -0.12738,0.31567 0,0.34724 0.0573,0.48929 0.12738,0.31567 0.0701,-0.17362 0.0701,-0.45773 0,-0.63134 z m -26.36328,-0.60761 c -0.17097,-0.0692 -0.5119,-0.0734 -0.75761,-0.009 -0.24571,0.064 -0.10582,0.12063 0.31087,0.12578 0.41668,0.005 0.61772,-0.0472 0.44674,-0.11642 l 0,1e-5 z m -11.43215,-0.26681 c -0.34724,-0.0611 -0.84008,-0.35817 -1.0952,-0.66009 -0.25511,-0.30192 -0.37948,-0.37848 -0.27636,-0.17014 0.38905,0.78596 0.69538,1.00914 1.33936,0.97576 l 0.66354,-0.0344 -0.63134,-0.11114 0,0 z m 9.52805,0.0274 c -0.0839,-0.0839 -0.30173,-0.0929 -0.48403,-0.0199 -0.20146,0.0806 -0.14162,0.14046 0.15258,0.15257 0.26621,0.011 0.41537,-0.0487 0.33145,-0.13263 l 0,-1e-5 z m 28.01484,-1.67833 c -0.0701,-0.17361 -0.12738,-0.0316 -0.12738,0.31568 0,0.34724 0.0573,0.48929 0.12738,0.31567 0.0701,-0.17362 0.0701,-0.45772 0,-0.63135 z m -39.31066,-0.1894 c -0.14867,-0.27779 -0.32713,-0.50508 -0.39657,-0.50508 -0.0695,0 -0.005,0.22729 0.14405,0.50508 0.14866,0.27779 0.32711,0.50508 0.39656,0.50508 0.0694,0 0.005,-0.22729 -0.14404,-0.50508 z m 28.70932,-1.81512 c -0.0806,-0.20146 -0.14046,-0.14162 -0.15257,0.15258 -0.011,0.26621 0.0487,0.41537 0.13264,0.33145 0.0839,-0.0839 0.0929,-0.30173 0.0199,-0.48403 l 1e-5,0 z m 10.35656,-0.38978 c -0.064,-0.24572 -0.12063,-0.10582 -0.12577,0.31086 -0.005,0.41669 0.0472,0.61773 0.11641,0.44675 0.0692,-0.17097 0.0734,-0.5119 0.009,-0.75761 l -1e-5,0 z m -63.67246,-0.38362 0.74173,-0.82075 -0.82074,0.74173 c -0.45141,0.40795 -0.82075,0.77729 -0.82075,0.82075 0,0.1951 0.20838,0.0233 0.89977,-0.74173 z m 22.58628,-0.69448 c -0.14867,-0.27779 -0.32713,-0.50507 -0.39658,-0.50507 -0.0695,0 -0.005,0.22728 0.14405,0.50507 0.14866,0.2778 0.32713,0.50508 0.39657,0.50508 0.0695,0 0.005,-0.22728 -0.14404,-0.50508 z m 40.83364,-1.44729 c -0.064,-0.24571 -0.12063,-0.10582 -0.12577,0.31087 -0.005,0.41669 0.0472,0.61773 0.11642,0.44675 0.0692,-0.17098 0.0734,-0.5119 0.009,-0.75762 l 0,0 z m -41.59126,0.1846 c -0.14866,-0.27779 -0.32713,-0.50507 -0.39657,-0.50507 -0.0695,0 -0.005,0.22728 0.14405,0.50507 0.14866,0.2778 0.32713,0.50508 0.39657,0.50508 0.0694,0 0.005,-0.22728 -0.14405,-0.50508 z m 30.22456,-1.56258 c -0.0806,-0.20145 -0.14047,-0.14161 -0.15258,0.15258 -0.011,0.26621 0.0487,0.41537 0.13264,0.33146 0.0839,-0.0839 0.0929,-0.30174 0.0199,-0.48404 l 10e-6,0 z m 11.11417,-1.1474 c -0.064,-0.24571 -0.12062,-0.10582 -0.12577,0.31087 -0.005,0.41669 0.0472,0.61772 0.11642,0.44675 0.0692,-0.17098 0.0734,-0.5119 0.009,-0.75762 l -2e-5,0 z m -11.29319,-1.37477 c 0.26206,-0.0844 0.20599,-0.16336 -0.18941,-0.26676 -0.45297,-0.11846 -0.56095,-0.0415 -0.55784,0.39768 0.002,0.31651 0.0816,0.42823 0.1894,0.26676 0.10205,-0.15279 0.35307,-0.33175 0.55784,-0.39768 l 0,0 z m 1.20081,0.1441 c -0.0839,-0.0839 -0.30174,-0.0929 -0.48404,-0.0199 -0.20145,0.0806 -0.14162,0.14046 0.15258,0.15258 0.26621,0.011 0.41537,-0.0487 0.33146,-0.13264 l 0,-1e-5 z m 9.81983,-0.78676 c -0.0826,-0.0826 -0.40694,-0.0157 -0.72078,0.14865 l -0.57063,0.29881 0.56821,-0.10922 c 0.31891,-0.0613 0.57696,0.0189 0.58815,0.1828 0.0124,0.18119 0.0703,0.16622 0.15257,-0.0394 0.0729,-0.1823 0.0651,-0.39902 -0.0175,-0.48161 l 10e-6,0 z m -54.41847,-0.51275 c 0.31412,-0.40054 0.30519,-0.40948 -0.0953,-0.0953 -0.24307,0.19062 -0.44195,0.3895 -0.44195,0.44194 0,0.20785 0.20738,0.0741 0.53728,-0.3466 z m 50.60168,0.054 c 0.41668,-0.0614 1.41105,-0.36654 2.2097,-0.67818 1.11615,-0.43554 1.44835,-0.6845 1.4359,-1.07608 -0.009,-0.2802 -0.43506,-4.62671 -0.947,-9.65893 l -0.93084,-9.14947 -1.29518,0.6005 c -4.40124,2.04059 -8.06156,2.59428 -11.94642,1.80711 -1.15179,-0.23339 -2.13752,-0.38098 -2.19052,-0.32799 -0.0861,0.0861 4.90623,17.12875 5.06747,17.29928 0.0363,0.0384 0.72061,0.29987 1.52069,0.58108 2.44365,0.85887 4.27612,1.01494 7.0762,0.60268 l 0,0 z m -71.79953,-2.30071 c -0.54697,-1.09082 -1.25745,-2.59726 -1.57885,-3.34764 l -0.58436,-1.36434 1.87857,-1.75792 c 1.71867,-1.6083 1.74213,-1.64264 0.27569,-0.40343 -0.88159,0.74497 -1.82886,1.53278 -2.10505,1.75068 -0.49221,0.38834 -0.46813,0.4645 1.21418,3.84006 0.94399,1.89412 1.75639,3.40381 1.80533,3.35487 0.0489,-0.0489 -0.35853,-0.98147 -0.9055,-2.07228 z m 60.32146,-2.24571 c -0.83254,-2.60638 -1.02358,-2.66372 -0.25289,-0.0759 0.28442,0.95505 0.45418,1.83832 0.37723,1.96282 -0.11405,0.18454 0.36562,0.54829 0.54654,0.41448 0.0286,-0.0211 -0.27332,-1.05677 -0.67088,-2.30141 l 0,0 z m 18.92793,1.28618 c 0,-0.0563 -0.45341,0.0881 -1.00758,0.3208 -0.55417,0.23276 -1.00874,0.51073 -1.01016,0.61772 -9.9e-4,0.107 0.452,-0.0374 1.00759,-0.3208 0.55559,-0.28344 1.01015,-0.56141 1.01015,-0.61772 z m -52.82078,-0.91923 c 0.0642,-0.20179 -0.0946,-0.13599 -0.36501,0.15132 -0.26321,0.27962 -0.70585,0.72787 -0.98363,0.99612 -0.27779,0.26823 -0.11354,0.20014 0.365,-0.15132 0.47855,-0.35147 0.92119,-0.79972 0.98364,-0.99612 l 0,0 z m 33.12281,1.16327 c 0,-0.0666 -0.45456,-0.35303 -1.01015,-0.63647 -0.55559,-0.28344 -1.01016,-0.45893 -1.01016,-0.38997 0,0.0689 0.42616,0.35034 0.94703,0.62531 1.07152,0.56568 1.07328,0.56634 1.07328,0.40113 l 0,0 z m 17.59765,-0.68382 c -0.0806,-0.20146 -0.14047,-0.14162 -0.15258,0.15257 -0.011,0.26622 0.0487,0.41538 0.13263,0.33146 0.0839,-0.0839 0.0929,-0.30173 0.0199,-0.48403 l 1e-5,0 z m -46.51326,-1.06545 c 0.13889,-0.13006 -0.14327,0.005 -0.62703,0.29894 -0.48377,0.29449 -0.92551,0.68331 -0.98166,0.86404 -0.0863,0.27779 0.5997,-0.21815 1.60869,-1.16298 l 0,0 z m 50.38135,0.46848 c 0,-0.0694 -0.34093,0.05 -0.75761,0.26551 -0.41668,0.21548 -0.75761,0.4486 -0.75761,0.51805 0,0.0695 0.34093,-0.05 0.75761,-0.26551 0.41669,-0.21548 0.75761,-0.4486 0.75761,-0.51805 z m 1.26269,-0.76241 c 0,-0.0694 -0.22728,-0.005 -0.50508,0.14404 -0.27779,0.14867 -0.50507,0.32713 -0.50507,0.39658 0,0.0695 0.22728,0.005 0.50507,-0.14404 0.27779,-0.14867 0.50508,-0.32713 0.50508,-0.39658 z m -45.62116,-2.3868 c 0.71539,-0.2545 1.16126,-0.47102 0.99081,-0.48117 -0.69824,-0.0416 -6.63489,2.52907 -6.63489,2.87299 0,0.0584 0.97726,-0.3517 2.17168,-0.91143 1.19442,-0.55972 2.757,-1.2259 3.4724,-1.48039 l 0,0 z m -5.79183,0.80377 c 3.57649,-2.05072 6.08313,-2.862 9.30225,-3.01066 1.49314,-0.069 2.71479,-0.17584 2.71479,-0.23752 0,-0.4515 -6.18107,-17.41171 -6.39492,-17.547 -0.15007,-0.0949 -1.12078,-0.25209 -2.15713,-0.3492 -2.32242,-0.21763 -5.19333,0.1651 -7.79858,1.03965 -2.17283,0.7294 -7.24547,3.18883 -8.28243,4.01568 l -0.66825,0.53284 4.46794,7.31581 c 5.95578,9.75201 5.9602,9.75877 6.29649,9.62972 0.16103,-0.0618 1.29496,-0.68699 2.51984,-1.38932 l 0,0 z m 53.05449,0.59522 c 0.50507,-0.41124 0.50507,-0.41124 0,-0.16328 -0.2778,0.13638 -0.73236,0.43303 -1.01016,0.65921 -0.50507,0.41124 -0.50507,0.41124 0,0.16328 0.2778,-0.13638 0.73236,-0.43303 1.01016,-0.65921 z m -7.02483,-0.17819 c -0.0806,-0.20146 -0.14046,-0.14162 -0.15257,0.15257 -0.011,0.26622 0.0487,0.41537 0.13264,0.33146 0.0839,-0.0839 0.0929,-0.30173 0.0199,-0.48403 l 10e-6,0 z m 9.99215,-1.67042 c 0.52086,-0.3422 0.94702,-0.67698 0.94702,-0.74395 0,-0.067 -0.31252,0.081 -0.69448,0.32881 -2.08033,1.34965 -2.58852,1.70632 -2.58852,1.8167 0,0.11735 0.27792,-0.0494 2.33598,-1.40156 z m -27.41728,0.40773 c -0.0806,-0.20146 -0.14046,-0.14162 -0.15257,0.15257 -0.011,0.26622 0.0487,0.41537 0.13263,0.33146 0.0839,-0.0839 0.0929,-0.30174 0.0199,-0.48403 l 10e-6,0 z m -15.8941,-0.60614 c -0.28892,-0.28891 -3.10848,-0.38048 -4.22892,-0.13734 -1.00451,0.21798 -0.91657,0.23275 0.75761,0.12731 1.04172,-0.0656 2.23496,-0.0165 2.65165,0.10922 0.75295,0.22711 1.10353,0.18469 0.81966,-0.0992 z m 33.06143,-0.92488 c -0.0701,-0.17362 -0.12738,-0.0316 -0.12738,0.31568 0,0.34724 0.0573,0.48929 0.12738,0.31567 0.0701,-0.17362 0.0701,-0.45773 0,-0.63135 z m -75.97803,-2.73906 c 4.56062,-3.80733 9.06547,-7.22655 12.22529,-9.27908 1.451,-0.94253 2.17301,-1.56402 2.11941,-1.82434 -0.0739,-0.35914 -9.00522,-15.12949 -9.82086,-16.24153 -0.30025,-0.40936 -0.43088,-0.4307 -0.95896,-0.15666 -2.99817,1.55585 -16.49542,10.75696 -17.01661,11.60026 -0.12639,0.20451 9.18401,19.20862 9.41059,19.20862 0.0437,0 1.86225,-1.48827 4.04114,-3.30727 z m 91.72068,-0.009 c 0,-0.11636 -0.79549,0.36884 -1.76776,1.07824 -0.97227,0.70939 -1.76777,1.33356 -1.76777,1.38705 0,0.0535 0.7955,-0.43171 1.76777,-1.07823 0.97227,-0.64652 1.76776,-1.27069 1.76776,-1.38706 z m -83.65325,-4.22201 c 1.14589,-0.86674 2.08344,-1.63371 2.08344,-1.70439 0,-0.18861 -6.75159,5.01 -8.08122,6.22241 -0.62503,0.56993 0,0.1411 1.38896,-0.95295 1.38896,-1.09405 3.46293,-2.69834 4.60882,-3.56507 l 0,0 z m 67.65806,4.44459 c -0.0701,-0.17362 -0.12737,-0.0316 -0.12737,0.31567 0,0.34724 0.0573,0.4893 0.12737,0.31568 0.0701,-0.17362 0.0701,-0.45773 0,-0.63135 z m -55.4731,-1.95717 c -0.14867,-0.27779 -0.32713,-0.50508 -0.39657,-0.50508 -0.0694,0 -0.005,0.22729 0.14404,0.50508 0.14866,0.27779 0.32713,0.50508 0.39657,0.50508 0.0695,0 0.005,-0.22729 -0.14404,-0.50508 z m 55.2274,-0.94702 c -0.0635,-0.24307 -0.1155,-0.0442 -0.1155,0.44194 0,0.48614 0.052,0.68501 0.1155,0.44195 0.0635,-0.24307 0.0635,-0.64082 0,-0.88389 z m -18.6894,0.14206 c -0.0806,-0.20146 -0.14045,-0.14162 -0.15257,0.15257 -0.011,0.26622 0.0487,0.41537 0.13264,0.33146 0.0839,-0.0839 0.0929,-0.30173 0.0199,-0.48403 l 1e-5,0 z m -37.80068,-1.21534 c -0.14867,-0.2778 -0.32714,-0.50508 -0.39658,-0.50508 -0.0694,0 -0.005,0.22728 0.14404,0.50508 0.14867,0.27779 0.32714,0.50507 0.39658,0.50507 0.0695,0 0.005,-0.22728 -0.14404,-0.50507 z m 72.66571,-4.73509 c -0.0486,-0.93755 -0.0883,-0.17047 -0.0883,1.70463 0,1.87509 0.0397,2.64218 0.0883,1.70463 0.0486,-0.93755 0.0486,-2.47172 0,-3.40926 z m -16.42403,2.90419 c -0.0602,-0.31252 -0.10944,-0.0568 -0.10944,0.5682 0,0.62504 0.0493,0.88073 0.10944,0.56822 0.0602,-0.31252 0.0602,-0.82391 0,-1.13642 z m -56.90378,0.75761 c -1.92165,-3.24689 -2.95353,-4.71679 -3.20685,-4.56811 -0.91604,0.53768 -3.95974,2.64365 -3.95974,2.7398 0,0.0624 0.87158,-0.45549 1.93683,-1.15089 1.06525,-0.69541 2.05466,-1.2251 2.19869,-1.17709 0.14402,0.048 0.87485,1.07384 1.62405,2.27962 0.7492,1.20579 1.41431,2.19234 1.47801,2.19234 0.0637,0 0.0318,-0.14205 -0.071,-0.31567 l 0,0 z m 37.40317,-1.29952 c -0.26047,-0.89601 -0.607,-1.52134 -0.94255,-1.70093 l -0.53064,-0.28399 0.51265,0.65173 c 0.28195,0.35845 0.65824,1.17174 0.83619,1.8073 0.17794,0.63556 0.3714,1.1077 0.4299,1.0492 0.0585,-0.0585 -0.079,-0.74399 -0.30555,-1.52331 z m 19.28259,-1.80802 c -0.0769,-1.24695 -0.0163,-1.45921 0.54487,-1.90924 l 0.63135,-0.50633 -0.8452,0.41314 c -0.6769,0.33087 -0.81588,0.52247 -0.69793,0.96222 0.081,0.30199 0.14883,0.97524 0.15072,1.4961 0.002,0.52086 0.0708,0.94702 0.15305,0.94702 0.0823,0 0.1107,-0.63131 0.0631,-1.40291 z m -10.62326,0.20919 c -0.51719,-0.0543 -1.42633,-0.055 -2.02031,-0.002 -0.59398,0.0533 -0.17082,0.0978 0.94034,0.0987 1.11117,0.001 1.59715,-0.0427 1.07997,-0.097 l 0,10e-5 z m -3.80001,-0.22155 c -0.0839,-0.0839 -0.30173,-0.0929 -0.48403,-0.0199 -0.20146,0.0806 -0.14162,0.14046 0.15257,0.15257 0.26622,0.011 0.41537,-0.0487 0.33146,-0.13264 l 0,-10e-6 z m 5.68737,-0.0147 c -0.17362,-0.0701 -0.45773,-0.0701 -0.63135,0 -0.17362,0.0701 -0.0316,0.12738 0.31567,0.12738 0.34724,0 0.4893,-0.0573 0.31568,-0.12738 z m 1.13116,-0.23786 c -0.0839,-0.0839 -0.30173,-0.0929 -0.48403,-0.0199 -0.20146,0.0806 -0.14162,0.14045 0.15257,0.15257 0.26622,0.011 0.41537,-0.0487 0.33146,-0.13264 l 0,-10e-6 z m -10.10155,-0.66818 c -0.22962,-0.17362 -0.53806,-0.59978 -0.68542,-0.94702 -0.25556,-0.6022 -0.26091,-0.59649 -0.11583,0.12374 0.14726,0.73109 0.48953,1.12709 0.98107,1.13509 0.13072,0.002 0.0498,-0.13819 -0.17982,-0.31181 l 0,0 z m 13.70548,-0.69448 c 0.20835,-0.13464 0.26516,-0.2448 0.12627,-0.2448 -0.1389,0 -0.42301,0.11016 -0.63135,0.2448 -0.20834,0.13464 -0.26516,0.2448 -0.12627,0.2448 0.1389,0 0.423,-0.11016 0.63135,-0.2448 z m -18.95704,-8.92317 c -1.41965,-4.79364 -2.65011,-8.81334 -2.73435,-8.93268 -0.24802,-0.35138 -11.79166,-5.13488 -14.60358,-6.0515 -2.50151,-0.81543 -3.35352,-0.99342 -3.35352,-0.70055 0,0.12264 5.49836,15.70962 5.93215,16.8167 0.0902,0.23025 0.69151,0.54844 1.3455,0.712 1.86319,0.466 5.56913,2.04128 10.9051,4.63544 2.70847,1.31677 4.9617,2.3586 5.00719,2.3152 0.0455,-0.0434 -1.07884,-4.00098 -2.49849,-8.79461 z m 20.70487,7.44406 c -0.0117,-0.39182 -0.0779,-0.51103 -0.1604,-0.28866 -0.0772,0.20835 -0.24137,0.57513 -0.36471,0.81507 -0.17315,0.33684 -0.1366,0.40262 0.16039,0.28865 0.21866,-0.0839 0.37605,-0.43564 0.36472,-0.81506 z m -33.03173,0.046 c -0.29771,-0.51195 -0.3696,-0.34809 -0.1259,0.28697 0.0866,0.22569 0.21066,0.35715 0.27568,0.29213 0.065,-0.065 -0.002,-0.32562 -0.14978,-0.5791 z m 38.10243,-0.22132 c 0,-0.0694 -0.34093,0.05 -0.75762,0.26551 -0.41669,0.21548 -0.75761,0.4486 -0.75761,0.51805 0,0.0695 0.34092,-0.05 0.75761,-0.26551 0.41669,-0.21548 0.75762,-0.4486 0.75762,-0.51805 z m -21.86259,-0.97914 c -0.0929,-0.3701 -0.21759,-0.6242 -0.27712,-0.56468 -0.0595,0.0595 -0.0322,0.41104 0.0607,0.78114 0.0929,0.3701 0.21759,0.6242 0.27712,0.56468 0.0595,-0.0595 0.0322,-0.41104 -0.0607,-0.78114 z m 23.5544,-1.81375 c 1.36129,-0.78177 4.48519,-2.65787 6.942,-4.16912 2.45682,-1.51125 4.58761,-2.74773 4.73509,-2.74773 0.31238,0 0.35368,-4.96184 0.10139,-12.1807 l -0.16533,-4.73082 -1.79112,0.98024 c -4.09678,2.24208 -10.56792,5.57039 -13.28161,6.83115 -1.5973,0.7421 -2.99589,1.42914 -3.10797,1.52676 -0.18021,0.15697 1.2118,16.04496 1.47727,16.86107 0.12059,0.37073 1.15656,-0.11178 5.09028,-2.37085 l 0,0 z m -35.65819,1.02261 c -1.25007,-0.61027 -2.38649,-1.10401 -2.52538,-1.09722 -0.31512,0.0154 4.19892,2.20689 4.54568,2.20683 0.1389,-2e-5 -0.77024,-0.49935 -2.0203,-1.10961 z m 28.58876,-0.42646 c -0.0602,-0.31251 -0.10944,-0.0568 -0.10944,0.56822 0,0.62503 0.0493,0.88072 0.10944,0.56821 0.0602,-0.31252 0.0602,-0.82391 0,-1.13643 z m -33.48406,0.0383 c -0.39868,-1.14366 -0.35681,-1.49601 0.16021,-1.34843 0.24307,0.0694 0.18516,-0.009 -0.12869,-0.17386 -0.8278,-0.43523 -0.91186,-0.17301 -0.40344,1.25847 0.24875,0.70038 0.49758,1.22809 0.55296,1.17271 0.0554,-0.0554 -0.0261,-0.46438 -0.18104,-0.90889 l 0,0 z m 33.22738,-2.68999 c -0.0635,-0.24306 -0.11549,-0.0442 -0.11549,0.44195 0,0.48613 0.052,0.68501 0.11549,0.44194 0.0635,-0.24307 0.0635,-0.64082 0,-0.88389 z m -85.53197,-2.12149 0.88389,-0.78208 -0.91108,0.64804 c -0.70623,0.50234 -0.9793,0.58034 -1.21452,0.34693 -0.23559,-0.23378 -0.26582,-0.20229 -0.13519,0.14083 0.22476,0.59039 0.34473,0.55957 1.3769,-0.35372 l 0,0 z m 48.73986,0.56677 c 0,-0.12589 -0.22728,-0.16946 -0.50507,-0.0968 -0.2778,0.0727 -0.50508,0.17565 -0.50508,0.2289 0,0.0532 0.22728,0.0968 0.50508,0.0968 0.27779,0 0.50507,-0.10301 0.50507,-0.2289 z m 36.53274,-1.09693 c -0.0701,-0.17362 -0.12738,-0.0316 -0.12738,0.31567 0,0.34724 0.0573,0.4893 0.12738,0.31568 0.0701,-0.17362 0.0701,-0.45773 0,-0.63135 z m 19.40446,-0.51121 c 0.39631,-0.37816 -1.20354,0.48669 -1.76777,0.95563 -0.27779,0.23088 -0.0505,0.16453 0.50508,-0.14744 0.55558,-0.31197 1.12379,-0.67565 1.26269,-0.80819 l 0,0 z m -103.12962,-0.12013 c 0.31413,-0.40054 0.3052,-0.40948 -0.0953,-0.0953 -0.24307,0.19062 -0.44194,0.3895 -0.44194,0.44194 0,0.20785 0.20738,0.0741 0.53729,-0.3466 z m 83.47262,-1.89404 c -0.07,-0.17362 -0.12737,-0.0316 -0.12737,0.31567 0,0.34724 0.0573,0.4893 0.12737,0.31568 0.0701,-0.17362 0.0701,-0.45773 0,-0.63135 z m -18.43002,0.0158 c -0.0806,-0.20146 -0.14046,-0.14162 -0.15257,0.15258 -0.011,0.26621 0.0487,0.41537 0.13264,0.33145 0.0839,-0.0839 0.0929,-0.30173 0.0199,-0.48403 l 1e-5,0 z m -43.60907,-1.46787 c -0.14867,-0.2778 -0.32713,-0.50508 -0.39658,-0.50508 -0.0695,0 -0.005,0.22728 0.14404,0.50508 0.14867,0.27779 0.32714,0.50507 0.39658,0.50507 0.0695,0 0.005,-0.22728 -0.14404,-0.50507 z m 43.03971,-0.61331 c -0.0929,-0.3701 -0.21759,-0.6242 -0.27711,-0.56468 -0.0595,0.0595 -0.0322,0.41104 0.0606,0.78114 0.0929,0.3701 0.21759,0.6242 0.27712,0.56467 0.0595,-0.0595 0.0322,-0.41103 -0.0607,-0.78113 z m 18.74685,-0.45998 c -0.0701,-0.17362 -0.12738,-0.0316 -0.12738,0.31567 0,0.34724 0.0573,0.48929 0.12738,0.31567 0.07,-0.17362 0.07,-0.45772 0,-0.63134 z m -62.54417,-0.18941 c -0.14867,-0.27779 -0.32713,-0.50507 -0.39658,-0.50507 -0.0695,0 -0.005,0.22728 0.14404,0.50507 0.14867,0.2778 0.32713,0.50508 0.39658,0.50508 0.0695,0 0.005,-0.22728 -0.14404,-0.50508 z m 43.22278,-1.36527 c -0.23136,-0.83792 -0.20855,-0.9088 0.29727,-0.92358 0.52622,-0.0154 0.52396,-0.0256 -0.057,-0.25796 -0.83021,-0.33209 -0.90382,-0.17176 -0.53155,1.15786 0.17723,0.63299 0.37166,1.10148 0.43206,1.04107 0.0604,-0.0604 -0.003,-0.51823 -0.14076,-1.01739 l 0,0 z m -43.9804,0.10259 c -0.14867,-0.2778 -0.32713,-0.50508 -0.39658,-0.50508 -0.0695,0 -0.005,0.22728 0.14404,0.50508 0.14867,0.27779 0.32714,0.50507 0.39658,0.50507 0.0694,0 0.005,-0.22728 -0.14404,-0.50507 z m 63.04925,-1.07329 c -0.0701,-0.17362 -0.12738,-0.0316 -0.12738,0.31567 0,0.34724 0.0573,0.48929 0.12738,0.31567 0.0701,-0.17362 0.0701,-0.45772 0,-0.63134 z m -64.24888,-0.9348 c -0.87556,-1.5767 -0.93035,-1.5168 3.34621,-3.6582 1.80564,-0.90415 3.16417,-1.64692 3.01894,-1.65061 -0.37198,-0.009 -6.73556,3.22514 -7.14186,3.63019 -0.27798,0.27713 -0.19925,0.55417 0.46361,1.63145 1.01823,1.65484 1.22299,1.68568 0.3131,0.0472 l 0,0 z m 55.70485,0.23075 c 1.98874,-0.24936 7.40247,-1.94557 7.94673,-2.48983 0.17098,-0.17097 0.0334,-2.47551 -0.41923,-7.02191 -0.37055,-3.72207 -0.67198,-6.84586 -0.66984,-6.94176 0.002,-0.0959 -0.80787,0.10174 -1.80002,0.43919 -4.77811,1.62514 -9.67803,1.87944 -14.65371,0.76051 -1.62076,-0.36448 -3.77074,-0.94291 -4.77773,-1.28541 -1.00699,-0.3425 -1.86271,-0.5909 -1.90161,-0.55201 -0.0599,0.0599 0.98074,3.64083 3.92155,13.49372 l 0.54397,1.8225 1.94898,0.61514 c 2.4342,0.76827 4.51973,1.1652 7.2589,1.38155 0.28144,0.0222 1.45234,-0.0775 2.60201,-0.22169 l 0,0 z m 8.35573,-0.40477 c 0.3228,-0.27837 -0.2111,-0.24836 -0.86284,0.0485 l -0.75761,0.34509 0.75761,-0.15142 c 0.41669,-0.0833 0.80497,-0.19225 0.86284,-0.24216 z m -68.5021,-1.41106 c 0.4632,-0.27329 0.80243,-0.571 0.75384,-0.66157 -0.55597,-1.03647 -3.27509,-5.34171 -3.37373,-5.34171 -0.0719,0 0.0349,0.25569 0.23754,0.56821 0.20259,0.31251 0.91095,1.51181 1.57414,2.6651 1.34487,2.33876 1.38299,2.1099 -0.55857,3.35332 -0.45141,0.28909 -0.82074,0.58625 -0.82074,0.66034 0,0.0741 0.30271,-0.0636 0.67268,-0.30603 0.36997,-0.24242 1.05165,-0.66436 1.51485,-0.93766 z m 45.71066,-2.71358 c -0.28524,-0.96859 -0.56399,-1.71569 -0.61945,-1.66023 -0.0555,0.0555 0.0844,0.73819 0.3109,1.51716 0.22646,0.77898 0.34391,1.52608 0.26101,1.66023 -0.0829,0.13414 0.0105,0.2439 0.20771,0.2439 0.29427,0 0.26559,-0.31534 -0.16016,-1.76106 l 0,0 z m -39.05935,-0.84544 c 4.4719,-2.2515 8.61443,-3.76336 11.56681,-4.22144 1.01024,-0.15675 3.19502,-0.24716 4.85507,-0.20093 2.59535,0.0723 3.00034,0.031 2.89028,-0.29474 -0.0704,-0.20834 -1.2401,-3.50396 -2.59934,-7.3236 l -2.47134,-6.9448 -1.7543,-0.12627 c -5.28789,-0.38061 -11.13112,1.35897 -20.06332,5.973 -2.29178,1.18384 -4.25121,2.23251 -4.35429,2.33037 -0.18813,0.17861 7.41435,12.91658 7.70401,12.90808 0.0328,-10e-4 1.93464,-0.94581 4.22643,-2.09967 l 0,0 z m 63.73093,1.72261 c -0.08,-0.20834 -0.19003,-0.3788 -0.24461,-0.3788 -0.0546,0 -0.0992,0.17046 -0.0992,0.3788 0,0.20835 0.11007,0.37881 0.24461,0.37881 0.13453,0 0.1792,-0.17046 0.0993,-0.37881 z m -89.11102,-3.88413 c 2.22234,-1.49521 5.0918,-3.3785 6.37659,-4.18509 1.28479,-0.8066 2.33598,-1.51786 2.33598,-1.58058 0,-0.14689 -1.13072,0.54355 -5.17703,3.16122 -4.57607,2.96039 -8.71257,5.88194 -8.71257,6.15358 0,0.12566 0.2557,-0.01 0.56821,-0.30105 0.31252,-0.29124 2.38649,-1.75288 4.60882,-3.24808 z m 88.6887,1.54822 c -0.0635,-0.24307 -0.11549,-0.0442 -0.11549,0.44194 0,0.48613 0.052,0.68501 0.11549,0.44194 0.0635,-0.24307 0.0635,-0.64082 0,-0.88388 z m 7.15289,-0.5699 c 1.94269,-0.9732 3.53217,-1.82627 3.53217,-1.89572 0,-0.11295 -7.04572,3.32907 -7.30255,3.5675 -0.36866,0.3422 0.66489,-0.11607 3.77039,-1.67178 z m -49.90455,-0.083 c -0.40119,-1.17744 -1.10942,-1.67462 -1.92143,-1.34886 -0.17958,0.072 -0.004,0.13996 0.3897,0.15093 0.61283,0.0171 0.79285,0.20136 1.24729,1.27698 0.65737,1.55595 0.82561,1.50919 0.28444,-0.079 l 0,0 z m -14.62231,0.57161 c 0.55559,-0.26718 0.72605,-0.41505 0.37881,-0.32861 -0.71506,0.17803 -2.02778,0.83619 -1.6415,0.82301 0.1389,-0.005 0.70711,-0.22722 1.26269,-0.4944 l 0,0 z m 3.34087,-1.14457 c -0.0839,-0.0839 -0.30173,-0.0929 -0.48403,-0.0199 -0.20146,0.0806 -0.14162,0.14046 0.15258,0.15258 0.26621,0.011 0.41537,-0.0487 0.33145,-0.13264 l 0,-1e-5 z m 1.01015,-0.25253 c -0.0839,-0.0839 -0.30173,-0.0929 -0.48403,-0.0199 -0.20145,0.0806 -0.14162,0.14045 0.15258,0.15257 0.26621,0.011 0.41537,-0.0487 0.33145,-0.13264 l 0,-1e-5 z m 27.76757,-0.39986 c -0.0806,-0.20145 -0.14046,-0.14161 -0.15258,0.15258 -0.011,0.26622 0.0487,0.41537 0.13264,0.33146 0.0839,-0.0839 0.0929,-0.30173 0.0199,-0.48404 l 1e-5,0 z m 25.00377,-0.38978 c -0.064,-0.24571 -0.12063,-0.10582 -0.12578,0.31087 -0.005,0.41668 0.0472,0.61772 0.11642,0.44674 0.0692,-0.17097 0.0734,-0.5119 0.009,-0.75761 l -1e-5,0 z m -51.76118,0.5371 c -0.0839,-0.0839 -0.30173,-0.0929 -0.48404,-0.0199 -0.20145,0.0806 -0.14161,0.14046 0.15258,0.15257 0.26622,0.011 0.41537,-0.0487 0.33146,-0.13263 l 0,0 z m 2.15183,-0.27819 c -0.31251,-0.0602 -0.8239,-0.0602 -1.13642,0 -0.31252,0.0602 -0.0568,0.10944 0.56821,0.10944 0.62503,0 0.88073,-0.0493 0.56821,-0.10944 z m 3.1511,-0.25861 c -0.52396,-0.0547 -1.31946,-0.0537 -1.76777,0.002 -0.44832,0.0558 -0.0196,0.10051 0.95265,0.0994 0.97227,-10e-4 1.33907,-0.0468 0.81512,-0.10144 l 0,-10e-6 z m 60.67791,-1.97254 c 0,-0.0695 -0.45457,0.10563 -1.01015,0.38907 -0.55558,0.28344 -1.01015,0.57216 -1.01015,0.64161 0,0.0694 0.45457,-0.10563 1.01015,-0.38907 0.55558,-0.28344 1.01015,-0.57216 1.01015,-0.64161 z m -87.63073,0.38907 c -0.14867,-0.27779 -0.32713,-0.50508 -0.39658,-0.50508 -0.0694,0 -0.005,0.22729 0.14404,0.50508 0.14867,0.27779 0.32713,0.50508 0.39658,0.50508 0.0694,0 0.005,-0.22729 -0.14404,-0.50508 z m 73.15077,-0.82075 c -0.0701,-0.17362 -0.12738,-0.0316 -0.12738,0.31567 0,0.34724 0.0573,0.4893 0.12738,0.31568 0.0701,-0.17362 0.0701,-0.45773 0,-0.63135 z m -73.88099,-0.37881 c -0.13361,-0.24306 -0.4337,-0.66922 -0.66687,-0.94701 -0.40704,-0.48492 -0.40956,-0.47988 -0.0634,0.12626 0.6616,1.15849 0.73199,1.2627 0.85293,1.2627 0.0661,0 0.0109,-0.19888 -0.12267,-0.44195 l 0,0 z m 73.62845,-2.14657 c -0.07,-0.17362 -0.12737,-0.0316 -0.12737,0.31567 0,0.34724 0.0573,0.4893 0.12737,0.31568 0.0701,-0.17362 0.0701,-0.45773 0,-0.63135 z m -74.82272,0.25254 c -1.34003,-2.26781 -1.31423,-2.24558 -2.12159,-1.82807 -0.41368,0.21392 -0.75214,0.44577 -0.75214,0.51521 0,0.0695 0.31769,-0.038 0.70598,-0.23881 0.69546,-0.35963 0.71651,-0.34843 1.41215,0.75113 0.38839,0.61392 0.75926,1.11621 0.82415,1.11621 0.0649,0 0.034,-0.14205 -0.0686,-0.31567 z m -3.12627,-1.09106 c 0,-0.0694 -0.22728,-0.005 -0.50508,0.14404 -0.27779,0.14867 -0.50507,0.32713 -0.50507,0.39658 0,0.0694 0.22728,0.005 0.50507,-0.14404 0.2778,-0.14867 0.50508,-0.32713 0.50508,-0.39658 z m 77.70172,-1.41854 c -0.0806,-0.20146 -0.14046,-0.14162 -0.15258,0.15258 -0.011,0.26621 0.0487,0.41537 0.13264,0.33145 0.0839,-0.0839 0.0929,-0.30173 0.0199,-0.48403 l 10e-6,0 z m 0.20629,-1.72041 c 0.0858,-0.1389 0.0357,-0.25254 -0.11136,-0.25254 -0.1471,0 -0.26744,0.11364 -0.26744,0.25254 0,0.13889 0.0501,0.25253 0.11136,0.25253 0.0613,0 0.1816,-0.11364 0.26744,-0.25253 z m 19.56784,-4.23002 c -0.002,-2.32651 -0.0997,-4.38122 -0.21689,-4.56604 -0.16625,-0.26225 -0.76146,-0.0571 -2.71091,0.93411 -3.00376,1.52736 -3.02236,1.68647 -0.0334,0.2858 1.18558,-0.55558 2.28092,-1.01015 2.43407,-1.01015 0.192,0 0.27846,1.33297 0.27846,4.29315 0,2.36123 0.0568,4.29314 0.12627,4.29314 0.0695,0 0.12453,-1.9035 0.1224,-4.23001 l 0,0 z m -53.78675,0.69448 c -0.20835,-0.13464 -0.49245,-0.2448 -0.63135,-0.2448 -0.13889,0 -0.0821,0.11016 0.12627,0.2448 0.20835,0.13464 0.49245,0.2448 0.63135,0.2448 0.13889,0 0.0821,-0.11016 -0.12627,-0.2448 z m -1.26269,-0.48221 c -0.20835,-0.11787 -0.66292,-0.28375 -1.01016,-0.36862 -0.52625,-0.12863 -0.50523,-0.0936 0.12627,0.2106 0.80932,0.38981 1.51733,0.51639 0.88389,0.15802 l 0,0 z m -2.02031,-0.75761 c -0.20834,-0.11787 -0.66291,-0.28375 -1.01015,-0.36863 -0.52625,-0.12862 -0.50523,-0.0936 0.12627,0.2106 0.80931,0.38982 1.51732,0.5164 0.88388,0.15803 l 0,0 z m -2.59377,-0.93306 c -0.0839,-0.0839 -0.30174,-0.0929 -0.48404,-0.0199 -0.20145,0.0806 -0.14162,0.14046 0.15258,0.15257 0.26621,0.011 0.41537,-0.0487 0.33146,-0.13263 l 0,0 z m -2.77792,-0.75761 c -0.0839,-0.0839 -0.30174,-0.0929 -0.48404,-0.0199 -0.20145,0.0806 -0.14161,0.14045 0.15258,0.15257 0.26621,0.011 0.41537,-0.0487 0.33146,-0.13264 l 0,0 z m -2.70953,-0.3525 c 0.30632,-0.19796 0.27008,-0.24555 -0.1894,-0.24868 -0.31252,-0.002 -0.56821,0.10978 -0.56821,0.24868 0,0.31641 0.268,0.31641 0.75761,0 z m 1.44683,0.1 c -0.0839,-0.0839 -0.30173,-0.0929 -0.48403,-0.0199 -0.20145,0.0806 -0.14162,0.14045 0.15258,0.15257 0.26621,0.011 0.41537,-0.0487 0.33145,-0.13264 l 0,0 z"
           style="fill:#19a3ff;fill-opacity:1;stroke:#19a3ff;stroke-width:0.50507629;stroke-linecap:round;stroke-linejoin:round;stroke-miterlimit:4;stroke-opacity:1;stroke-dasharray:none" />
      </g>
    </g>
  </g>
</svg>
