<?xml version="1.0" encoding="UTF-8" standalone="no"?>
<!-- Created with Inkscape (http://www.inkscape.org/) -->

<svg
   xmlns:dc="http://purl.org/dc/elements/1.1/"
   xmlns:cc="http://creativecommons.org/ns#"
   xmlns:rdf="http://www.w3.org/1999/02/22-rdf-syntax-ns#"
   xmlns:svg="http://www.w3.org/2000/svg"
   xmlns="http://www.w3.org/2000/svg"
   xmlns:sodipodi="http://sodipodi.sourceforge.net/DTD/sodipodi-0.dtd"
   xmlns:inkscape="http://www.inkscape.org/namespaces/inkscape"
   width="12.348907"
   height="9.9712944"
   id="svg6292"
   version="1.1"
   inkscape:version="0.48.5 r10040"
   sodipodi:docname="gamehistoryicon.svg">
  <defs
     id="defs6294" />
  <sodipodi:namedview
     id="base"
     pagecolor="#050000"
     bordercolor="#666666"
     borderopacity="1.0"
     inkscape:pageopacity="1"
     inkscape:pageshadow="2"
     inkscape:zoom="15.839192"
     inkscape:cx="-15.312157"
     inkscape:cy="2.7566795"
     inkscape:document-units="px"
     inkscape:current-layer="layer1"
     showgrid="false"
     fit-margin-top="0"
     fit-margin-left="0"
     fit-margin-right="0"
     fit-margin-bottom="0"
     showborder="true"
     borderlayer="false"
     inkscape:showpageshadow="true"
     inkscape:window-width="1376"
     inkscape:window-height="833"
     inkscape:window-x="62"
     inkscape:window-y="27"
     inkscape:window-maximized="0" />
  <metadata
     id="metadata6297">
    <rdf:RDF>
      <cc:Work
         rdf:about="">
        <dc:format>image/svg+xml</dc:format>
        <dc:type
           rdf:resource="http://purl.org/dc/dcmitype/StillImage" />
        <dc:title />
      </cc:Work>
    </rdf:RDF>
  </metadata>
  <g
     inkscape:label="Layer 1"
     inkscape:groupmode="layer"
     id="layer1"
     transform="translate(-139.53989,-707.37654)">
    <g
       id="g2994">
      <g
         transform="matrix(0.51163579,0,0,0.51163579,71.161697,347.8922)"
         id="g6848">
        <path
           sodipodi:type="arc"
           style="opacity:0.9;fill:#ffffff;fill-opacity:0.7372549;stroke:#ffffff;stroke-opacity:0.7372549"
           id="path5627"
           sodipodi:cx="388.57144"
           sodipodi:cy="518.43359"
           sodipodi:rx="12.857142"
           sodipodi:ry="12.857142"
           d="m 401.42858,518.43359 c 0,7.10081 -5.75633,12.85715 -12.85714,12.85715 -7.1008,0 -12.85714,-5.75634 -12.85714,-12.85715 0,-7.1008 5.75634,-12.85714 12.85714,-12.85714 7.10081,0 12.85714,5.75634 12.85714,12.85714 z"
           transform="matrix(0.14162452,0,0,0.14162452,90.68304,640.79491)" />
        <path
           sodipodi:type="arc"
           style="opacity:0.9;fill:#ffffff;fill-opacity:0.7372549;stroke:#ffffff;stroke-opacity:0.7372549"
           id="path5627-4"
           sodipodi:cx="388.57144"
           sodipodi:cy="518.43359"
           sodipodi:rx="12.857142"
           sodipodi:ry="12.857142"
           d="m 401.42858,518.43359 c 0,7.10081 -5.75633,12.85715 -12.85714,12.85715 -7.1008,0 -12.85714,-5.75634 -12.85714,-12.85715 0,-7.1008 5.75634,-12.85714 12.85714,-12.85714 7.10081,0 12.85714,5.75634 12.85714,12.85714 z"
           transform="matrix(0.14162452,0,0,0.14162452,80.55802,640.79491)" />
        <path
           sodipodi:type="arc"
           style="opacity:0.9;fill:#ffffff;fill-opacity:0.7372549;stroke:#ffffff;stroke-opacity:0.7372549"
           id="path5627-3-2"
           sodipodi:cx="388.57144"
           sodipodi:cy="518.43359"
           sodipodi:rx="12.857142"
           sodipodi:ry="12.857142"
           d="m 401.42858,518.43359 c 0,7.10081 -5.75633,12.85715 -12.85714,12.85715 -7.1008,0 -12.85714,-5.75634 -12.85714,-12.85715 0,-7.1008 5.75634,-12.85714 12.85714,-12.85714 7.10081,0 12.85714,5.75634 12.85714,12.85714 z"
           transform="matrix(0.14162452,0,0,0.14162452,100.80806,631.13779)" />
        <path
           sodipodi:type="arc"
           style="opacity:0.9;fill:#19a3ff;fill-opacity:1;stroke:#19a3ff;stroke-width:1.00265121;stroke-miterlimit:4;stroke-opacity:1;stroke-dasharray:none"
           id="path5627-3-8"
           sodipodi:cx="388.57144"
           sodipodi:cy="518.43359"
           sodipodi:rx="12.857142"
           sodipodi:ry="12.857142"
           d="m 401.42858,518.43359 c 0,7.10081 -5.75633,12.85715 -12.85714,12.85715 -7.1008,0 -12.85714,-5.75634 -12.85714,-12.85715 0,-7.1008 5.75634,-12.85714 12.85714,-12.85714 7.10081,0 12.85714,5.75634 12.85714,12.85714 z"
           transform="matrix(0.14162452,0,0,0.14162452,100.80806,638.90321)" />
        <path
           style="opacity:0.9;fill:#ffffff;fill-opacity:0.7372549;stroke:#ffffff;stroke-width:0.20557255;stroke-linecap:round;stroke-linejoin:round;stroke-miterlimit:4;stroke-opacity:0.73658537;stroke-dasharray:none"
           d="m 137.40745,714.11782 6.48865,0"
           id="path5697-5"
           inkscape:connector-curvature="0"
           sodipodi:nodetypes="cc" />
        <path
           sodipodi:type="arc"
           style="opacity:0.9;fill:#ffffff;fill-opacity:0.7372549;stroke:#ffffff;stroke-opacity:0.7372549"
           id="path5627-6"
           sodipodi:cx="388.57144"
           sodipodi:cy="518.43359"
           sodipodi:rx="12.857142"
           sodipodi:ry="12.857142"
           d="m 401.42858,518.43359 c 0,7.10081 -5.75633,12.85715 -12.85714,12.85715 -7.1008,0 -12.85714,-5.75634 -12.85714,-12.85715 0,-7.1008 5.75634,-12.85714 12.85714,-12.85714 7.10081,0 12.85714,5.75634 12.85714,12.85714 z"
           transform="matrix(0.14162452,0,0,0.14162452,90.68304,634.84905)" />
        <path
           sodipodi:type="arc"
           style="opacity:0.9;fill:#ffffff;fill-opacity:0.7372549;stroke:#ffffff;stroke-opacity:0.7372549"
           id="path5627-2"
           sodipodi:cx="388.57144"
           sodipodi:cy="518.43359"
           sodipodi:rx="12.857142"
           sodipodi:ry="12.857142"
           d="m 401.42858,518.43359 c 0,7.10081 -5.75633,12.85715 -12.85714,12.85715 -7.1008,0 -12.85714,-5.75634 -12.85714,-12.85715 0,-7.1008 5.75634,-12.85714 12.85714,-12.85714 7.10081,0 12.85714,5.75634 12.85714,12.85714 z"
           transform="matrix(0.14162452,0,0,0.14162452,90.68304,646.74075)" />
        <path
           style="opacity:0.9;fill:none;stroke:#ffffff;stroke-width:0.20557255;stroke-linecap:round;stroke-linejoin:round;stroke-miterlimit:4;stroke-opacity:0.73658537;stroke-dasharray:none"
           d="m 136.92348,712.97865 c 0.86653,-2.45813 3.93321,-4.71974 6.96992,-4.70669"
           id="path5697-5-1"
           inkscape:connector-curvature="0"
           sodipodi:nodetypes="cc" />
        <path
           style="opacity:0.9;fill:none;stroke:#ffffff;stroke-width:0.20557255;stroke-linecap:round;stroke-linejoin:round;stroke-miterlimit:4;stroke-opacity:0.73658537;stroke-dasharray:none"
           d="m 136.63529,715.70846 c 0.78314,1.90132 4.02726,4.35241 7.08451,4.35241"
           id="path5697-5-4"
           inkscape:connector-curvature="0"
           sodipodi:nodetypes="cc" />
        <path
           style="opacity:0.9;fill:none;stroke:#ffffff;stroke-width:0.20557255;stroke-linecap:round;stroke-linejoin:round;stroke-miterlimit:4;stroke-opacity:0.73658537;stroke-dasharray:none"
           d="m 146.94929,709.61002 c 1.49691,1.40881 4.70238,2.61625 6.89553,2.61331"
           id="path5697-5-9"
           inkscape:connector-curvature="0"
           sodipodi:nodetypes="cc" />
        <path
           style="opacity:0.9;fill:none;stroke:#ffffff;stroke-width:0.20557255;stroke-linecap:round;stroke-linejoin:round;stroke-miterlimit:4;stroke-opacity:0.73658537;stroke-dasharray:none"
           d="m 147.26744,707.32102 c 1.50293,-1.6585 4.31539,-2.82763 6.75098,-2.7783"
           id="path5697-5-8"
           inkscape:connector-curvature="0"
           sodipodi:nodetypes="cc" />
      </g>
    </g>
  </g>
</svg>
