<?xml version="1.0" encoding="UTF-8" standalone="no"?>
<!-- Created with Inkscape (http://www.inkscape.org/) -->

<svg
   xmlns:dc="http://purl.org/dc/elements/1.1/"
   xmlns:cc="http://creativecommons.org/ns#"
   xmlns:rdf="http://www.w3.org/1999/02/22-rdf-syntax-ns#"
   xmlns:svg="http://www.w3.org/2000/svg"
   xmlns="http://www.w3.org/2000/svg"
   xmlns:sodipodi="http://sodipodi.sourceforge.net/DTD/sodipodi-0.dtd"
   xmlns:inkscape="http://www.inkscape.org/namespaces/inkscape"
   width="197.51051"
   height="197.51051"
   id="svg2"
   version="1.1"
   inkscape:version="0.48.4 r9939"
   sodipodi:docname="spacecrafterroricon.svg">
  <defs
     id="defs4">
    <marker
       inkscape:stockid="TriangleOutM"
       orient="auto"
       refY="0.0"
       refX="0.0"
       id="TriangleOutM"
       style="overflow:visible">
      <path
         id="path4300"
         d="M 5.77,0.0 L -2.88,5.0 L -2.88,-5.0 L 5.77,0.0 z "
         style="fill-rule:evenodd;stroke:#000000;stroke-width:1.0pt"
         transform="scale(0.4)" />
    </marker>
    <marker
       inkscape:stockid="Arrow1Lend"
       orient="auto"
       refY="0.0"
       refX="0.0"
       id="Arrow1Lend"
       style="overflow:visible;">
      <path
         id="path4158"
         d="M 0.0,0.0 L 5.0,-5.0 L -12.5,0.0 L 5.0,5.0 L 0.0,0.0 z "
         style="fill-rule:evenodd;stroke:#000000;stroke-width:1.0pt;"
         transform="scale(0.8) rotate(180) translate(12.5,0)" />
    </marker>
  </defs>
  <sodipodi:namedview
     id="base"
     pagecolor="#ffffff"
     bordercolor="#666666"
     borderopacity="1.0"
     inkscape:pageopacity="0.0"
     inkscape:pageshadow="2"
     inkscape:zoom="1.979899"
     inkscape:cx="89.966219"
     inkscape:cy="109.89991"
     inkscape:document-units="px"
     inkscape:current-layer="layer1"
     showgrid="false"
     inkscape:snap-bbox="true"
     inkscape:bbox-paths="true"
     inkscape:bbox-nodes="true"
     inkscape:snap-bbox-edge-midpoints="true"
     inkscape:snap-bbox-midpoints="true"
     inkscape:object-paths="true"
     inkscape:snap-intersection-paths="true"
     inkscape:object-nodes="true"
     inkscape:snap-smooth-nodes="true"
     inkscape:snap-object-midpoints="true"
     inkscape:snap-midpoints="true"
     inkscape:snap-center="true"
     inkscape:snap-page="true"
     fit-margin-top="0"
     fit-margin-left="0"
     fit-margin-right="0"
     fit-margin-bottom="0"
     inkscape:window-width="1752"
     inkscape:window-height="993"
     inkscape:window-x="88"
     inkscape:window-y="42"
     inkscape:window-maximized="0"
     inkscape:snap-global="false" />
  <metadata
     id="metadata7">
    <rdf:RDF>
      <cc:Work
         rdf:about="">
        <dc:format>image/svg+xml</dc:format>
        <dc:type
           rdf:resource="http://purl.org/dc/dcmitype/StillImage" />
        <dc:title></dc:title>
      </cc:Work>
    </rdf:RDF>
  </metadata>
  <g
     inkscape:label="Layer 1"
     inkscape:groupmode="layer"
     id="layer1"
     transform="translate(-273.29199,-427.42584)">
    <rect
       style="fill:#cccccc;fill-opacity:1;stroke:#cccccc;stroke-width:20;stroke-linecap:round;stroke-linejoin:round;stroke-miterlimit:4;stroke-opacity:1;stroke-dasharray:none"
       id="rect3006"
       width="177.51051"
       height="177.51051"
       x="283.29199"
       y="437.42584"
       ry="35" />
    <g
       id="g6135"
       transform="matrix(1.0839254,0,0,1.0839254,-31.224213,-44.159957)">
      <path
         transform="matrix(0.72079969,0,0,0.72079969,341.83037,494.1254)"
         d="m 145.46196,44.472404 c 0,57.183906 -46.356721,103.540626 -103.540631,103.540626 -57.183909,0 -103.540626,-46.35672 -103.540626,-103.540626 0,-57.183909 46.356717,-103.540626 103.540626,-103.540626 57.18391,0 103.540631,46.356717 103.540631,103.540626 z"
         sodipodi:ry="103.54063"
         sodipodi:rx="103.54063"
         sodipodi:cy="44.472404"
         sodipodi:cx="41.921329"
         id="path4817"
         style="fill:#19a3ff;fill-opacity:1;stroke:#19a3ff;stroke-width:10;stroke-linecap:round;stroke-linejoin:round;stroke-miterlimit:4;stroke-opacity:1;stroke-dasharray:none"
         sodipodi:type="arc" />
      <g
         id="g6129">
        <path
           sodipodi:type="arc"
           style="fill:#0592ff;fill-opacity:1;stroke:#19a3ff;stroke-width:10;stroke-linecap:round;stroke-linejoin:round;stroke-miterlimit:4;stroke-opacity:1;stroke-dasharray:none"
           id="path4817-8"
           sodipodi:cx="41.921329"
           sodipodi:cy="44.472404"
           sodipodi:rx="103.54063"
           sodipodi:ry="103.54063"
           d="m 145.46196,44.472404 c 0,57.183906 -46.356721,103.540626 -103.540631,103.540626 -57.183909,0 -103.540626,-46.35672 -103.540626,-103.540626 0,-57.183909 46.356717,-103.540626 103.540626,-103.540626 57.18391,0 103.540631,46.356717 103.540631,103.540626 z"
           transform="matrix(0.22754581,0,0,0.22754581,348.60576,522.38788)" />
        <path
           sodipodi:type="arc"
           style="fill:#0592ff;fill-opacity:1;stroke:#19a3ff;stroke-width:10;stroke-linecap:round;stroke-linejoin:round;stroke-miterlimit:4;stroke-opacity:1;stroke-dasharray:none"
           id="path4817-8-4"
           sodipodi:cx="41.921329"
           sodipodi:cy="44.472404"
           sodipodi:rx="103.54063"
           sodipodi:ry="103.54063"
           d="m 145.46196,44.472404 c 0,57.183906 -46.356721,103.540626 -103.540631,103.540626 -57.183909,0 -103.540626,-46.35672 -103.540626,-103.540626 0,-57.183909 46.356717,-103.540626 103.540626,-103.540626 57.18391,0 103.540631,46.356717 103.540631,103.540626 z"
           transform="matrix(0.1848983,-0.06295984,0.04613611,0.10900346,387.23271,581.56436)" />
        <path
           sodipodi:type="arc"
           style="fill:#0592ff;fill-opacity:1;stroke:#19a3ff;stroke-width:10;stroke-linecap:round;stroke-linejoin:round;stroke-miterlimit:4;stroke-opacity:1;stroke-dasharray:none"
           id="path4817-8-0"
           sodipodi:cx="41.921329"
           sodipodi:cy="44.472404"
           sodipodi:rx="103.54063"
           sodipodi:ry="103.54063"
           d="m 145.46196,44.472404 c 0,57.183906 -46.356721,103.540626 -103.540631,103.540626 -57.183909,0 -103.540626,-46.35672 -103.540626,-103.540626 0,-57.183909 46.356717,-103.540626 103.540626,-103.540626 57.18391,0 103.540631,46.356717 103.540631,103.540626 z"
           transform="matrix(0.12611048,-0.05360071,0.02995746,0.06702017,326.77709,468.89187)" />
        <path
           sodipodi:type="arc"
           style="fill:#0592ff;fill-opacity:1;stroke:#19a3ff;stroke-width:10;stroke-linecap:round;stroke-linejoin:round;stroke-miterlimit:4;stroke-opacity:1;stroke-dasharray:none"
           id="path4817-8-6"
           sodipodi:cx="41.921329"
           sodipodi:cy="44.472404"
           sodipodi:rx="103.54063"
           sodipodi:ry="103.54063"
           d="m 145.46196,44.472404 c 0,57.183906 -46.356721,103.540626 -103.540631,103.540626 -57.183909,0 -103.540626,-46.35672 -103.540626,-103.540626 0,-57.183909 46.356717,-103.540626 103.540626,-103.540626 57.18391,0 103.540631,46.356717 103.540631,103.540626 z"
           transform="matrix(0.17402185,0.1170133,-0.05703477,0.12696266,400.61068,466.14479)" />
      </g>
    </g>
  </g>
</svg>
