<?xml version="1.0" encoding="UTF-8" standalone="no"?>
<!-- Created with Inkscape (http://www.inkscape.org/) -->

<svg
   xmlns:dc="http://purl.org/dc/elements/1.1/"
   xmlns:cc="http://creativecommons.org/ns#"
   xmlns:rdf="http://www.w3.org/1999/02/22-rdf-syntax-ns#"
   xmlns:svg="http://www.w3.org/2000/svg"
   xmlns="http://www.w3.org/2000/svg"
   xmlns:sodipodi="http://sodipodi.sourceforge.net/DTD/sodipodi-0.dtd"
   xmlns:inkscape="http://www.inkscape.org/namespaces/inkscape"
   width="197.51051"
   height="197.51051"
   id="svg2"
   version="1.1"
   inkscape:version="0.48.4 r9939"
   sodipodi:docname="planeticon.svg">
  <defs
     id="defs4">
    <marker
       inkscape:stockid="TriangleOutM"
       orient="auto"
       refY="0.0"
       refX="0.0"
       id="TriangleOutM"
       style="overflow:visible">
      <path
         id="path4300"
         d="M 5.77,0.0 L -2.88,5.0 L -2.88,-5.0 L 5.77,0.0 z "
         style="fill-rule:evenodd;stroke:#000000;stroke-width:1.0pt"
         transform="scale(0.4)" />
    </marker>
    <marker
       inkscape:stockid="Arrow1Lend"
       orient="auto"
       refY="0.0"
       refX="0.0"
       id="Arrow1Lend"
       style="overflow:visible;">
      <path
         id="path4158"
         d="M 0.0,0.0 L 5.0,-5.0 L -12.5,0.0 L 5.0,5.0 L 0.0,0.0 z "
         style="fill-rule:evenodd;stroke:#000000;stroke-width:1.0pt;"
         transform="scale(0.8) rotate(180) translate(12.5,0)" />
    </marker>
  </defs>
  <sodipodi:namedview
     id="base"
     pagecolor="#ffffff"
     bordercolor="#666666"
     borderopacity="1.0"
     inkscape:pageopacity="0.0"
     inkscape:pageshadow="2"
     inkscape:zoom="2.8"
     inkscape:cx="38.940468"
     inkscape:cy="122.71726"
     inkscape:document-units="px"
     inkscape:current-layer="layer1"
     showgrid="false"
     inkscape:snap-bbox="true"
     inkscape:bbox-paths="true"
     inkscape:bbox-nodes="true"
     inkscape:snap-bbox-edge-midpoints="true"
     inkscape:snap-bbox-midpoints="true"
     inkscape:object-paths="true"
     inkscape:snap-intersection-paths="true"
     inkscape:object-nodes="true"
     inkscape:snap-smooth-nodes="true"
     inkscape:snap-object-midpoints="true"
     inkscape:snap-midpoints="true"
     inkscape:snap-center="true"
     inkscape:snap-page="true"
     fit-margin-top="0"
     fit-margin-left="0"
     fit-margin-right="0"
     fit-margin-bottom="0"
     inkscape:window-width="1752"
     inkscape:window-height="993"
     inkscape:window-x="88"
     inkscape:window-y="42"
     inkscape:window-maximized="0"
     inkscape:snap-global="false" />
  <metadata
     id="metadata7">
    <rdf:RDF>
      <cc:Work
         rdf:about="">
        <dc:format>image/svg+xml</dc:format>
        <dc:type
           rdf:resource="http://purl.org/dc/dcmitype/StillImage" />
        <dc:title></dc:title>
      </cc:Work>
    </rdf:RDF>
  </metadata>
  <g
     inkscape:label="Layer 1"
     inkscape:groupmode="layer"
     id="layer1"
     transform="translate(-273.29199,-427.42584)">
    <rect
       style="fill:#cccccc;fill-opacity:1;stroke:#cccccc;stroke-width:20;stroke-linecap:round;stroke-linejoin:round;stroke-miterlimit:4;stroke-opacity:1;stroke-dasharray:none"
       id="rect3006"
       width="177.51051"
       height="177.51051"
       x="283.29199"
       y="437.42584"
       ry="35" />
    <g
       transform="matrix(0.28602945,0,0,0.28602945,287.0965,440.97432)"
       id="g3174"
       style="fill:#19a3ff;fill-opacity:1;stroke:none;stroke-opacity:1;stroke-width:6.99228698000000026;stroke-miterlimit:4;stroke-dasharray:none">
      <path
         style="fill:#19a3ff;fill-opacity:1;stroke:none;stroke-opacity:1;stroke-width:6.99228698000000026;stroke-miterlimit:4;stroke-dasharray:none"
         d="M 264.5,594.81938 C 206.97161,590.7378 142.96165,562.09229 95.60763,519.23726 54.160642,481.72805 22.428479,428.66646 8.1275424,372.95563 2.3269874,350.35895 -0.0028826,328.87952 -0.0028826,298 c 0,-30.87952 2.32987,-52.35895 8.130425,-74.95563 C 22.428479,167.33354 54.160642,114.27195 95.60763,76.762739 144.08488,32.891195 206.71898,5.2983079 267.5,1.0371083 c 65.02812,-4.5589525 114.07468,4.4887748 165,30.4379097 76.68558,39.075352 131.94521,108.097192 153.37246,191.569352 5.80055,22.59668 8.13042,44.07611 8.13042,74.95563 0,30.87952 -2.32987,52.35895 -8.13042,74.95563 -11.99839,46.74099 -36.09317,91.4784 -68.6352,127.43674 -41.49155,45.8474 -102.48384,79.99804 -162.73726,91.11941 -22.78599,4.20576 -58.72464,5.52655 -90,3.3076 z m 58.64405,-20.84905 c 18.61344,-1.8507 39.92697,-6.25563 55.85595,-11.54392 7.48226,-2.48405 7.51171,-2.50795 12.45087,-10.10649 2.72298,-4.18911 9.76519,-14.23459 15.64936,-22.32328 5.88417,-8.0887 11.45185,-16.16356 12.37262,-17.94414 0.92078,-1.78059 6.65796,-10.73332 12.7493,-19.89496 13.91852,-20.93408 17.09704,-27.48979 17.60786,-36.31623 0.5483,-9.47401 -0.85134,-12.87033 -6.92611,-16.80664 -8.96242,-5.80745 -14.56605,-14.47781 -24.25857,-37.53467 -2.54327,-6.05 -6.45846,-14.138 -8.70044,-17.97334 l -4.07632,-6.97334 2.00854,-4.02666 c 1.10469,-2.21466 2.49766,-7.97009 3.09547,-12.78984 1.57806,-12.7227 3.50487,-16.65866 10.47298,-21.39362 4.48358,-3.04667 6.92102,-9.57544 6.99618,-18.73952 0.0729,-8.88581 -0.82214,-12.1516 -3.87921,-14.15466 -2.03135,-1.331 -3.03523,-1.38768 -6.45121,-0.36423 -3.44453,1.03201 -4.73442,0.94896 -8.68313,-0.55906 -6.14961,-2.34856 -15.26483,-8.54494 -26.08375,-17.73133 -12.72994,-10.80903 -18.65906,-14.54635 -26.72045,-16.84276 -3.91819,-1.11616 -8.47399,-2.76995 -10.12399,-3.6751 -9.7282,-5.33664 -14.25975,-6.84983 -29.56004,-9.87072 -18.65492,-3.68323 -24.14547,-5.51771 -33.95299,-11.34425 -9.04095,-5.37113 -11.75828,-8.8519 -20.23855,-25.92463 -5.41938,-10.91046 -8.44078,-15.71807 -12.56925,-20 -2.9892,-3.10032 -7.68194,-9.23694 -10.42831,-13.63694 -5.67982,-9.09972 -8.51571,-12.5 -10.42517,-12.5 -2.88008,0 -0.87131,5.58485 7.19621,20.00715 6.33392,11.32314 7.41575,14.69581 5.01002,15.61897 -2.49004,0.95552 -9.77396,-6.63867 -15.46726,-16.12612 -2.64039,-4.4 -11.1601,-20.82779 -18.93268,-36.50619 -17.12381,-34.54113 -16.87524,-32.85791 -7.94444,-53.79733 2.33082,-5.46491 4.19667,-11.653882 4.52221,-15.000003 0.30481,-3.133062 1.26295,-6.509827 2.1292,-7.503922 1.45721,-1.672278 1.11082,-2.701934 -4.63197,-13.768362 C 197.65985,59.088834 195,52.685569 195,50.981638 c 0,-3.777728 -3.40485,-7.360386 -6.34787,-6.679372 -4.82067,1.115503 -13.09327,4.763539 -15.12007,6.66762 C 172.34353,52.086448 170.54335,53 169.53165,53 165.78606,53 146.85042,64.611991 129,77.855409 114.03353,88.9592 89.070969,113.90554 77.741222,129.08089 7.8537193,222.68996 1.925838,344.94566 62.45124,444.41911 c 20.819723,34.2172 52.28403,66.0177 87.04876,87.97887 34.59283,21.85257 79.44401,37.37027 120,41.51785 11.78938,1.20567 41.75985,1.23612 53.64405,0.0545 z M 571.26008,332 c 0.41804,-2.475 1.03252,-14.625 1.36551,-27 0.47676,-17.71798 0.24916,-25.58175 -1.07088,-37 -5.8985,-51.02164 -24.42869,-97.57475 -55.29593,-138.91911 C 504.96211,113.94984 479.97806,88.973245 465,77.837391 439.00913,58.513756 414.18273,45.403612 384.5,35.327531 373.46464,31.581476 354.13853,26.530054 346.75,25.46051 342.41299,24.832696 342,24.950004 342,26.809731 c 0,2.944014 -4.43173,7.770876 -10.88652,11.85715 C 324.95674,42.56447 321,45.892872 321,47.174314 c 0,0.454127 1.4625,0.831027 3.25,0.837555 8.69833,0.03177 18.54489,4.583351 34.66346,16.02323 4.62741,3.28422 8.50961,5.857367 8.62713,5.718105 0.11752,-0.139262 -0.0717,-3.632815 -0.42053,-7.763451 -0.58645,-6.944896 -0.97813,-7.96114 -5.2031,-13.5 -5.53269,-7.253256 -6.15507,-8.781864 -4.49814,-11.047849 1.83792,-2.513509 10.87166,-1.270063 19.97088,2.748886 5.14142,2.270865 9.35792,3.323613 15.22721,3.801831 8.70277,0.709082 12.77864,2.487266 22.88309,9.98322 2.75,2.040079 6.67425,4.022998 8.72056,4.406487 7.55156,1.415202 12.87542,9.351241 11.24699,16.765401 -0.94524,4.303662 -4.26861,5.537648 -10.56674,3.923488 -5.3277,-1.365449 -7.89819,-0.781118 -3.6571,0.831343 1.3866,0.527184 4.68117,3.460526 7.32127,6.518538 5.58317,6.466963 7.26477,7.235421 11.28445,5.156763 2.50621,-1.29601 3.12227,-1.316882 4.09991,-0.138902 0.87553,1.054954 0.80004,2.225108 -0.31589,4.895883 -2.09007,5.002248 -5.66112,7.076258 -10.77575,6.258398 -5.19991,-0.8315 -8.43764,1.11654 -9.34546,5.62288 -1.21918,6.05189 -1.57202,6.5906 -5.29996,8.09197 -4.89122,1.96988 -8.11192,5.55022 -8.29528,9.22158 -0.0816,1.63368 0.16077,7.24533 0.53858,12.47033 0.8615,11.91429 -0.42212,14.53652 -8.7755,17.92691 -9.26104,3.75878 -9.51981,7.79085 -1.60915,25.07309 2.64342,5.775 5.09712,11.69559 5.45267,13.15686 0.99986,4.10926 -0.98811,6.84314 -4.97605,6.84314 -3.14355,0 -3.94909,-0.76804 -11.42172,-10.88993 -9.86418,-13.36133 -13.62547,-15.72615 -23.54016,-14.8003 -4.89066,0.4567 -7.35301,1.34186 -11.50456,4.13565 -5.88579,3.96084 -7.5359,4.22705 -12.73535,2.05458 -5.13161,-2.14412 -8.24911,-1.87381 -14.41645,1.25 -9.6534,4.88954 -13.92038,15.3146 -12.66573,30.94488 0.6291,7.83722 6.23784,20.08445 10.48314,22.89096 8.06477,5.33151 23.22539,-0.85663 29.86791,-12.19124 2.53937,-4.3331 2.65106,-4.3946 7.98039,-4.3946 4.04844,0 5.90056,0.49558 7.37954,1.97456 3.33376,3.33376 3.45323,6.53895 0.64705,17.35852 C 366.30087,255.99217 366.80705,257 379.4947,257 c 7.47473,0 8.66742,0.26554 11.35673,2.52844 3.50982,2.95332 5.38811,7.79059 7.49188,19.29435 2.36155,12.91328 4.71614,15.21636 15.47179,15.13332 7.74341,-0.0598 11.38239,-1.55286 22.31252,-9.15483 5.15481,-3.5852 10.94738,-7.32855 12.87238,-8.31855 8.1535,-4.19325 14.44277,-3.6669 20.58086,1.72241 l 3.52619,3.09603 7.15063,-1.27788 c 11.10837,-1.98518 18.62205,-1.74402 23.8029,0.76399 2.45026,1.18615 9.13569,6.44425 14.85652,11.68468 8.09206,7.41254 11.03935,9.52804 13.27432,9.52804 3.87565,0 8.84754,2.22656 11.43541,5.12112 2.38267,2.66504 3.71807,6.48687 5.43478,15.55404 1.34807,7.12015 3.98143,11.99468 7.19471,13.31792 1.23402,0.50818 4.94368,0.83012 8.24368,0.71544 l 6,-0.20852 0.76008,-4.5 z M 279.59501,22.847328 281.5,20.694657 278.125,21.347328 C 276.26875,21.706298 274.04524,22 273.18387,22 c -1.25123,0 -1.17583,0.295209 0.375,1.468197 2.65736,2.009924 3.81326,1.89103 6.03614,-0.620869 z"
         id="path3188"
         inkscape:connector-curvature="0" />
      <path
         style="fill:#19a3ff;fill-opacity:1;stroke:none;stroke-opacity:1;stroke-width:6.99228698000000026;stroke-miterlimit:4;stroke-dasharray:none"
         d="M 264,594.4389 C 231.35687,591.53565 198.77093,581.89556 164.5,565.00323 105.63511,535.98841 60.011592,490.36489 30.996768,431.5 9.0971145,387.07027 0.04100397,348.01484 0.04100397,298 c 0,-50.01484 9.05611053,-89.07027 30.95576403,-133.5 C 60.011592,105.63511 105.63511,60.011592 164.5,30.996768 208.60338,9.2579729 248.05479,0.04100397 297,0.04100397 c 48.94521,0 88.39662,9.21696893 132.5,30.95576403 C 488.36489,60.011592 533.98841,105.63511 563.00323,164.5 584.90289,208.92973 593.959,247.98516 593.959,298 c 0,50.01484 -9.05611,89.07027 -30.95577,133.5 C 533.98841,490.36489 488.36489,535.98841 429.5,565.00323 404.1141,577.51608 382.79587,585.00266 356.96098,590.47764 332.6937,595.62042 295.23268,597.2167 264,594.4389 z m 55.5987,-19.43858 c 19.44872,-1.72179 40.04588,-5.74146 59.05397,-11.52475 7.27561,-2.21363 8.39004,-2.88365 10.359,-6.22803 1.21348,-2.06115 8.2097,-12.12242 15.54717,-22.35838 7.33746,-10.23596 15.01473,-21.48596 17.06059,-25 2.04587,-3.51404 7.00095,-11.1525 11.01131,-16.97436 13.63804,-19.79842 18.38759,-29.97751 18.3473,-39.32135 C 450.95625,448.53969 447.95,440 446.19269,440 443.80551,440 435.71773,432.34201 431.69854,426.27606 429.2292,422.54923 424.22963,412.525 420.58837,404 c -3.64125,-8.525 -8.26408,-18.1657 -10.27295,-21.42378 l -3.6525,-5.92378 1.78267,-3.07622 c 0.98783,-1.70463 2.38862,-7.64538 3.1417,-13.32398 1.69731,-12.79851 3.33156,-16.1336 10.58581,-21.60297 5.61102,-4.23044 8.49011,-14.9301 6.80441,-25.28745 -1.3488,-8.28733 -3.02058,-9.69729 -10.54289,-8.89172 -5.75075,0.61585 -6.52228,0.42885 -13.82778,-3.35158 -4.32584,-2.23853 -12.66863,-8.14108 -18.92202,-13.38739 C 368.76214,273.53377 359.50707,268 352.68505,268 c -1.26142,0 -4.35368,-1.30653 -6.87169,-2.90341 -6.73795,-4.27308 -14.47816,-6.73728 -31.81336,-10.1282 -12.72315,-2.48876 -17.18665,-3.85077 -24.91467,-7.60256 -13.20536,-6.41094 -16.90595,-10.51337 -25.76967,-28.56795 -5.54764,-11.30005 -8.45371,-15.94865 -13.07419,-20.91375 -3.26756,-3.51127 -7.88298,-9.53413 -10.25649,-13.38413 -7.04149,-11.42181 -10.88078,-14.73179 -12.46905,-10.75 -0.46894,1.17564 1.85908,6.75514 7.09312,16.99989 6.06555,11.8723 7.52503,15.51603 6.58957,16.45149 -0.93547,0.93547 -2.10271,0.32641 -5.27011,-2.74989 -5.75195,-5.58652 -11.43318,-15.09545 -22.39295,-37.48009 C 208.29218,156.26213 201.70747,143.225 198.90287,138 c -5.02407,-9.35988 -5.09195,-9.60324 -4.6023,-16.5 0.3745,-5.27485 1.62328,-9.71095 5.06707,-18 2.56414,-6.171778 4.85908,-13.516458 5.22849,-16.733174 0.36212,-3.153246 1.27613,-6.245846 2.03113,-6.872445 2.09985,-1.742718 1.78797,-2.730059 -4.13996,-13.10608 -3.26471,-5.714426 -5.91641,-11.777995 -6.50271,-14.86957 -1.71709,-9.054145 -4.14311,-10.181302 -13.73632,-6.382033 -3.71155,1.469913 -7.67727,3.525484 -8.81272,4.567935 C 172.3001,51.147085 170.54432,52 169.53381,52 165.81786,52 141.32493,67.326525 125,79.867165 114.10403,88.237338 88.322911,114.00299 79.840077,125 c -30.050573,38.95708 -49.383561,84.11427 -56.98655,133.10682 -3.230438,20.81648 -3.230438,58.96988 0,79.78636 C 30.456516,386.88573 49.789504,432.04292 79.840077,471 88.283639,481.9461 114.0539,507.71636 125,516.15992 c 44.45876,34.29444 97.36424,54.82787 152.5,59.18758 9.42981,0.74564 31.84249,0.56081 42.0987,-0.34718 z M 570.87324,336.23685 C 572.74511,332.73923 574.28372,306.73532 573.66817,289 571.59939,229.39388 551.09269,172.87905 514.15992,125 505.71636,114.0539 479.9461,88.283639 469,79.840077 434.76055,53.42857 394.82945,34.795293 353.76745,26.068446 341.40684,23.441465 341,23.452772 341,26.423275 c 0,3.392898 -4.09172,7.880167 -11.02729,12.093301 -6.09941,3.705198 -10.35656,8.053326 -9.40007,9.600961 C 320.87261,48.602892 322.90567,49 325.09056,49 c 4.79371,0 14.69783,3.208873 19.73815,6.395036 2.01921,1.276414 7.89203,5.3097 13.05072,8.962858 10.48336,7.423858 12.66916,8.196353 11.01284,3.892106 -0.58202,-1.5125 -1.0467,-4.880648 -1.03262,-7.484774 0.0256,-4.738128 -1.30764,-7.399199 -8.6776,-17.31983 -1.47262,-1.982275 -2.02335,-3.6954 -1.56879,-4.879957 1.07895,-2.811694 11.10594,-1.527676 19.78454,2.533533 5.24978,2.456666 8.68213,3.330916 14.49072,3.690906 8.52283,0.528208 12.68514,2.267172 23.05676,9.632841 3.54491,2.517505 7.36991,4.578963 8.5,4.581019 7.50018,0.01365 14.10734,11.358122 10.51954,18.062003 -1.18024,2.205287 -6.73962,2.660335 -10.15705,0.831378 -1.53311,-0.820491 -2.7325,-0.784043 -4.68426,0.142352 l -2.62351,1.245232 3.19345,0.871587 c 2.02703,0.553237 5.08646,3.048031 8.37619,6.830312 6.01004,6.909894 7.70578,7.698014 11.89835,5.529953 2.64123,-1.365838 3.14505,-1.385557 3.62233,-0.141783 0.7332,1.910692 -2.10857,7.297036 -4.53493,8.595588 -1.05815,0.5663 -4.40297,1.02964 -7.43294,1.02964 -6.19241,0 -8.08173,1.60082 -9.25207,7.83924 -0.45883,2.44575 -1.51165,3.8674 -3.72836,5.03446 -1.69893,0.89447 -4.62393,3.10431 -6.49998,4.91078 l -3.41099,3.28447 0.77063,9.71553 c 1.34444,16.94947 0.90857,18.25965 -7.27928,21.88071 -3.08454,1.36413 -6.18212,3.23501 -6.88352,4.15752 -2.3833,3.13461 -1.53091,10.19228 2.25575,18.67729 7.1583,16.04005 7.64426,17.41203 7.03179,19.85232 -0.67346,2.68328 -2.99267,3.9836 -5.61854,3.15018 -0.9407,-0.29857 -5.17956,-5.23892 -9.4197,-10.97855 -9.74745,-13.19459 -12.45996,-14.98272 -22.43856,-14.79184 -6.79097,0.12991 -7.90803,0.45779 -12.62313,3.7052 -5.65199,3.89268 -9.0258,4.39009 -13.62951,2.00942 -7.26229,-3.75548 -19.28736,2.00205 -24.16304,11.56911 -3.33011,6.53435 -4.55303,16.93763 -2.89814,24.65414 1.70614,7.95543 7.06782,18.30001 10.60213,20.45527 8.7513,5.33661 24.95742,-1.13923 30.6179,-12.23468 2.21442,-4.34062 6.43582,-5.79474 11.37308,-3.9176 6.25486,2.37809 6.7768,5.79363 3.05234,19.97423 -3.00126,11.42711 -3.0344,12.49965 -0.46554,15.06851 1.72527,1.72527 3.14489,1.98294 9.85241,1.78828 12.25023,-0.35551 15.33138,2.55621 17.79173,16.81342 2.16951,12.57181 3.33683,15.46593 7.34015,18.1984 3.15776,2.15533 4.21067,2.33112 10.76779,1.79781 8.39983,-0.68319 11.3262,-2.00739 25.55502,-11.56379 15.55175,-10.44492 20.6054,-11.22699 28.55839,-4.41952 l 4.20666,3.60074 9.00479,-1.74905 c 16.09472,-3.12615 21.17813,-1.38389 36.10222,12.37349 9.78839,9.02316 11.49753,10.14295 15.48939,10.14825 3.42461,0.005 8.65053,3.05139 10.76265,6.27489 0.85557,1.30576 2.45446,6.58038 3.55309,11.72137 2.28025,10.67033 3.84554,13.59219 8.32548,15.54087 4.77034,2.07499 13.37074,1.89526 14.54776,-0.30402 z M 280.13092,23.75 c 2.71562,-2.003373 4.02652,-2.217758 11.9595,-1.955851 C 297.80243,21.98273 301,21.713562 301,21.044149 301,20.413336 298.09078,20 293.65088,20 283.25478,20 271,21.144167 271,22.114799 c 0,0.652347 4.55081,3.674302 5.79049,3.845163 0.15977,0.02202 1.66296,-0.972462 3.34043,-2.209962 z"
         id="path3186"
         inkscape:connector-curvature="0" />
      <path
         style="fill:#19a3ff;fill-opacity:1;stroke:none;stroke-opacity:1;stroke-width:6.99228698000000026;stroke-miterlimit:4;stroke-dasharray:none"
         d="M 266.36578,594.46724 C 189.41695,586.83447 113.89759,546.01565 66.067698,486.20453 35.529347,448.01641 13.370336,399.70224 4.5291909,352.02968 2.069309,338.76569 0,314.08046 0,298 0,251.94921 9.6027235,209.67642 29.417329,168.5 59.551469,105.87872 105.76914,59.654314 168.5,29.397068 200.83236,13.80206 232.70222,4.849239 267.88094,1.4791611 323.16458,-3.816944 376.06516,5.5529479 425.5,29.397068 488.23086,59.654314 534.44853,105.87872 564.58267,168.5 c 15.682,32.58851 24.56746,64.19565 27.93817,99.38094 2.57268,26.855 1.35742,60.3832 -3.05003,84.14874 -8.84115,47.67256 -31.00016,95.98673 -61.53851,134.17485 -42.70191,53.3986 -108.65596,92.4241 -177.90262,105.26628 -23.25872,4.31346 -57.8843,5.55358 -83.6639,2.99643 z M 324.5,574.91393 c 14.56623,-1.44947 30.27349,-4.37955 44.5,-8.30119 17.47984,-4.81844 17.34084,-4.74413 22.09097,-11.81028 2.33021,-3.46635 9.72854,-13.95246 16.44073,-23.30246 6.71219,-9.35 13.00506,-18.575 13.98416,-20.5 0.9791,-1.925 6.17433,-10.025 11.54495,-18 16.19705,-24.05148 20.63453,-35.13712 17.97625,-44.90802 -1.20301,-4.42183 -3.16996,-6.75226 -10.88852,-12.90056 -7.21431,-5.74664 -12.38537,-14.71486 -22.09762,-38.32413 -1.72695,-4.19799 -4.69488,-10.21501 -6.59541,-13.37116 -3.93465,-6.53412 -4.02279,-7.05172 -1.91894,-11.26898 0.84511,-1.69407 1.98625,-7.05071 2.53585,-11.90364 1.21018,-10.68564 3.87196,-16.6231 9.04897,-20.18492 5.34185,-3.67525 7.96248,-9.46426 8.55652,-18.90148 0.5769,-9.16515 -1.09734,-15.0182 -4.91497,-17.18239 -2.17904,-1.23529 -3.14679,-1.24816 -6.66035,-0.0886 -4.00816,1.32281 -4.31691,1.25369 -12.35673,-2.76653 C 400.42778,298.54037 393.41681,293.63511 386,287.38433 371.25647,274.95869 364.68836,270.72494 356.83632,268.58569 353.35134,267.63622 346.45,264.87218 341.5,262.44337 c -6.02509,-2.95632 -11.80964,-4.92906 -17.5,-5.96816 -20.02709,-3.65707 -27.40331,-5.74315 -36.19317,-10.23585 -11.85063,-6.05713 -15.53454,-10.3391 -24.60573,-28.60028 -5.62891,-11.33156 -8.49134,-15.88838 -12.51062,-19.91624 -2.86645,-2.87256 -7.83769,-9.39011 -11.0472,-14.48344 -6.37527,-10.11724 -9.18299,-12.86629 -11.32513,-11.08848 -2.30649,1.91422 -1.47925,4.60608 5.68185,18.48902 8.50051,16.47959 8.93541,18.59018 2.9132,14.13777 -4.64751,-3.43606 -11.5298,-15.01059 -25.43965,-42.78406 C 204.45113,147.97214 197.76207,134.7 196.60897,132.5 c -3.53887,-6.75183 -2.81236,-13.89721 2.79609,-27.5 2.88365,-6.994061 4.96281,-13.749929 5.30638,-17.242239 0.31071,-3.158231 1.17775,-6.250831 1.92674,-6.872444 2.31557,-1.921749 1.53819,-5.125846 -3.21277,-13.241908 C 198.60124,59.402276 196,53.112462 196,49.688725 c 0,-2.722942 -3.8128,-6.68992 -6.42431,-6.684094 -2.93369,0.0065 -12.61621,4.095482 -15.99901,6.756396 C 172.01116,50.992462 169.83705,52 168.74531,52 166.3179,52 146.46634,63.68916 135.35906,71.658772 97.742905,98.648829 69.259628,132.38825 48.5391,174.5 19.148052,234.23344 11.925498,301.46074 28.019046,365.5 53.415591,466.55764 129.18084,542.32968 230.5,567.9991 c 31.27869,7.92452 61.5069,10.14817 94,6.91483 z M 572.23796,333 c 0.43294,-2.475 1.18029,-11.35771 1.66078,-19.73935 C 578.26208,237.14749 550.02799,160.44926 497.18922,104.87832 469.19545,75.437059 431.37408,50.97289 391.5,36.514877 377.88604,31.578569 351.34414,24.419862 344.50327,23.83923 340.82761,23.527252 340.50221,23.700837 340.45276,26 c -0.0894,4.157417 -1.89286,6.180792 -11.11737,12.473113 -5.98277,4.081027 -8.93707,6.741917 -9.15031,8.241541 -0.34742,2.443241 0.54161,2.786439 9.49653,3.665983 6.60569,0.648806 10.8679,2.798039 26.55135,13.3886 7.00312,4.729002 13.01765,8.313487 13.36562,7.965521 0.34796,-0.347966 0.13063,-2.072786 -0.48296,-3.832935 C 368.50203,66.141675 368,62.461245 368,59.723091 368,55.314886 367.42728,53.972065 363,48 c -7.533,-10.161456 -6.59124,-12.314195 4.24688,-9.707831 3.43922,0.827066 8.95312,2.663992 12.25312,4.082058 4.15047,1.783528 7.84953,2.592389 12,2.624 7.06937,0.05384 11.63921,1.918164 21.79498,8.891519 3.96276,2.720991 9.08467,5.44243 11.38202,6.047642 4.84496,1.276352 9.26672,5.909492 9.43815,9.889337 0.39395,9.145306 -1.15462,10.191008 -11.31147,7.638305 -3.01721,-0.758309 -7.97457,2.117251 -9.92144,5.755014 -1.10776,2.069866 -1.0976,2.069495 1.9064,-0.06954 4.37773,-3.117217 6.69417,-2.694242 10.94924,1.9993 8.1446,8.983882 8.26748,9.079294 11.07146,8.596419 1.47986,-0.254849 3.47816,-0.80015 4.44066,-1.21178 2.66327,-1.138993 2.25601,2.765764 -0.63957,6.132069 -2.105,2.447208 -3.00537,2.751238 -7.56065,2.553038 -7.66089,-0.33333 -9.57533,1.30396 -11.43598,9.78045 -0.37459,1.70652 -2.0667,3.29348 -5.33128,5 -3.2798,1.71447 -5.35037,3.66176 -6.58973,6.19737 -1.64702,3.36963 -1.69862,4.56748 -0.58215,13.51362 1.55654,12.47224 0.71908,14.6542 -7.08314,18.45467 -10.93874,5.32828 -11.38861,9.42515 -3.03379,27.62799 5.94501,12.95253 6.3982,17.48809 1.80038,18.01852 -2.38164,0.27476 -3.54054,-0.81297 -9.67073,-9.07681 -11.34023,-15.28727 -14.90949,-17.49832 -26.67253,-16.52284 -3.99548,0.33134 -6.59367,1.26462 -9.70365,3.48559 -5.82121,4.15719 -7.96833,4.65416 -12.2959,2.84598 -16.72424,-6.98783 -33.33269,12.08863 -29.53103,33.91935 1.30266,7.48045 5.95181,18.1636 9.2346,21.21995 4.66014,4.33869 10.36003,5.2936 17.14716,2.87267 6.18338,-2.20556 11.81249,-6.70416 15.3986,-12.30606 3.2112,-5.01623 3.55492,-5.25 7.71933,-5.25 9.00932,0 10.66218,4.8528 6.64285,19.50339 -4.10721,14.97091 -2.60045,17.78366 9.4297,17.60282 12.6707,-0.19046 14.9895,2.18011 17.99219,18.39379 2.93604,15.85384 5.40649,18.5072 17.21566,18.49023 8.07365,-0.0116 14.01133,-2.43804 24.32774,-9.94156 11.19507,-8.14261 16.21761,-10.37561 22.07193,-9.81308 4.09659,0.39363 5.7236,1.16275 8.78642,4.15351 l 3.75886,3.67043 6.42736,-1.51498 c 9.0209,-2.12631 19.41656,-1.95955 24.60167,0.39464 2.29588,1.04239 7.69588,5.21999 12,9.28355 10.21482,9.64389 13.10229,11.77726 15.9403,11.77726 4.29015,0 10.28782,3.10482 12.2682,6.3509 1.05668,1.732 2.69021,6.9741 3.63007,11.6491 2.96168,14.73178 5.37918,17.11638 16.96251,16.73167 L 571.45079,337.5 572.23796,333 z M 280.34018,23.961792 c 2.88418,-1.701707 4.86015,-1.990626 11.96857,-1.75 4.68273,0.158514 8.87839,-0.07376 9.32369,-0.516165 1.81526,-1.803458 -2.60396,-2.53495 -12.58242,-2.082707 -19.27217,0.873451 -22.05198,1.694618 -16.30002,4.815105 3.55203,1.927007 3.53184,1.928247 7.59018,-0.466233 z m 50.09506,-0.857007 C 331.01942,22.159553 328.80639,21 326.41821,21 c -2.0147,0 -1.76146,1.763652 0.33179,2.310674 2.85064,0.74495 3.10642,0.73066 3.68524,-0.205889 z"
         id="path3184"
         inkscape:connector-curvature="0" />
      <path
         style="fill:#19a3ff;fill-opacity:1;stroke:none;stroke-opacity:1;stroke-width:6.99228698000000026;stroke-miterlimit:4;stroke-dasharray:none"
         d="M 277.5,595.41265 C 231.18608,590.81682 199.2114,581.84631 162.19455,563.06366 132.70969,548.1028 111.7257,532.78976 87.467971,508.53203 62.110897,483.17496 46.904277,461.99496 31.443241,430.5 15.518571,398.06059 6.481763,367.97067 1.861057,332 c -1.77268839,-13.79979 -1.77268839,-54.20021 0,-68 C 8.9253082,209.00714 29.526684,158.4225 62.628999,114.79033 72.674457,101.54941 101.54941,72.674457 114.79033,62.628999 149.01984,36.66018 189.03404,17.609484 229.26906,8.1258633 253.81875,2.339363 269.76582,0.55738548 297,0.55738548 c 49.10797,0 90.6645,9.98147452 134.80545,32.37895652 29.48486,14.960857 50.46885,30.273901 74.72658,54.531629 25.35707,25.357069 40.56369,46.537069 56.02473,78.032029 15.92467,32.43941 24.96148,62.52933 29.58218,98.5 1.77269,13.79979 1.77269,54.20021 0,68 -7.06425,54.99286 -27.66562,105.5775 -60.76794,149.20967 -10.04546,13.24092 -38.92041,42.11587 -52.16133,52.16133 -43.10932,32.70565 -91.13686,52.61361 -145.20967,60.19105 -10.11518,1.41749 -48.27055,2.66722 -56.5,1.8506 z M 319,575.98439 c 20.34667,-1.76663 37.80448,-5.15071 57.74176,-11.19285 l 10.24175,-3.10383 7.02731,-10.34094 c 3.86502,-5.68751 10.88876,-15.62974 15.60832,-22.09385 4.71956,-6.46411 10.41448,-14.90292 12.65538,-18.75292 2.2409,-3.85 7.81316,-12.45323 12.38281,-19.1183 20.10418,-29.32299 22.5154,-44.62236 8.53726,-54.16955 -7.81801,-5.33977 -13.71064,-14.38688 -21.71327,-33.337 -3.6291,-8.59367 -8.20933,-18.20031 -10.17828,-21.3481 l -3.57991,-5.72324 1.74373,-3.6519 c 0.95905,-2.00855 2.36047,-8.04074 3.11428,-13.40485 1.6456,-11.71027 2.88898,-14.33799 9.3704,-19.80321 6.64126,-5.59999 8.43995,-10.87224 7.85847,-23.0344 -0.36822,-7.7017 -0.74577,-9.21299 -2.86704,-11.47637 -2.28323,-2.43619 -2.84497,-2.56378 -8.59075,-1.95121 -5.42717,0.5786 -6.77513,0.34059 -11.5,-2.03059 -6.81014,-3.41767 -12.39646,-7.40572 -24.03712,-17.15999 C 377.69179,279.99823 371.25,275.0689 368.5,273.33723 363.65799,270.28822 355.37856,267 352.54344,267 c -0.76266,0 -5.15835,-1.9729 -9.7682,-4.38423 -8.55439,-4.47465 -10.01009,-4.89167 -31.77524,-9.10295 -9.86376,-1.90851 -14.47436,-3.39843 -21.86162,-7.06463 -12.84429,-6.37446 -16.40369,-10.34686 -24.95579,-27.85144 -5.44721,-11.14945 -8.25963,-15.61668 -13.29559,-21.11868 -3.51285,-3.83794 -8.33377,-10.21183 -10.71315,-14.16421 -6.94036,-11.5286 -10.76275,-14.65778 -13.00677,-10.64794 -1.35996,2.43012 -0.0621,5.96772 7.28236,19.84968 3.60281,6.80975 6.55056,12.62955 6.55056,12.93289 0,1.57495 -2.97334,0.16707 -5.69899,-2.69849 -4.95599,-5.21038 -9.48357,-13.04886 -21.59462,-37.38613 -6.25781,-12.57513 -13.02676,-25.93874 -15.04211,-29.69692 -5.66602,-10.56585 -5.24499,-15.37213 3.12757,-35.702729 1.70687,-4.144679 3.28575,-9.848107 3.50863,-12.674286 0.23794,-3.01716 1.09924,-5.832515 2.08632,-6.819593 2.14832,-2.148315 1.61195,-3.944114 -4.17266,-13.970342 -2.53857,-4.4 -5.33609,-10.893854 -6.21671,-14.430787 -1.16961,-4.69765 -2.32568,-6.97175 -4.2896,-8.438025 l -2.68847,-2.007238 -5.27901,2.188025 C 181.8369,45.015389 178.94207,46 178.3074,46 c -0.63467,0 -2.42598,1.056558 -3.98067,2.347906 -1.5547,1.291349 -4.01907,2.638587 -5.47637,2.993863 -3.61,0.880083 -15.25495,7.558885 -27.56627,15.81025 C 72.253638,113.41802 27.407579,190.28464 20.019965,275 13.01576,355.31872 43.309293,438.13869 100.62239,495.36023 157.76454,552.4111 240.15696,582.83006 319,575.98439 z m 146.61128,-56.66363 c 3.5732,-3.13508 3.64531,-3.29384 0.88872,-1.95669 -1.65,0.80038 -4.8,3.10033 -7,5.111 -3.67581,3.35948 -3.74784,3.51806 -0.88872,1.95669 1.7112,-0.9345 4.8612,-3.23444 7,-5.111 z m 106.1485,-181.74721 c 2.32262,-2.32262 3.87769,-42.68878 2.3447,-60.86294 C 564.46755,162.46174 490.27099,68.031898 382.68555,33.092026 369.40154,28.777859 352.98413,24.60156 344.75,23.441888 l -4.75,-0.668976 0,2.978686 c 0,4.187629 -2.81567,7.30323 -11.48121,12.704228 -7.1465,4.454213 -9.74272,7.754804 -8.13987,10.348266 0.31197,0.50477 3.39183,1.150546 6.84415,1.435058 8.03489,0.662172 14.77625,3.880811 27.94137,13.340514 9.40166,6.7555 14.23403,9.355198 15.33784,8.251386 0.22503,-0.225029 -0.25835,-2.346554 -1.07417,-4.714501 -0.84572,-2.454723 -1.22546,-5.679865 -0.88343,-7.503045 0.6034,-3.216354 -0.91093,-6.13639 -8.43681,-16.268436 -1.3497,-1.817104 -2.02288,-3.673575 -1.58751,-4.378019 1.0687,-1.729187 11.50826,-0.502432 16.24195,1.908594 C 380.50939,43.802828 388.85002,46 394.21474,46 c 5.54444,0 10.8725,2.421782 20.73054,9.422719 C 418.49019,57.940224 422.22503,60 423.24494,60 c 8.17578,0 14.58084,13.44715 8.34973,17.529924 -2.1868,1.43285 -2.74653,1.433466 -6.16106,0.0068 -4.68453,-1.957323 -6.06689,-1.52068 -10.91989,3.449246 -4.57019,4.680297 -4.29675,6.042854 0.50217,2.502323 C 416.87086,82.119725 419.05602,81 419.8718,81 c 0.81579,0 4.21855,2.944695 7.56169,6.543767 6.11842,6.586799 7.77175,7.359158 12.81651,5.987264 3.26735,-0.888537 3.40608,-0.119348 0.76096,4.218969 -1.90552,3.12528 -2.22879,3.25 -8.42368,3.25 -5.67453,0 -6.67562,0.29684 -8.40178,2.4913 -1.07781,1.37022 -2.25231,4.0513 -2.61,5.95796 -0.53828,2.86926 -1.51908,3.93948 -5.69156,6.21043 -7.75771,4.22227 -9.08681,8.42388 -6.8963,21.80088 1.65314,10.09543 -0.79182,15.06595 -8.32376,16.92191 -1.55987,0.38437 -3.97419,1.83692 -5.36515,3.22788 -3.95332,3.95332 -2.93539,11.03089 3.61594,25.14121 5.31545,11.44847 5.89209,14.72527 2.91915,16.58831 -2.2772,1.42705 -3.77917,0.0484 -12.00544,-11.01981 -3.75257,-5.04897 -8.06572,-10.06494 -9.58478,-11.14661 -7.15573,-5.09533 -18.89463,-4.80934 -26.30576,0.64086 -4.80543,3.53396 -7.92235,3.92575 -13.31294,1.67342 -6.95714,-2.90688 -16.4358,0.62002 -22.28836,8.29324 -7.92133,10.38556 -8.29895,26.54684 -0.9631,41.21902 4.1029,8.20606 7.93265,11 15.0781,11 8.88554,0 17.44859,-5.6679 24.93105,-16.50193 1.65299,-2.3934 2.36372,-2.66131 5.82761,-2.1967 4.96995,0.66661 7.7898,3.17247 7.7898,6.9224 0,1.60258 -1.13321,7.38428 -2.51825,12.84822 -1.47357,5.81322 -2.2523,10.99401 -1.87718,12.48864 1.06854,4.25739 4.5742,5.81012 11.4866,5.08763 6.99277,-0.73089 11.87287,0.84103 14.35053,4.62241 0.87849,1.34075 2.46939,7.01473 3.53534,12.60883 3.28124,17.22004 5.62563,19.73998 18.06223,19.41483 9.22178,-0.24111 11.01086,-1.02042 26.93407,-11.73238 15.14781,-10.19032 20.12241,-10.80683 28.4193,-3.52207 l 3.61482,3.17385 8.69794,-1.72595 C 497.87455,278.27929 503.35387,280.13284 518,293.76556 527.55733,302.66159 529.62179,304 533.78638,304 c 1.60482,0 4.4469,1.02055 6.31574,2.26789 3.61607,2.41351 5.66171,7.31484 7.92662,18.99211 1.29298,6.66623 4.67065,11.27581 9.30417,12.6976 2.79628,0.85804 13.4689,0.57393 14.42687,-0.38405 z M 280.13171,24.75 c 2.69435,-1.987169 4.04484,-2.216339 11.56106,-1.961838 8.20828,0.277935 12.05907,-0.762648 10.7372,-2.901469 -1.13642,-1.838777 -32.48289,-0.269204 -33.11644,1.658199 -0.26312,0.800477 5.94534,5.311024 7.47696,5.432137 0.15977,0.01263 1.66332,-0.989529 3.34122,-2.227029 z M 332,22.5 c 0,-1.127271 -1.18031,-1.492097 -4.75,-1.468197 -4.39396,0.02942 -4.6045,0.141852 -2.80887,1.5 C 327.03405,24.492993 332,24.472099 332,22.5 z"
         id="path3182"
         inkscape:connector-curvature="0" />
      <path
         style="fill:#19a3ff;fill-opacity:1;stroke:none;stroke-opacity:1;stroke-width:6.99228698000000026;stroke-miterlimit:4;stroke-dasharray:none"
         d="M 278.5,595.38882 C 251.40173,593.22779 220.09501,586.24074 192.68059,576.2356 178.11709,570.92052 146.4622,554.77122 133,545.7885 89.36558,516.6732 56.076152,479.02424 32.644033,432.29004 16.930863,400.95091 8.5633904,373.67973 2.3328017,333.5 c -2.39089066,-15.41834 -2.39089066,-55.58166 0,-71 C 8.5633904,222.32027 16.930863,195.04909 32.644033,163.70996 56.076152,116.97576 89.36558,79.326795 133,50.211499 146.4622,41.228777 178.11709,25.079479 192.68059,19.7644 215.56304,11.413246 234.85292,6.5970217 262.5,2.3321538 c 15.33317,-2.36531174 53.66683,-2.36531174 69,0 40.68622,6.2762994 65.96812,14.1103242 99,30.6768262 43.91903,22.026744 78.66617,51.452908 106.45941,90.15684 24.87683,34.64264 42.93826,76.39984 50.96736,117.83418 4.75545,24.54059 5.44618,31.76976 5.44618,57 0,25.23024 -0.69073,32.45941 -5.44618,57 -8.0291,41.43434 -26.09053,83.19154 -50.96736,117.83418 -27.79324,38.70393 -62.54038,68.1301 -106.45941,90.15684 -32.72666,16.41343 -57.71658,24.25683 -95.85768,30.08613 -12.73224,1.94594 -44.38541,3.24926 -56.14232,2.31167 z m 48.99895,-19.90796 c 20.84723,-2.43863 55.3221,-10.4276 59.32141,-13.74674 0.76447,-0.63445 3.21636,-3.87168 5.44865,-7.19383 2.23229,-3.32216 9.5505,-13.69029 16.26269,-23.04029 6.71219,-9.35 13.00778,-18.575 13.99019,-20.5 0.98242,-1.925 6.16522,-10.025 11.51735,-18 15.36781,-22.899 19.86094,-33.72643 18.05148,-43.5 -1.09221,-5.89943 -2.47193,-7.88829 -8.81911,-12.71262 -8.2159,-6.24471 -13.22476,-13.99079 -21.36888,-33.04647 -3.93942,-9.21751 -8.45412,-18.79563 -10.03266,-21.28473 -3.25145,-5.12701 -3.44161,-6.44896 -1.47531,-10.25584 0.76712,-1.48519 1.88386,-6.7037 2.48165,-11.5967 1.32398,-10.83704 4.0547,-16.86791 9.17056,-20.25342 4.52956,-2.99752 6.79487,-7.37943 8.27152,-16.00006 1.4424,-8.42069 -0.18209,-16.88967 -3.85555,-20.10016 -2.9287,-2.55959 -4.46691,-2.73962 -9.0983,-1.06489 -3.01399,1.08987 -3.9438,0.85187 -11.57099,-2.96182 C 400.46517,297.55898 393.38849,292.62284 386,286.41676 379.675,281.10398 372.63872,275.47542 370.36383,273.90885 365.81121,270.77377 356.94385,267 354.12985,267 c -0.98785,0 -5.18158,-1.78365 -9.31938,-3.96367 -8.23899,-4.34074 -16.28385,-6.71349 -33.81047,-9.97207 -9.03867,-1.68049 -13.66775,-3.19142 -21.62833,-7.0595 -13.05094,-6.34151 -16.1993,-9.90272 -25.43261,-28.7676 -5.69266,-11.63084 -8.22215,-15.65069 -12.60807,-20.03661 -3.01768,-3.01768 -7.74067,-9.13481 -10.49554,-13.59362 C 234.63235,173.56707 232.29257,171 229.34474,171 c -1.66669,0 -2.49291,0.74218 -2.97805,2.67513 -0.53207,2.11995 0.82023,5.59614 6.51606,16.75 3.95311,7.74118 7.17167,14.49656 7.15236,15.01196 -0.0676,1.8037 -6.34298,-4.99532 -10.55629,-11.43709 -2.33826,-3.575 -9.20666,-16.46982 -15.26312,-28.65516 -6.05646,-12.18534 -12.7442,-25.23534 -14.86164,-29 -3.37448,-5.9996 -3.84886,-7.6475 -3.84157,-13.34484 0.007,-5.45276 0.78506,-8.40748 4.82938,-18.33927 2.68972,-6.605253 5.06762,-14.228225 5.37878,-17.243067 0.30675,-2.972093 1.17009,-5.912023 1.91854,-6.533179 2.36513,-1.962886 1.51546,-4.984244 -4.23108,-15.045358 -3.42463,-5.995899 -5.79892,-11.446974 -6.12609,-14.064737 C 196.67638,46.928526 192.79393,42 189.58223,42 186.70658,42 177.10895,45.950964 173.31672,48.695867 171.56592,49.96314 169.3745,51 168.44689,51 166.04113,51 145.28842,63.488829 133.5,72.030787 70.432814,117.72962 29.725564,187.79768 20.519136,266.50105 c -1.947105,16.64529 -1.947105,46.35261 0,62.9979 6.626363,56.64706 29.638923,109.20222 66.557372,152.00105 44.600382,51.70435 108.917682,85.54315 178.619922,93.97604 15.20499,1.83956 46.09718,1.84198 61.80252,0.005 z M 462.5,522.38472 c 8.21298,-5.93414 10.89435,-8.3237 10.16199,-9.05606 C 471.46813,512.1348 451,527.2161 451,529.28962 c 0,1.06195 2.80302,-0.62106 11.5,-6.9049 z M 571.77106,337.75 c 3.20572,-3.94423 4.29129,-49.18054 1.7098,-71.24895 C 559.30804,145.34123 471.41342,49.179644 352.25764,24.470558 c -6.36103,-1.319073 -11.96455,-2.151699 -12.45225,-1.85028 -0.48771,0.30142 -0.62953,1.358456 -0.31515,2.34897 1.06964,3.370147 -1.77122,6.963071 -9.53655,12.061156 -9.02552,5.925422 -11.26141,8.133205 -10.77814,10.642628 0.27255,1.415256 1.68694,1.984996 6.33765,2.55292 9.35556,1.142458 13.94994,3.271241 29.15647,13.509506 15.29169,10.295601 18.48584,11.274326 15.79766,4.840584 C 369.6603,66.644549 369,62.9952 369,60.466377 369,55.281761 368.2718,53.620878 362.83671,46.409131 360.72652,43.609154 359,40.51368 359,39.530301 c 0,-1.577832 0.61472,-1.706417 5.23054,-1.094107 2.8768,0.381621 8.34045,2.058805 12.14146,3.727077 4.76554,2.091608 9.42808,3.263713 15.01946,3.775706 8.88093,0.813212 11.94317,2.070838 21.47262,8.818542 3.50024,2.478486 8.22524,4.924408 10.5,5.435382 2.27475,0.510974 5.15348,1.884798 6.39716,3.052941 3.06373,2.877657 4.75809,9.318927 3.29564,12.528673 -1.16906,2.565807 -1.36594,2.577761 -10.82265,0.657127 -2.94553,-0.59823 -3.72999,-0.195999 -8,4.101981 -5.05074,5.083834 -4.49286,7.512375 0.82291,3.582254 C 416.63117,82.952145 418.77141,82 419.81322,82 c 1.0496,0 4.56809,2.89826 7.891,6.5 6.10053,6.612445 8.35493,7.609076 12.36152,5.464816 2.91558,-1.560372 2.5295,1.53085 -0.5795,4.639849 -2.20946,2.209465 -3.05703,2.432285 -7.00182,1.840725 -6.04705,-0.906808 -8.99549,1.08538 -10.80847,7.30302 -1.13731,3.9004 -2.14291,5.1853 -5.67487,7.25096 -8.22196,4.80859 -8.99242,7.20181 -7.56575,23.50063 0.72046,8.23068 0.61311,9.2198 -1.25583,11.57136 -1.12399,1.41424 -3.78864,3.09418 -5.92145,3.73318 -9.40476,2.81773 -11.05794,10.04039 -5.30918,23.19546 8.91604,20.40284 9.24533,22 4.53576,22 -1.7529,0 -4.02257,-2.33163 -9.52326,-9.78323 -3.97203,-5.38078 -9.07576,-11.11828 -11.34162,-12.75 -3.76115,-2.70853 -4.82335,-2.96561 -12.20298,-2.9534 -7.73878,0.0128 -8.32231,0.17802 -13.69359,3.87736 -5.82746,4.01352 -6.95395,4.14652 -13.27278,1.56701 -4.23014,-1.72686 -11.3785,-0.47551 -16.34747,2.86169 -8.92328,5.99294 -12.59464,15.0129 -11.91307,29.26853 0.37622,7.86896 0.8578,9.66805 4.62064,17.26177 3.67755,7.42162 4.73737,8.73707 8.5108,10.56376 5.36445,2.59689 8.18645,2.61713 14.89119,0.10681 6.65988,-2.49352 12.05059,-6.9067 15.38352,-12.59392 2.37726,-4.05648 2.92586,-4.42638 6.56475,-4.42638 8.72437,0 9.87314,3.05883 6.35749,16.92801 -4.48084,17.67682 -3.35501,20.07199 9.4347,20.07199 13.00225,0 14.8161,1.75363 17.58377,17 3.01641,16.61657 6.09755,20.00757 18.16362,19.99023 8.10996,-0.0116 14.01029,-2.43728 24.51617,-10.07861 10.46651,-7.6127 15.3268,-9.91162 20.95477,-9.91162 4.29858,0 5.38706,0.47347 9.22819,4.0141 l 4.35479,4.01411 6.63809,-1.53948 c 3.65095,-0.84671 9.72022,-1.56833 13.48728,-1.6036 8.88248,-0.0832 12.66351,1.8513 23.41749,11.98089 10.19056,9.59888 11.95685,10.74165 17.89554,11.57826 6.34046,0.8932 10.21786,5.25736 11.76818,13.24554 3.44882,17.77037 6.44951,21.31018 18.0646,21.31018 4.17523,0 7.1153,-0.47447 7.74562,-1.25 z M 280.27098,25.25 c 1.47429,-1.337861 4.31654,-1.867754 12.06859,-2.25 8.62713,-0.425395 10.1899,-0.761119 10.47361,-2.25 0.30184,-1.584022 -0.75029,-1.75 -11.09316,-1.75 -14.33372,0 -23.723,0.947416 -23.71023,2.392456 0.0112,1.270524 6.78125,5.49693 8.91147,5.563277 0.78169,0.02435 2.28906,-0.743233 3.34972,-1.705733 z M 333,22.5 c 0,-0.825 -0.5625,-1.504953 -1.25,-1.511006 -0.6875,-0.0061 -2.9375,-0.289932 -5,-0.630842 -2.98486,-0.493367 -3.75,-0.304087 -3.75,0.927672 0,1.922761 1.45011,2.534178 6.25,2.635229 C 331.95175,23.977932 333,23.580702 333,22.5 z"
         id="path3180"
         inkscape:connector-curvature="0" />
    </g>
    <path
       style="fill:#0592ff;fill-opacity:1;stroke:#0592ff;stroke-opacity:1"
       d="m 92.691429,177.5493 c -10.81475,-0.63684 -23.9783,-4.82744 -34.5399,-10.99575 -6.153478,-3.59382 -13.430384,-9.80839 -19.30734,-16.4887 -7.720159,-8.77548 -14.161104,-21.7692 -16.995308,-34.28572 -1.720456,-7.59794 -2.279505,-18.716289 -1.319893,-26.249996 1.753983,-13.770139 6.57373,-26.078603 14.689859,-37.514343 2.594185,-3.655242 10.306035,-11.719329 14.228322,-14.878197 4.882882,-3.932495 8.576067,-6.24426 14.719767,-9.213908 4.016461,-1.941414 4.533107,-1.857561 5.49695,0.892163 0.413114,1.178571 1.260397,3.136961 1.88285,4.351976 l 1.131732,2.209119 -0.725785,2.916127 c -0.399179,1.60387 -1.222604,4.145481 -1.829829,5.648024 -1.946089,4.815469 -1.732939,5.625717 4.784839,18.188379 3.991711,7.693807 6.415036,11.15066 7.816832,11.15066 1.029143,0 0.848054,-0.751885 -1.130818,-4.695253 -0.996603,-1.985964 -1.956914,-3.991975 -2.134017,-4.457797 -0.602886,-1.585707 0.318296,-0.875767 2.029064,1.563765 0.929807,1.325893 2.523203,3.455357 3.540878,4.732142 1.017679,1.276786 2.872979,4.228543 4.12289,6.559458 3.471218,6.47336 5.561775,7.876767 14.941128,10.030082 2.9284,0.6723 6.02071,1.565453 6.87179,1.984782 0.85108,0.419325 2.88114,1.251107 4.51125,1.848403 2.44231,0.8949 3.83739,1.763072 7.9283,4.933857 6.02675,4.671217 7.63563,5.525687 9.79465,5.201927 1.84361,-0.27647 2.55669,0.24629 2.91081,2.13393 0.25987,1.38525 -0.0824,4.24966 -0.63841,5.34328 -0.19975,0.39285 -1.07309,1.44837 -1.94076,2.34559 -1.45865,1.50833 -1.62915,1.88768 -2.26166,5.0319 -0.37623,1.87033 -0.87242,3.81397 -1.10262,4.31922 -0.37111,0.81448 -0.21595,1.33719 1.36871,4.61095 0.983,2.03079 2.53812,5.24855 3.45583,7.1506 1.84552,3.82504 3.05066,5.51304 5.08886,7.12777 0.74856,0.59305 1.58155,1.49486 1.85108,2.00403 0.64255,1.21386 0.34176,4.137 -0.65867,6.40098 -1.00834,2.28188 -5.74706,9.65502 -12.06323,18.76958 l -5.13043,7.40347 -2.926,0.90757 c -5.08621,1.5776 -11.4827,2.69956 -17.35164,3.04353 -3.0659,0.17968 -5.815438,0.30703 -6.110081,0.28299 -0.294643,-0.024 -2.544643,-0.162 -5,-0.30659 l 0,0 z"
       id="path4576"
       inkscape:connector-curvature="0"
       transform="translate(273.29199,427.42584)" />
    <path
       style="fill:#0592ff;fill-opacity:1;stroke:#0592ff;stroke-opacity:1"
       d="m 172.53175,108.90413 c -0.6526,-0.57388 -1.11871,-1.62023 -1.6307,-3.66071 -0.91186,-3.63415 -1.54106,-4.47116 -4.02712,-5.357143 -1.3196,-0.470279 -3.11058,-1.627439 -5.24279,-3.387396 -1.78118,-1.470208 -3.59718,-2.812308 -4.03554,-2.98244 -0.43837,-0.170132 -2.53336,-0.223482 -4.65554,-0.118557 -3.6946,0.182664 -3.91459,0.152461 -5.17857,-0.710996 -1.09648,-0.749025 -1.63118,-0.876657 -3.15693,-0.753536 -1.52589,0.123129 -2.48117,0.558954 -5.6425,2.574275 -4.11839,2.625436 -5.62963,3.164511 -7.95097,2.8362 -1.91834,-0.271314 -2.35333,-0.938407 -3.33307,-5.111557 -1.01294,-4.314579 -1.66909,-5.087464 -4.47965,-5.2766 -3.51801,-0.23675 -3.72195,-0.3262 -3.71565,-1.629768 0.003,-0.63465 0.23842,-2.118196 0.52299,-3.296768 0.99898,-4.137232 0.44525,-5.522535 -2.24987,-5.628703 -1.45439,-0.0573 -1.64315,0.05372 -3.29674,1.938882 -2.37238,2.704614 -5.47509,3.871007 -7.46471,2.806193 -1.40593,-0.752432 -3.23153,-5.196407 -3.23153,-7.866372 0,-0.71441 0.25846,-2.169275 0.57437,-3.233035 1.04727,-3.526543 3.85208,-5.212218 7.18806,-4.319979 1.42583,0.381354 1.69781,0.332336 3.66439,-0.660386 2.46701,-1.245346 4.85013,-1.413228 6.47084,-0.45585 0.57398,0.339054 2.09739,1.946197 3.38535,3.571429 1.96053,2.473896 2.50896,2.954964 3.36877,2.954964 2.05393,0 1.9941,-1.237643 -0.32608,-6.74555 -0.61128,-1.451121 -1.11142,-3.172025 -1.11142,-3.824228 0,-1.041193 0.20691,-1.303475 1.69643,-2.150407 2.52297,-1.434547 2.58929,-1.584575 2.58929,-5.857249 0,-4.126794 0.0583,-4.259226 2.55825,-5.808815 0.53993,-0.334678 1.05395,-1.057781 1.18899,-1.672634 0.29622,-1.348678 1.40515,-2.155402 2.96285,-2.155402 1.60829,0 2.42972,-0.496188 2.85872,-1.726833 0.50095,-1.437039 0.0793,-1.944029 -1.39166,-1.673325 -1.09705,0.201892 -1.38889,0.05455 -3.0562,-1.542942 l -1.84332,-1.76615 1.39348,0.186906 c 1.8542,0.2487 2.47174,-0.311941 2.47174,-2.243985 0,-1.881548 -1.10113,-3.342633 -3.05035,-4.047478 -0.7408,-0.267879 -2.44733,-1.19891 -3.79229,-2.068958 -1.80322,-1.166499 -3.03123,-1.676872 -4.67637,-1.943543 -1.22704,-0.1989 -3.78301,-0.854807 -5.67993,-1.45757 -5.42786,-1.72475 -6.59222,-1.042481 -4.29269,2.515338 1.26502,1.957233 2.23736,5.141864 1.72604,5.653182 -0.097,0.09698 -1.41815,-0.66166 -2.93595,-1.685859 -3.50416,-2.36458 -6.90361,-3.910122 -8.6299,-3.923538 l -1.34713,-0.01047 1.13202,-0.971674 c 0.62261,-0.53442 1.88046,-1.596277 2.79522,-2.35968 0.91476,-0.763404 1.80278,-1.755129 1.97338,-2.203834 0.19976,-0.525396 0.53965,-0.769297 0.95478,-0.685124 7.49746,1.520215 12.73513,3.201377 19.21603,6.167877 8.1091,3.711774 14.93998,8.425791 21.53076,14.858463 5.08808,4.966024 7.49249,7.756072 10.34194,12.000624 6.8855,10.2567 11.31598,21.740646 13.10723,33.974407 0.57763,3.945036 0.74922,13.986583 0.32481,19.007423 l -0.23098,2.73246 -1.71339,0 c -1.268,0 -1.95093,-0.20889 -2.62719,-0.80358 l 0,0 z"
       id="path4578"
       inkscape:connector-curvature="0"
       transform="translate(273.29199,427.42584)" />
    <path
       style="fill:#0592ff;fill-opacity:1;stroke:#0592ff;stroke-opacity:1"
       d="m 92.342917,20.35367 c -0.196716,-0.129698 -0.363706,-0.285582 -0.371089,-0.346408 -0.01275,-0.105045 1.938105,-0.440829 2.039847,-0.351102 0.107903,0.09516 -0.860723,0.934928 -1.077496,0.934156 -0.128479,-4.57e-4 -0.394547,-0.106948 -0.591262,-0.236646 z"
       id="path4580"
       inkscape:connector-curvature="0"
       transform="translate(273.29199,427.42584)" />
  </g>
</svg>
