<?xml version="1.0" encoding="UTF-8" standalone="no"?>
<!-- Created with Inkscape (http://www.inkscape.org/) -->

<svg
   xmlns:dc="http://purl.org/dc/elements/1.1/"
   xmlns:cc="http://creativecommons.org/ns#"
   xmlns:rdf="http://www.w3.org/1999/02/22-rdf-syntax-ns#"
   xmlns:svg="http://www.w3.org/2000/svg"
   xmlns="http://www.w3.org/2000/svg"
   xmlns:sodipodi="http://sodipodi.sourceforge.net/DTD/sodipodi-0.dtd"
   xmlns:inkscape="http://www.inkscape.org/namespaces/inkscape"
   width="56.373371"
   height="58.976757"
   id="svg3062"
   version="1.1"
   inkscape:version="0.48.5 r10040"
   sodipodi:docname="favicon.svg"
   inkscape:export-filename="/home/willist/Development/jupiter_tour/local/res/favicon.png"
   inkscape:export-xdpi="300.62689"
   inkscape:export-ydpi="300.62689">
  <defs
     id="defs3064" />
  <sodipodi:namedview
     id="base"
     pagecolor="#ffffff"
     bordercolor="#666666"
     borderopacity="1.0"
     inkscape:pageopacity="0.0"
     inkscape:pageshadow="2"
     inkscape:zoom="3.959798"
     inkscape:cx="12.46535"
     inkscape:cy="44.759173"
     inkscape:document-units="px"
     inkscape:current-layer="layer1"
     showgrid="false"
     fit-margin-top="0"
     fit-margin-left="0"
     fit-margin-right="0"
     fit-margin-bottom="0"
     inkscape:window-width="1353"
     inkscape:window-height="794"
     inkscape:window-x="72"
     inkscape:window-y="40"
     inkscape:window-maximized="0" />
  <metadata
     id="metadata3067">
    <rdf:RDF>
      <cc:Work
         rdf:about="">
        <dc:format>image/svg+xml</dc:format>
        <dc:type
           rdf:resource="http://purl.org/dc/dcmitype/StillImage" />
        <dc:title></dc:title>
      </cc:Work>
    </rdf:RDF>
  </metadata>
  <g
     inkscape:label="Layer 1"
     inkscape:groupmode="layer"
     id="layer1"
     transform="translate(-346.81331,-502.8738)">
    <g
       id="g3887">
      <g
         style="fill:#333333;fill-opacity:1;stroke:none"
         transform="matrix(1.25,0,0,-1.25,365.22849,543.27253)"
         id="g64">
        <path
           inkscape:connector-curvature="0"
           id="path66"
           style="fill:#333333;fill-opacity:1;fill-rule:nonzero;stroke:none"
           d="m 0,0 -0.001,0 0,0 -0.001,-0.001 0,0 -0.001,0 c 0,-0.242 0.024,-0.478 0.071,-0.706 0.047,-0.228 0.116,-0.448 0.204,-0.657 0.088,-0.209 0.197,-0.408 0.323,-0.594 0.125,-0.187 0.268,-0.36 0.427,-0.519 0.158,-0.158 0.332,-0.301 0.518,-0.427 0.186,-0.126 0.385,-0.234 0.594,-0.323 0.209,-0.088 0.429,-0.157 0.657,-0.204 0.228,-0.047 0.463,-0.071 0.705,-0.071 0.242,0 0.478,0.024 0.706,0.071 0.228,0.047 0.447,0.116 0.657,0.204 0.209,0.089 0.408,0.197 0.594,0.323 0.186,0.126 0.36,0.269 0.518,0.427 0.158,0.159 0.302,0.332 0.427,0.519 0.126,0.186 0.235,0.385 0.323,0.594 0.089,0.209 0.157,0.429 0.204,0.657 0.047,0.228 0.071,0.464 0.071,0.706 l 0,0 0,0.001 0,0 0,0 0,0.001 L 0,0 z" />
      </g>
      <g
         style="fill:#333333;fill-opacity:1;stroke:none"
         transform="matrix(1.25,0,0,-1.25,376.02986,543.27253)"
         id="g68">
        <path
           inkscape:connector-curvature="0"
           id="path70"
           style="fill:#333333;fill-opacity:1;fill-rule:nonzero;stroke:none"
           d="m 0,0 0,0 -0.001,0 -0.001,-0.001 0,0 -0.001,0 c 0,-0.242 0.024,-0.478 0.071,-0.706 0.047,-0.228 0.116,-0.448 0.204,-0.657 0.088,-0.209 0.197,-0.408 0.323,-0.594 0.125,-0.187 0.269,-0.36 0.427,-0.519 0.158,-0.158 0.332,-0.301 0.518,-0.427 0.186,-0.126 0.385,-0.234 0.594,-0.323 0.209,-0.088 0.429,-0.157 0.657,-0.204 0.228,-0.047 0.463,-0.071 0.705,-0.071 0.242,0 0.478,0.024 0.706,0.071 0.228,0.047 0.447,0.116 0.657,0.204 0.209,0.089 0.408,0.197 0.594,0.323 0.187,0.126 0.36,0.269 0.518,0.427 0.158,0.159 0.302,0.332 0.428,0.519 0.125,0.186 0.234,0.385 0.322,0.594 0.089,0.209 0.157,0.429 0.204,0.657 0.047,0.228 0.072,0.464 0.072,0.706 l 0,0 0,0.001 0,0 0,0 0,0.001 L 0,0 z" />
      </g>
      <g
         style="fill:#333333;fill-opacity:1;stroke:none"
         transform="matrix(1.25,0,0,-1.25,384.46924,538.8609)"
         id="g72">
        <path
           inkscape:connector-curvature="0"
           id="path74"
           style="fill:#333333;fill-opacity:1;fill-rule:nonzero;stroke:none"
           d="m 0,0 c 0,-0.182 -0.147,-0.33 -0.33,-0.33 l -14.491,0 c -0.182,0 -0.33,0.148 -0.33,0.33 0,0.182 0.148,0.33 0.33,0.33 l 14.491,0 C -0.147,0.33 0,0.182 0,0" />
      </g>
      <g
         style="fill:#333333;fill-opacity:1;stroke:none"
         transform="matrix(1.25,0,0,-1.25,384.46924,541.30178)"
         id="g76">
        <path
           inkscape:connector-curvature="0"
           id="path78"
           style="fill:#333333;fill-opacity:1;fill-rule:nonzero;stroke:none"
           d="m 0,0 c 0,-0.182 -0.147,-0.33 -0.33,-0.33 l -14.491,0 c -0.182,0 -0.33,0.148 -0.33,0.33 0,0.182 0.148,0.329 0.33,0.329 l 14.491,0 C -0.147,0.329 0,0.182 0,0" />
      </g>
      <g
         style="fill:#333333;fill-opacity:1;stroke:none"
         transform="matrix(1.25,0,0,-1.25,358.60861,515.77628)"
         id="g84">
        <path
           inkscape:connector-curvature="0"
           id="path86"
           style="fill:#333333;fill-opacity:1;fill-rule:nonzero;stroke:none"
           d="m 0,0 c 0,-1.657 -1.344,-3.001 -3.001,-3.001 -1.658,0 -3.001,1.344 -3.001,3.001 0,1.658 1.343,3.001 3.001,3.001 C -1.344,3.001 0,1.658 0,0" />
      </g>
      <g
         style="fill:#333333;fill-opacity:1;stroke:none"
         transform="matrix(1.25,0,0,-1.25,352.43987,538.26528)"
         id="g88">
        <path
           inkscape:connector-curvature="0"
           id="path90"
           style="fill:#333333;fill-opacity:1;fill-rule:nonzero;stroke:none"
           d="M 0,0 C 1.435,-0.829 1.927,-2.664 1.098,-4.099 0.27,-5.534 -1.565,-6.025 -3,-5.197 -4.436,-4.368 -4.927,-2.533 -4.099,-1.098 -3.27,0.337 -1.435,0.829 0,0" />
      </g>
      <g
         style="fill:#333333;fill-opacity:1;stroke:none"
         transform="matrix(1.25,0,0,-1.25,368.832,554.8509)"
         id="g92">
        <path
           inkscape:connector-curvature="0"
           id="path94"
           style="fill:#333333;fill-opacity:1;fill-rule:nonzero;stroke:none"
           d="M 0,0 C 1.435,0.828 3.27,0.336 4.099,-1.099 4.927,-2.534 4.436,-4.369 3,-5.197 1.565,-6.026 -0.27,-5.534 -1.098,-4.099 -1.927,-2.664 -1.435,-0.829 0,0" />
      </g>
      <g
         style="fill:#333333;fill-opacity:1;stroke:none"
         transform="matrix(1.25,0,0,-1.25,391.39124,548.94828)"
         id="g96">
        <path
           inkscape:connector-curvature="0"
           id="path98"
           style="fill:#333333;fill-opacity:1;fill-rule:nonzero;stroke:none"
           d="M 0,0 C 0,1.657 1.344,3.001 3.001,3.001 4.659,3.001 6.002,1.657 6.002,0 6.002,-1.657 4.659,-3.001 3.001,-3.001 1.344,-3.001 0,-1.657 0,0" />
      </g>
      <g
         style="fill:#333333;fill-opacity:1;stroke:none"
         transform="matrix(1.25,0,0,-1.25,397.56013,526.45915)"
         id="g100">
        <path
           inkscape:connector-curvature="0"
           id="path102"
           style="fill:#333333;fill-opacity:1;fill-rule:nonzero;stroke:none"
           d="M 0,0 C -1.435,0.829 -1.927,2.664 -1.098,4.099 -0.27,5.534 1.565,6.025 3,5.197 4.436,4.369 4.927,2.533 4.099,1.098 3.27,-0.337 1.435,-0.829 0,0" />
      </g>
      <g
         style="fill:#333333;fill-opacity:1;stroke:none"
         transform="matrix(1.25,0,0,-1.25,381.16786,509.8729)"
         id="g104">
        <path
           inkscape:connector-curvature="0"
           id="path106"
           style="fill:#333333;fill-opacity:1;fill-rule:nonzero;stroke:none"
           d="M 0,0 C -1.435,-0.829 -3.27,-0.337 -4.099,1.098 -4.927,2.533 -4.436,4.368 -3,5.197 -1.565,6.025 0.27,5.534 1.098,4.099 1.927,2.664 1.435,0.829 0,0" />
      </g>
      <g
         style="fill:#333333;fill-opacity:1;stroke:none"
         transform="matrix(1.25,0,0,-1.25,380.96036,529.1869)"
         id="g108">
        <path
           inkscape:connector-curvature="0"
           id="path110"
           style="fill:#333333;fill-opacity:1;fill-rule:nonzero;stroke:none"
           d="m 0,0 c -0.363,0 -0.659,0.295 -0.659,0.659 l 0,2.317 c 0,0.364 0.295,0.659 0.659,0.659 0.364,0 0.659,-0.295 0.659,-0.659 l 0,-2.317 C 0.659,0.295 0.364,0 0,0 m -4.768,-3.272 c -1.106,0 -2.003,0.897 -2.003,2.002 0,1.106 0.897,2.002 2.003,2.002 1.105,0 2.002,-0.896 2.002,-2.002 0,-1.105 -0.897,-2.002 -2.002,-2.002 M -9.537,0 c -0.364,0 -0.659,0.295 -0.659,0.659 l 0,2.317 c 0,0.364 0.295,0.659 0.659,0.659 0.364,0 0.659,-0.295 0.659,-0.659 l 0,-2.317 C -8.878,0.295 -9.173,0 -9.537,0 M 4.471,0.988 C 4.345,1.602 4.16,2.194 3.921,2.758 3.683,3.322 3.391,3.858 3.052,4.36 2.713,4.862 2.327,5.329 1.9,5.756 1.474,6.183 1.006,6.569 0.504,6.908 0.003,7.247 -0.533,7.539 -1.097,7.777 -1.662,8.016 -2.253,8.201 -2.868,8.327 -3.315,8.418 -3.774,8.478 -4.243,8.503 l 0,4.453 c 0,0.29 -0.235,0.525 -0.526,0.525 -0.29,0 -0.525,-0.235 -0.525,-0.525 l 0,-4.453 C -5.762,8.478 -6.221,8.418 -6.669,8.327 -7.283,8.201 -7.875,8.016 -8.439,7.777 -9.003,7.539 -9.54,7.247 -10.042,6.908 -10.543,6.569 -11.01,6.183 -11.437,5.756 -11.864,5.329 -12.25,4.862 -12.589,4.36 -12.928,3.858 -13.22,3.322 -13.458,2.758 c -0.239,-0.564 -0.424,-1.156 -0.55,-1.77 -0.125,-0.614 -0.191,-1.25 -0.191,-1.901 0,-0.651 0.066,-1.286 0.191,-1.9 0.126,-0.614 0.311,-1.207 0.55,-1.77 0.238,-0.564 0.53,-1.101 0.869,-1.602 l 15.641,0 c 0.339,0.501 0.631,1.038 0.869,1.602 0.239,0.563 0.424,1.156 0.55,1.77 0.126,0.614 0.192,1.249 0.192,1.9 0,0.651 -0.066,1.287 -0.192,1.901" />
      </g>
    </g>
  </g>
</svg>
